%
M48
M72
T01C0.01378
T02C0.03150
T03C0.03600
T04C0.03937
T05C0.04000
T06C0.04724
%
T01
X154424Y111946
X131924Y115321
X114424Y152821
X144424Y172821
X179424Y172821
X211924Y172821
X216924Y167821
X216924Y155321
X256924Y132821
X261924Y132821
X266924Y132821
X271924Y132821
X271924Y127821
X271924Y122821
X271924Y117821
X266924Y117821
X261924Y117821
X256924Y117821
X256924Y122821
X261924Y122821
X266924Y122821
X266924Y127821
X261924Y127821
X256924Y127821
X246924Y97821
X236924Y82821
X241986Y79134
X214424Y47821
X286924Y170321
X271924Y177821
X127299Y254196
X91986Y220384
T02
X64224Y31524
X52413Y50421
X107884Y129921
X107884Y139921
X107884Y149921
X107884Y159921
X107884Y169921
X107884Y179921
T03
X162524Y187821
X172524Y187821
X182524Y187821
X192524Y187821
X192524Y197821
X182524Y197821
X172524Y197821
X162524Y197821
T04
X162376Y237014
X172376Y237014
X182376Y237014
X182376Y247014
X172376Y247014
X162376Y247014
X152376Y247014
X142376Y247014
X132376Y247014
X122376Y247014
X112376Y247014
X102376Y247014
X102376Y237014
X112376Y237014
X122376Y237014
X132376Y237014
X142376Y237014
X152376Y237014
X192376Y237014
X202376Y237014
X202376Y247014
X192376Y247014
X212376Y247014
X222376Y247014
X222376Y237014
X212376Y237014
X232376Y237014
X242376Y237014
X242376Y247014
X232376Y247014
X252376Y247014
X262376Y247014
X262376Y237014
X252376Y237014
X272376Y237014
X282376Y237014
X282376Y247014
X272376Y247014
X292376Y247014
X292376Y237014
X76035Y50421
T05
X137524Y26321
X147524Y26321
X157524Y26321
X167524Y26321
X177524Y26321
X187524Y26321
X197524Y26321
X207524Y26321
X227524Y26321
X237524Y26321
X247524Y26321
X257524Y26321
X267524Y26321
X277524Y26321
X274424Y40321
X274424Y50321
X274424Y60321
X252224Y51421
X252224Y69221
X226624Y69221
X226624Y51421
X198324Y117521
X180524Y117521
X180524Y143121
X198324Y143121
X226624Y181421
X226624Y199221
X227524Y216321
X237524Y216321
X247524Y216321
X257524Y216321
X267524Y216321
X277524Y216321
X252224Y199221
X252224Y181421
X217524Y216321
X207524Y216321
X192524Y216321
X182524Y216321
X172524Y216321
X162524Y216321
X152524Y216321
X142524Y216321
X132524Y216321
X122524Y216321
X112524Y216321
X102524Y216321
T06
X92924Y92321
X92924Y82321
X92924Y50321
X92924Y40321
X165924Y40321
X165924Y50321
X165924Y82321
X165924Y92321
M30
