G75*
%MOIN*%
%OFA0B0*%
%FSLAX25Y25*%
%IPPOS*%
%LPD*%
%AMOC8*
5,1,8,0,0,1.08239X$1,22.5*
%
%ADD10C,0.01600*%
%ADD11R,0.05118X0.05906*%
%ADD12R,0.05906X0.05118*%
%ADD13C,0.08600*%
%ADD14C,0.07400*%
%ADD15C,0.06000*%
%ADD16R,0.04724X0.04724*%
%ADD17R,0.03937X0.05906*%
%ADD18R,0.05906X0.03937*%
%ADD19C,0.07874*%
%ADD20R,0.07874X0.07874*%
%ADD21R,0.20000X0.20000*%
%ADD22R,0.02165X0.04724*%
%ADD23R,0.07000X0.07000*%
%ADD24C,0.07000*%
%ADD25OC8,0.05600*%
%ADD26C,0.02400*%
%ADD27C,0.02978*%
%ADD28C,0.02000*%
%ADD29OC8,0.02978*%
D10*
X0021149Y0014300D02*
X0021149Y0259300D01*
X0028649Y0266800D01*
X0298649Y0266800D01*
X0306149Y0259300D01*
X0306149Y0039300D01*
X0291149Y0024300D01*
X0291149Y0001800D01*
X0033649Y0001800D01*
X0021149Y0014300D01*
X0023649Y0014300D02*
X0023649Y0259300D01*
X0028649Y0264300D01*
X0298649Y0264300D01*
X0303649Y0259300D01*
X0303649Y0163154D01*
X0297411Y0163154D01*
X0296529Y0162789D01*
X0295854Y0162114D01*
X0295622Y0161554D01*
X0292167Y0161554D01*
X0292167Y0156986D01*
X0294188Y0156986D01*
X0294646Y0157108D01*
X0295056Y0157345D01*
X0295392Y0157681D01*
X0295488Y0157848D01*
X0295488Y0092794D01*
X0295392Y0092962D01*
X0295056Y0093297D01*
X0294646Y0093534D01*
X0294188Y0093657D01*
X0292167Y0093657D01*
X0292167Y0089088D01*
X0295622Y0089088D01*
X0295854Y0088529D01*
X0296529Y0087854D01*
X0297411Y0087488D01*
X0303649Y0087488D01*
X0303649Y0039300D01*
X0288649Y0024300D01*
X0288649Y0004300D01*
X0033649Y0004300D01*
X0023649Y0014300D01*
X0024262Y0013687D02*
X0111637Y0013687D01*
X0111711Y0013509D02*
X0112611Y0012608D01*
X0117611Y0007608D01*
X0118787Y0007121D01*
X0217560Y0007121D01*
X0218736Y0007608D01*
X0219636Y0008509D01*
X0223324Y0012196D01*
X0223811Y0013372D01*
X0223811Y0021407D01*
X0224068Y0021150D01*
X0226310Y0020221D01*
X0228737Y0020221D01*
X0230979Y0021150D01*
X0232524Y0022695D01*
X0234068Y0021150D01*
X0236310Y0020221D01*
X0238737Y0020221D01*
X0240979Y0021150D01*
X0242524Y0022695D01*
X0244068Y0021150D01*
X0246310Y0020221D01*
X0248737Y0020221D01*
X0250979Y0021150D01*
X0252524Y0022695D01*
X0254068Y0021150D01*
X0256310Y0020221D01*
X0258737Y0020221D01*
X0260979Y0021150D01*
X0262524Y0022695D01*
X0264068Y0021150D01*
X0266310Y0020221D01*
X0268737Y0020221D01*
X0270979Y0021150D01*
X0272524Y0022695D01*
X0274068Y0021150D01*
X0276310Y0020221D01*
X0278737Y0020221D01*
X0280979Y0021150D01*
X0282695Y0022866D01*
X0283624Y0025108D01*
X0283624Y0027535D01*
X0282695Y0029777D01*
X0280979Y0031493D01*
X0278737Y0032421D01*
X0276310Y0032421D01*
X0274068Y0031493D01*
X0272524Y0029948D01*
X0270979Y0031493D01*
X0268737Y0032421D01*
X0266310Y0032421D01*
X0264068Y0031493D01*
X0262524Y0029948D01*
X0260979Y0031493D01*
X0258737Y0032421D01*
X0256310Y0032421D01*
X0254068Y0031493D01*
X0252524Y0029948D01*
X0250979Y0031493D01*
X0248737Y0032421D01*
X0246310Y0032421D01*
X0244068Y0031493D01*
X0242524Y0029948D01*
X0240979Y0031493D01*
X0238737Y0032421D01*
X0236310Y0032421D01*
X0234068Y0031493D01*
X0232524Y0029948D01*
X0230979Y0031493D01*
X0228737Y0032421D01*
X0226310Y0032421D01*
X0224068Y0031493D01*
X0223811Y0031235D01*
X0223811Y0034621D01*
X0261524Y0034621D01*
X0261753Y0034563D01*
X0262154Y0034621D01*
X0262560Y0034621D01*
X0262779Y0034712D01*
X0263013Y0034746D01*
X0263361Y0034953D01*
X0263736Y0035108D01*
X0263903Y0035276D01*
X0264107Y0035396D01*
X0264349Y0035722D01*
X0264636Y0036009D01*
X0264727Y0036227D01*
X0266366Y0038421D01*
X0266846Y0037262D01*
X0268365Y0035743D01*
X0270349Y0034921D01*
X0278498Y0034921D01*
X0280482Y0035743D01*
X0281860Y0037121D01*
X0290060Y0037121D01*
X0291236Y0037608D01*
X0292136Y0038509D01*
X0294689Y0041061D01*
X0295176Y0042237D01*
X0295176Y0065095D01*
X0295304Y0065148D01*
X0295979Y0065823D01*
X0296345Y0066705D01*
X0296345Y0073566D01*
X0295979Y0074448D01*
X0295745Y0074682D01*
X0295745Y0077353D01*
X0292160Y0077353D01*
X0292160Y0077721D01*
X0291792Y0077721D01*
X0291792Y0082290D01*
X0290124Y0082290D01*
X0290124Y0083839D01*
X0290311Y0083916D01*
X0290545Y0084151D01*
X0291798Y0084151D01*
X0291798Y0088720D01*
X0292167Y0088720D01*
X0292167Y0089088D01*
X0291798Y0089088D01*
X0291798Y0093657D01*
X0290545Y0093657D01*
X0290311Y0093891D01*
X0289429Y0094257D01*
X0284537Y0094257D01*
X0284483Y0094234D01*
X0284429Y0094257D01*
X0279537Y0094257D01*
X0279483Y0094234D01*
X0279429Y0094257D01*
X0274537Y0094257D01*
X0274483Y0094234D01*
X0274429Y0094257D01*
X0269537Y0094257D01*
X0269483Y0094234D01*
X0269429Y0094257D01*
X0264537Y0094257D01*
X0263655Y0093891D01*
X0263420Y0093657D01*
X0262167Y0093657D01*
X0262167Y0089088D01*
X0261798Y0089088D01*
X0261798Y0093657D01*
X0260545Y0093657D01*
X0260311Y0093891D01*
X0259429Y0094257D01*
X0254537Y0094257D01*
X0254483Y0094234D01*
X0254429Y0094257D01*
X0250124Y0094257D01*
X0250124Y0095521D01*
X0250221Y0095618D01*
X0250813Y0097048D01*
X0250813Y0098595D01*
X0250221Y0100024D01*
X0249127Y0101118D01*
X0247697Y0101710D01*
X0246150Y0101710D01*
X0244721Y0101118D01*
X0243627Y0100024D01*
X0243035Y0098595D01*
X0243035Y0097048D01*
X0243627Y0095618D01*
X0243724Y0095521D01*
X0243724Y0094257D01*
X0239537Y0094257D01*
X0239483Y0094234D01*
X0239429Y0094257D01*
X0234537Y0094257D01*
X0234483Y0094234D01*
X0234429Y0094257D01*
X0229537Y0094257D01*
X0229483Y0094234D01*
X0229429Y0094257D01*
X0224537Y0094257D01*
X0223655Y0093891D01*
X0222980Y0093216D01*
X0222614Y0092334D01*
X0222614Y0085474D01*
X0222980Y0084592D01*
X0223383Y0084188D01*
X0223383Y0074481D01*
X0223168Y0074393D01*
X0221597Y0072821D01*
X0219261Y0072821D01*
X0217938Y0072273D01*
X0214292Y0068627D01*
X0210993Y0068627D01*
X0210111Y0068261D01*
X0209472Y0067622D01*
X0208722Y0067622D01*
X0208427Y0068334D01*
X0207752Y0069009D01*
X0206870Y0069375D01*
X0201978Y0069375D01*
X0201096Y0069009D01*
X0200420Y0068334D01*
X0200055Y0067452D01*
X0200055Y0060592D01*
X0200167Y0060321D01*
X0200055Y0060051D01*
X0200055Y0053190D01*
X0200420Y0052308D01*
X0201096Y0051633D01*
X0201224Y0051580D01*
X0201224Y0047998D01*
X0201173Y0047542D01*
X0201224Y0047367D01*
X0201224Y0047185D01*
X0201399Y0046760D01*
X0201527Y0046319D01*
X0201641Y0046177D01*
X0201711Y0046009D01*
X0202036Y0045684D01*
X0211224Y0034199D01*
X0211224Y0031248D01*
X0210979Y0031493D01*
X0208737Y0032421D01*
X0206310Y0032421D01*
X0204068Y0031493D01*
X0202352Y0029777D01*
X0202156Y0029303D01*
X0201719Y0029904D01*
X0201107Y0030516D01*
X0200406Y0031025D01*
X0199635Y0031418D01*
X0198812Y0031686D01*
X0197956Y0031821D01*
X0197724Y0031821D01*
X0197724Y0026521D01*
X0197324Y0026521D01*
X0197324Y0031821D01*
X0197091Y0031821D01*
X0196236Y0031686D01*
X0195412Y0031418D01*
X0194641Y0031025D01*
X0193941Y0030516D01*
X0193328Y0029904D01*
X0192820Y0029204D01*
X0192524Y0028623D01*
X0192228Y0029204D01*
X0191719Y0029904D01*
X0191107Y0030516D01*
X0190406Y0031025D01*
X0189635Y0031418D01*
X0188812Y0031686D01*
X0187956Y0031821D01*
X0187724Y0031821D01*
X0187724Y0026521D01*
X0197324Y0026521D01*
X0197324Y0026121D01*
X0197724Y0026121D01*
X0197724Y0020821D01*
X0197956Y0020821D01*
X0198812Y0020957D01*
X0199635Y0021224D01*
X0200406Y0021617D01*
X0201107Y0022126D01*
X0201719Y0022738D01*
X0202156Y0023340D01*
X0202352Y0022866D01*
X0204068Y0021150D01*
X0206310Y0020221D01*
X0208737Y0020221D01*
X0210979Y0021150D01*
X0211224Y0021395D01*
X0211224Y0019147D01*
X0210598Y0018521D01*
X0171949Y0018521D01*
X0170724Y0019747D01*
X0170724Y0021044D01*
X0170979Y0021150D01*
X0172524Y0022695D01*
X0174068Y0021150D01*
X0176310Y0020221D01*
X0178737Y0020221D01*
X0180979Y0021150D01*
X0182695Y0022866D01*
X0182891Y0023340D01*
X0183328Y0022738D01*
X0183941Y0022126D01*
X0184641Y0021617D01*
X0185412Y0021224D01*
X0186236Y0020957D01*
X0187091Y0020821D01*
X0187324Y0020821D01*
X0187324Y0026121D01*
X0187724Y0026121D01*
X0187724Y0026521D01*
X0187324Y0026521D01*
X0187324Y0031821D01*
X0187091Y0031821D01*
X0186236Y0031686D01*
X0185412Y0031418D01*
X0184641Y0031025D01*
X0183941Y0030516D01*
X0183328Y0029904D01*
X0182891Y0029302D01*
X0182695Y0029777D01*
X0180979Y0031493D01*
X0178737Y0032421D01*
X0176310Y0032421D01*
X0174068Y0031493D01*
X0172524Y0029948D01*
X0170979Y0031493D01*
X0168737Y0032421D01*
X0166310Y0032421D01*
X0164068Y0031493D01*
X0162524Y0029948D01*
X0160979Y0031493D01*
X0158737Y0032421D01*
X0156310Y0032421D01*
X0154068Y0031493D01*
X0152524Y0029948D01*
X0150979Y0031493D01*
X0150724Y0031598D01*
X0150724Y0092858D01*
X0150236Y0094034D01*
X0149336Y0094934D01*
X0148949Y0095321D01*
X0149976Y0096349D01*
X0150877Y0097249D01*
X0151364Y0098425D01*
X0151364Y0101681D01*
X0151546Y0102121D01*
X0159325Y0102121D01*
X0159641Y0101359D01*
X0160316Y0100684D01*
X0161198Y0100318D01*
X0168059Y0100318D01*
X0168941Y0100684D01*
X0169616Y0101359D01*
X0169914Y0102077D01*
X0180701Y0102077D01*
X0180735Y0101993D01*
X0181411Y0101318D01*
X0182293Y0100953D01*
X0189153Y0100953D01*
X0189424Y0101065D01*
X0189694Y0100953D01*
X0196555Y0100953D01*
X0197437Y0101318D01*
X0198112Y0101993D01*
X0198290Y0102424D01*
X0198736Y0102608D01*
X0199636Y0103509D01*
X0201036Y0104909D01*
X0201524Y0106085D01*
X0201524Y0112244D01*
X0201779Y0112350D01*
X0203495Y0114066D01*
X0204424Y0116308D01*
X0204424Y0118735D01*
X0203495Y0120977D01*
X0201779Y0122693D01*
X0201724Y0122715D01*
X0201724Y0137927D01*
X0201779Y0137950D01*
X0203350Y0139521D01*
X0214780Y0139521D01*
X0214780Y0135316D01*
X0214802Y0135262D01*
X0214780Y0135208D01*
X0214780Y0130316D01*
X0214802Y0130262D01*
X0214780Y0130208D01*
X0214780Y0125316D01*
X0214802Y0125262D01*
X0214780Y0125208D01*
X0214780Y0120316D01*
X0214802Y0120262D01*
X0214780Y0120208D01*
X0214780Y0115316D01*
X0214802Y0115262D01*
X0214780Y0115208D01*
X0214780Y0110316D01*
X0214802Y0110262D01*
X0214780Y0110208D01*
X0214780Y0106362D01*
X0208648Y0106362D01*
X0207325Y0105814D01*
X0200432Y0098921D01*
X0197840Y0098921D01*
X0197437Y0099324D01*
X0196555Y0099690D01*
X0189694Y0099690D01*
X0188812Y0099324D01*
X0188578Y0099090D01*
X0185907Y0099090D01*
X0185907Y0095506D01*
X0185539Y0095506D01*
X0185539Y0099090D01*
X0182533Y0099090D01*
X0182075Y0098967D01*
X0181665Y0098730D01*
X0181330Y0098395D01*
X0181093Y0097984D01*
X0180970Y0097527D01*
X0180970Y0095505D01*
X0185538Y0095505D01*
X0185538Y0095137D01*
X0180970Y0095137D01*
X0180970Y0093116D01*
X0181093Y0092658D01*
X0181330Y0092247D01*
X0181665Y0091912D01*
X0182075Y0091675D01*
X0182533Y0091553D01*
X0185539Y0091553D01*
X0185539Y0095137D01*
X0185907Y0095137D01*
X0185907Y0091553D01*
X0188578Y0091553D01*
X0188812Y0091318D01*
X0189694Y0090953D01*
X0196555Y0090953D01*
X0197437Y0091318D01*
X0197840Y0091721D01*
X0202640Y0091721D01*
X0203963Y0092269D01*
X0204976Y0093282D01*
X0210856Y0099162D01*
X0215417Y0099162D01*
X0215820Y0098759D01*
X0216702Y0098394D01*
X0223562Y0098394D01*
X0224445Y0098759D01*
X0225120Y0099434D01*
X0225485Y0100316D01*
X0225485Y0105208D01*
X0225463Y0105262D01*
X0225485Y0105316D01*
X0225485Y0110208D01*
X0225463Y0110262D01*
X0225485Y0110316D01*
X0225485Y0115208D01*
X0225463Y0115262D01*
X0225485Y0115316D01*
X0225485Y0120208D01*
X0225463Y0120262D01*
X0225485Y0120316D01*
X0225485Y0125208D01*
X0225463Y0125262D01*
X0225485Y0125316D01*
X0225485Y0130208D01*
X0225463Y0130262D01*
X0225485Y0130316D01*
X0225485Y0135208D01*
X0225463Y0135262D01*
X0225485Y0135316D01*
X0225485Y0140208D01*
X0225463Y0140262D01*
X0225485Y0140316D01*
X0225485Y0145208D01*
X0225120Y0146090D01*
X0224885Y0146325D01*
X0224885Y0147578D01*
X0220317Y0147578D01*
X0220317Y0147946D01*
X0224885Y0147946D01*
X0224885Y0149968D01*
X0224762Y0150425D01*
X0224525Y0150836D01*
X0224190Y0151171D01*
X0223780Y0151408D01*
X0223322Y0151531D01*
X0220317Y0151531D01*
X0220317Y0147946D01*
X0219948Y0147946D01*
X0219948Y0147578D01*
X0215380Y0147578D01*
X0215380Y0146721D01*
X0203350Y0146721D01*
X0201779Y0148293D01*
X0199537Y0149221D01*
X0197110Y0149221D01*
X0194868Y0148293D01*
X0193152Y0146577D01*
X0192224Y0144335D01*
X0192224Y0141908D01*
X0193152Y0139666D01*
X0194868Y0137950D01*
X0194924Y0137927D01*
X0194924Y0122715D01*
X0194868Y0122693D01*
X0193152Y0120977D01*
X0192224Y0118735D01*
X0192224Y0116308D01*
X0193152Y0114066D01*
X0194868Y0112350D01*
X0195124Y0112244D01*
X0195124Y0109690D01*
X0189694Y0109690D01*
X0189424Y0109578D01*
X0189153Y0109690D01*
X0182293Y0109690D01*
X0181411Y0109324D01*
X0180735Y0108649D01*
X0180664Y0108477D01*
X0169914Y0108477D01*
X0169616Y0109196D01*
X0169381Y0109430D01*
X0169381Y0111491D01*
X0165108Y0111491D01*
X0165108Y0112450D01*
X0164149Y0112450D01*
X0164149Y0116329D01*
X0161439Y0116329D01*
X0160981Y0116207D01*
X0160571Y0115970D01*
X0160236Y0115634D01*
X0159999Y0115224D01*
X0159876Y0114766D01*
X0159876Y0112450D01*
X0164149Y0112450D01*
X0164149Y0111491D01*
X0159876Y0111491D01*
X0159876Y0109430D01*
X0159641Y0109196D01*
X0159362Y0108521D01*
X0151448Y0108521D01*
X0151281Y0108925D01*
X0150652Y0109554D01*
X0150877Y0109779D01*
X0151364Y0110955D01*
X0151364Y0111917D01*
X0151646Y0112600D01*
X0151646Y0118279D01*
X0151281Y0119161D01*
X0150606Y0119836D01*
X0149724Y0120202D01*
X0146604Y0120202D01*
X0145722Y0119836D01*
X0145487Y0119602D01*
X0144424Y0119602D01*
X0144424Y0115439D01*
X0144424Y0120321D01*
X0151185Y0127083D01*
X0151185Y0127821D01*
X0154424Y0124583D01*
X0154424Y0111946D01*
X0164605Y0111946D01*
X0164629Y0111970D01*
X0165108Y0112450D02*
X0165108Y0116329D01*
X0167818Y0116329D01*
X0168276Y0116207D01*
X0168687Y0115970D01*
X0169022Y0115634D01*
X0169259Y0115224D01*
X0169381Y0114766D01*
X0169381Y0112450D01*
X0165108Y0112450D01*
X0165108Y0112794D02*
X0164149Y0112794D01*
X0164149Y0114393D02*
X0165108Y0114393D01*
X0165108Y0115991D02*
X0164149Y0115991D01*
X0160608Y0115991D02*
X0151646Y0115991D01*
X0151646Y0114393D02*
X0159876Y0114393D01*
X0159876Y0112794D02*
X0151646Y0112794D01*
X0151364Y0111196D02*
X0159876Y0111196D01*
X0159876Y0109597D02*
X0150695Y0109597D01*
X0148164Y0111591D02*
X0147044Y0110471D01*
X0141814Y0110471D01*
X0141784Y0110441D01*
X0140683Y0111541D01*
X0140683Y0115439D01*
X0132042Y0115439D01*
X0131924Y0115321D01*
X0140683Y0115439D02*
X0140683Y0126362D01*
X0144492Y0130171D01*
X0143883Y0124818D02*
X0147529Y0124818D01*
X0148411Y0125184D01*
X0148645Y0125418D01*
X0150706Y0125418D01*
X0150706Y0129692D01*
X0151665Y0129692D01*
X0151665Y0130651D01*
X0155544Y0130651D01*
X0155544Y0133361D01*
X0155421Y0133819D01*
X0155184Y0134229D01*
X0154849Y0134564D01*
X0154439Y0134801D01*
X0153981Y0134924D01*
X0151665Y0134924D01*
X0151665Y0130651D01*
X0150706Y0130651D01*
X0150706Y0134924D01*
X0148645Y0134924D01*
X0148411Y0135159D01*
X0148314Y0135199D01*
X0148351Y0135214D01*
X0148585Y0135448D01*
X0150646Y0135448D01*
X0150646Y0139722D01*
X0151605Y0139722D01*
X0151605Y0140681D01*
X0155484Y0140681D01*
X0155484Y0143391D01*
X0155361Y0143849D01*
X0155125Y0144259D01*
X0154789Y0144594D01*
X0154379Y0144831D01*
X0153921Y0144954D01*
X0151605Y0144954D01*
X0151605Y0140681D01*
X0150646Y0140681D01*
X0150646Y0144954D01*
X0148585Y0144954D01*
X0148351Y0145189D01*
X0148350Y0145189D01*
X0148530Y0145368D01*
X0150591Y0145368D01*
X0150591Y0149642D01*
X0151550Y0149642D01*
X0151550Y0150601D01*
X0155429Y0150601D01*
X0155429Y0153311D01*
X0155306Y0153769D01*
X0155069Y0154179D01*
X0154734Y0154514D01*
X0154324Y0154751D01*
X0153866Y0154874D01*
X0151550Y0154874D01*
X0151550Y0150601D01*
X0150591Y0150601D01*
X0150591Y0154874D01*
X0148530Y0154874D01*
X0148296Y0155109D01*
X0148283Y0155114D01*
X0148356Y0155144D01*
X0148590Y0155378D01*
X0150651Y0155378D01*
X0150651Y0159652D01*
X0151610Y0159652D01*
X0151610Y0160611D01*
X0155489Y0160611D01*
X0155489Y0163321D01*
X0155366Y0163779D01*
X0155129Y0164189D01*
X0154794Y0164524D01*
X0154384Y0164761D01*
X0153926Y0164884D01*
X0151610Y0164884D01*
X0151610Y0160611D01*
X0150651Y0160611D01*
X0150651Y0164884D01*
X0148590Y0164884D01*
X0148356Y0165119D01*
X0148024Y0165256D01*
X0148024Y0171350D01*
X0148313Y0172048D01*
X0148313Y0173595D01*
X0147721Y0175024D01*
X0146627Y0176118D01*
X0145197Y0176710D01*
X0143650Y0176710D01*
X0142221Y0176118D01*
X0141127Y0175024D01*
X0140535Y0173595D01*
X0140535Y0172048D01*
X0140824Y0171350D01*
X0140824Y0165245D01*
X0140519Y0165119D01*
X0139843Y0164443D01*
X0139478Y0163561D01*
X0139478Y0163521D01*
X0125749Y0163521D01*
X0125124Y0164147D01*
X0125124Y0185958D01*
X0124636Y0187134D01*
X0123736Y0188034D01*
X0104636Y0207134D01*
X0103736Y0208034D01*
X0102560Y0208521D01*
X0098249Y0208521D01*
X0095186Y0211584D01*
X0095186Y0218084D01*
X0095283Y0218181D01*
X0095875Y0219610D01*
X0095875Y0221157D01*
X0095476Y0222121D01*
X0100586Y0222121D01*
X0099068Y0221493D01*
X0097352Y0219777D01*
X0096424Y0217535D01*
X0096424Y0215108D01*
X0097352Y0212866D01*
X0099068Y0211150D01*
X0101310Y0210221D01*
X0103737Y0210221D01*
X0105979Y0211150D01*
X0107524Y0212695D01*
X0109068Y0211150D01*
X0111310Y0210221D01*
X0113737Y0210221D01*
X0115979Y0211150D01*
X0117524Y0212695D01*
X0119068Y0211150D01*
X0121310Y0210221D01*
X0123737Y0210221D01*
X0125979Y0211150D01*
X0127695Y0212866D01*
X0127891Y0213340D01*
X0128328Y0212738D01*
X0128941Y0212126D01*
X0129641Y0211617D01*
X0130412Y0211224D01*
X0131236Y0210957D01*
X0132091Y0210821D01*
X0132324Y0210821D01*
X0132324Y0216121D01*
X0132724Y0216121D01*
X0132724Y0210821D01*
X0132956Y0210821D01*
X0133812Y0210957D01*
X0134635Y0211224D01*
X0135406Y0211617D01*
X0136107Y0212126D01*
X0136719Y0212738D01*
X0137156Y0213340D01*
X0137352Y0212866D01*
X0139068Y0211150D01*
X0141310Y0210221D01*
X0143737Y0210221D01*
X0145979Y0211150D01*
X0147524Y0212695D01*
X0149068Y0211150D01*
X0151310Y0210221D01*
X0153737Y0210221D01*
X0155979Y0211150D01*
X0157524Y0212695D01*
X0159068Y0211150D01*
X0161310Y0210221D01*
X0163737Y0210221D01*
X0165979Y0211150D01*
X0167524Y0212695D01*
X0169068Y0211150D01*
X0171310Y0210221D01*
X0173737Y0210221D01*
X0175979Y0211150D01*
X0177524Y0212695D01*
X0179068Y0211150D01*
X0181310Y0210221D01*
X0183737Y0210221D01*
X0185979Y0211150D01*
X0187524Y0212695D01*
X0189068Y0211150D01*
X0191310Y0210221D01*
X0193737Y0210221D01*
X0195979Y0211150D01*
X0197695Y0212866D01*
X0198624Y0215108D01*
X0198624Y0217535D01*
X0197695Y0219777D01*
X0195979Y0221493D01*
X0195724Y0221598D01*
X0195724Y0227295D01*
X0195236Y0228471D01*
X0192886Y0230821D01*
X0192594Y0231114D01*
X0193550Y0231114D01*
X0195718Y0232012D01*
X0197376Y0233670D01*
X0199034Y0232012D01*
X0201203Y0231114D01*
X0203550Y0231114D01*
X0205718Y0232012D01*
X0207376Y0233670D01*
X0209034Y0232012D01*
X0211203Y0231114D01*
X0213550Y0231114D01*
X0215718Y0232012D01*
X0217376Y0233670D01*
X0219034Y0232012D01*
X0221203Y0231114D01*
X0223550Y0231114D01*
X0225718Y0232012D01*
X0227376Y0233670D01*
X0229034Y0232012D01*
X0231203Y0231114D01*
X0233550Y0231114D01*
X0235718Y0232012D01*
X0237376Y0233670D01*
X0239034Y0232012D01*
X0241203Y0231114D01*
X0243550Y0231114D01*
X0245718Y0232012D01*
X0247376Y0233670D01*
X0249034Y0232012D01*
X0251203Y0231114D01*
X0253550Y0231114D01*
X0255718Y0232012D01*
X0257376Y0233670D01*
X0259034Y0232012D01*
X0261203Y0231114D01*
X0263550Y0231114D01*
X0265718Y0232012D01*
X0267376Y0233670D01*
X0269034Y0232012D01*
X0271203Y0231114D01*
X0273550Y0231114D01*
X0275718Y0232012D01*
X0277376Y0233670D01*
X0279034Y0232012D01*
X0281203Y0231114D01*
X0283550Y0231114D01*
X0285718Y0232012D01*
X0287376Y0233670D01*
X0289034Y0232012D01*
X0291203Y0231114D01*
X0293550Y0231114D01*
X0295718Y0232012D01*
X0297378Y0233672D01*
X0298276Y0235841D01*
X0298276Y0238188D01*
X0297378Y0240356D01*
X0295720Y0242014D01*
X0297378Y0243672D01*
X0298276Y0245841D01*
X0298276Y0248188D01*
X0297378Y0250356D01*
X0295718Y0252016D01*
X0293550Y0252914D01*
X0291203Y0252914D01*
X0289034Y0252016D01*
X0287376Y0250358D01*
X0285718Y0252016D01*
X0283550Y0252914D01*
X0281203Y0252914D01*
X0279034Y0252016D01*
X0277376Y0250358D01*
X0275718Y0252016D01*
X0273550Y0252914D01*
X0271203Y0252914D01*
X0269034Y0252016D01*
X0267376Y0250358D01*
X0265718Y0252016D01*
X0263550Y0252914D01*
X0261203Y0252914D01*
X0259034Y0252016D01*
X0257376Y0250358D01*
X0255718Y0252016D01*
X0253550Y0252914D01*
X0251203Y0252914D01*
X0249034Y0252016D01*
X0247376Y0250358D01*
X0245718Y0252016D01*
X0243550Y0252914D01*
X0241203Y0252914D01*
X0239034Y0252016D01*
X0237376Y0250358D01*
X0235718Y0252016D01*
X0233550Y0252914D01*
X0231203Y0252914D01*
X0229034Y0252016D01*
X0227376Y0250358D01*
X0225718Y0252016D01*
X0223550Y0252914D01*
X0221203Y0252914D01*
X0219034Y0252016D01*
X0217376Y0250358D01*
X0215718Y0252016D01*
X0213550Y0252914D01*
X0211203Y0252914D01*
X0209034Y0252016D01*
X0207376Y0250358D01*
X0205718Y0252016D01*
X0203550Y0252914D01*
X0201203Y0252914D01*
X0199034Y0252016D01*
X0197376Y0250358D01*
X0195718Y0252016D01*
X0193550Y0252914D01*
X0191203Y0252914D01*
X0189034Y0252016D01*
X0187376Y0250358D01*
X0185718Y0252016D01*
X0183550Y0252914D01*
X0181203Y0252914D01*
X0179034Y0252016D01*
X0177376Y0250358D01*
X0175718Y0252016D01*
X0173550Y0252914D01*
X0171203Y0252914D01*
X0169034Y0252016D01*
X0167376Y0250358D01*
X0165718Y0252016D01*
X0163550Y0252914D01*
X0161203Y0252914D01*
X0159034Y0252016D01*
X0157376Y0250358D01*
X0155718Y0252016D01*
X0153550Y0252914D01*
X0151203Y0252914D01*
X0149034Y0252016D01*
X0147376Y0250358D01*
X0145718Y0252016D01*
X0143550Y0252914D01*
X0141203Y0252914D01*
X0139034Y0252016D01*
X0137376Y0250358D01*
X0135718Y0252016D01*
X0135576Y0252075D01*
X0135576Y0255505D01*
X0135089Y0256681D01*
X0132136Y0259634D01*
X0131236Y0260534D01*
X0130060Y0261021D01*
X0086287Y0261021D01*
X0085111Y0260534D01*
X0084211Y0259634D01*
X0081711Y0257134D01*
X0081224Y0255958D01*
X0081224Y0227185D01*
X0081711Y0226009D01*
X0082611Y0225108D01*
X0085111Y0222608D01*
X0086287Y0222121D01*
X0088496Y0222121D01*
X0088097Y0221157D01*
X0088097Y0219610D01*
X0088689Y0218181D01*
X0088786Y0218084D01*
X0088786Y0209622D01*
X0089273Y0208446D01*
X0095111Y0202608D01*
X0096287Y0202121D01*
X0100598Y0202121D01*
X0118724Y0183996D01*
X0118724Y0162185D01*
X0119211Y0161009D01*
X0119898Y0160321D01*
X0119424Y0159847D01*
X0116636Y0162634D01*
X0115460Y0163121D01*
X0112944Y0163121D01*
X0112885Y0163263D01*
X0111227Y0164921D01*
X0112885Y0166579D01*
X0113784Y0168748D01*
X0113784Y0171095D01*
X0112885Y0173263D01*
X0111227Y0174921D01*
X0112885Y0176579D01*
X0113784Y0178748D01*
X0113784Y0181095D01*
X0112885Y0183263D01*
X0111226Y0184923D01*
X0109057Y0185821D01*
X0106710Y0185821D01*
X0104542Y0184923D01*
X0102882Y0183263D01*
X0101984Y0181095D01*
X0101984Y0178748D01*
X0102882Y0176579D01*
X0104540Y0174921D01*
X0102882Y0173263D01*
X0101984Y0171095D01*
X0101984Y0168748D01*
X0102882Y0166579D01*
X0104540Y0164921D01*
X0102882Y0163263D01*
X0101984Y0161095D01*
X0101984Y0158748D01*
X0102882Y0156579D01*
X0104540Y0154921D01*
X0102882Y0153263D01*
X0101984Y0151095D01*
X0101984Y0148748D01*
X0102882Y0146579D01*
X0104540Y0144921D01*
X0102882Y0143263D01*
X0101984Y0141095D01*
X0101984Y0138748D01*
X0102882Y0136579D01*
X0104542Y0134919D01*
X0105356Y0134582D01*
X0105106Y0134454D01*
X0104431Y0133964D01*
X0103841Y0133374D01*
X0103351Y0132699D01*
X0102972Y0131956D01*
X0102714Y0131162D01*
X0102584Y0130338D01*
X0102584Y0129921D01*
X0102584Y0129504D01*
X0102714Y0128680D01*
X0102972Y0127887D01*
X0103351Y0127143D01*
X0103841Y0126468D01*
X0104431Y0125879D01*
X0105106Y0125388D01*
X0105849Y0125009D01*
X0106643Y0124752D01*
X0107466Y0124621D01*
X0107884Y0124621D01*
X0108301Y0124621D01*
X0109125Y0124752D01*
X0109918Y0125009D01*
X0110661Y0125388D01*
X0111224Y0125797D01*
X0111224Y0014685D01*
X0111711Y0013509D01*
X0111224Y0015285D02*
X0023649Y0015285D01*
X0023649Y0016884D02*
X0111224Y0016884D01*
X0111224Y0018482D02*
X0023649Y0018482D01*
X0023649Y0020081D02*
X0111224Y0020081D01*
X0111224Y0021679D02*
X0023649Y0021679D01*
X0023649Y0023278D02*
X0111224Y0023278D01*
X0111224Y0024876D02*
X0023649Y0024876D01*
X0023649Y0026475D02*
X0056495Y0026475D01*
X0056727Y0026306D02*
X0057582Y0025870D01*
X0058495Y0025574D01*
X0059444Y0025424D01*
X0064224Y0025424D01*
X0069004Y0025424D01*
X0069952Y0025574D01*
X0070865Y0025870D01*
X0071721Y0026306D01*
X0072498Y0026871D01*
X0073176Y0027550D01*
X0073741Y0028326D01*
X0074177Y0029182D01*
X0074473Y0030095D01*
X0074624Y0031043D01*
X0074624Y0031523D01*
X0064224Y0031523D01*
X0064224Y0025424D01*
X0064224Y0031523D01*
X0064224Y0031523D01*
X0064224Y0031524D01*
X0064224Y0031524D01*
X0064224Y0037624D01*
X0069004Y0037624D01*
X0069952Y0037473D01*
X0070865Y0037177D01*
X0071721Y0036741D01*
X0072498Y0036176D01*
X0073176Y0035497D01*
X0073741Y0034721D01*
X0074177Y0033865D01*
X0074473Y0032952D01*
X0074624Y0032004D01*
X0074624Y0031524D01*
X0064224Y0031524D01*
X0064224Y0037624D01*
X0059444Y0037624D01*
X0058495Y0037473D01*
X0057582Y0037177D01*
X0056727Y0036741D01*
X0055950Y0036176D01*
X0055271Y0035497D01*
X0054706Y0034721D01*
X0054271Y0033865D01*
X0053974Y0032952D01*
X0053824Y0032004D01*
X0053824Y0031524D01*
X0064223Y0031524D01*
X0064223Y0031523D01*
X0053824Y0031523D01*
X0053824Y0031043D01*
X0053974Y0030095D01*
X0054271Y0029182D01*
X0054706Y0028326D01*
X0055271Y0027550D01*
X0055950Y0026871D01*
X0056727Y0026306D01*
X0054890Y0028073D02*
X0023649Y0028073D01*
X0023649Y0029672D02*
X0054111Y0029672D01*
X0053824Y0031270D02*
X0023649Y0031270D01*
X0023649Y0032869D02*
X0053961Y0032869D01*
X0054577Y0034467D02*
X0023649Y0034467D01*
X0023649Y0036066D02*
X0055839Y0036066D01*
X0054754Y0040468D02*
X0053841Y0040171D01*
X0052893Y0040021D01*
X0052413Y0040021D01*
X0052413Y0050421D01*
X0052413Y0050421D01*
X0058513Y0050421D01*
X0058513Y0045641D01*
X0058362Y0044693D01*
X0058066Y0043780D01*
X0057630Y0042924D01*
X0057065Y0042147D01*
X0056386Y0041468D01*
X0055610Y0040904D01*
X0054754Y0040468D01*
X0055526Y0040861D02*
X0071819Y0040861D01*
X0072239Y0040441D02*
X0074702Y0039421D01*
X0077367Y0039421D01*
X0079830Y0040441D01*
X0081715Y0042326D01*
X0082735Y0044788D01*
X0082735Y0056054D01*
X0081715Y0058516D01*
X0079830Y0060401D01*
X0077367Y0061421D01*
X0074702Y0061421D01*
X0072239Y0060401D01*
X0070355Y0058516D01*
X0069335Y0056054D01*
X0069335Y0044788D01*
X0070355Y0042326D01*
X0072239Y0040441D01*
X0070299Y0042460D02*
X0057292Y0042460D01*
X0058156Y0044058D02*
X0069637Y0044058D01*
X0069335Y0045657D02*
X0058513Y0045657D01*
X0058513Y0047255D02*
X0069335Y0047255D01*
X0069335Y0048854D02*
X0058513Y0048854D01*
X0058513Y0050421D02*
X0058513Y0055201D01*
X0058362Y0056150D01*
X0058066Y0057063D01*
X0057630Y0057918D01*
X0057065Y0058695D01*
X0056386Y0059374D01*
X0055610Y0059938D01*
X0054754Y0060374D01*
X0053841Y0060671D01*
X0052893Y0060821D01*
X0052413Y0060821D01*
X0052413Y0050421D01*
X0052413Y0050421D01*
X0058513Y0050421D01*
X0058513Y0050452D02*
X0069335Y0050452D01*
X0069335Y0052051D02*
X0058513Y0052051D01*
X0058513Y0053649D02*
X0069335Y0053649D01*
X0069335Y0055248D02*
X0058505Y0055248D01*
X0058136Y0056846D02*
X0069663Y0056846D01*
X0070325Y0058445D02*
X0057247Y0058445D01*
X0055404Y0060043D02*
X0071882Y0060043D01*
X0080188Y0060043D02*
X0111224Y0060043D01*
X0111224Y0058445D02*
X0081744Y0058445D01*
X0082406Y0056846D02*
X0111224Y0056846D01*
X0111224Y0055248D02*
X0099048Y0055248D01*
X0098895Y0055618D02*
X0098220Y0056293D01*
X0097338Y0056658D01*
X0088509Y0056658D01*
X0087627Y0056293D01*
X0086952Y0055618D01*
X0086587Y0054736D01*
X0086587Y0045907D01*
X0086829Y0045321D01*
X0086587Y0044736D01*
X0086587Y0035907D01*
X0086952Y0035025D01*
X0087627Y0034350D01*
X0088509Y0033984D01*
X0097338Y0033984D01*
X0098220Y0034350D01*
X0098895Y0035025D01*
X0099261Y0035907D01*
X0099261Y0044736D01*
X0099018Y0045321D01*
X0099261Y0045907D01*
X0099261Y0054736D01*
X0098895Y0055618D01*
X0099261Y0053649D02*
X0111224Y0053649D01*
X0111224Y0052051D02*
X0099261Y0052051D01*
X0099261Y0050452D02*
X0111224Y0050452D01*
X0111224Y0048854D02*
X0099261Y0048854D01*
X0099261Y0047255D02*
X0111224Y0047255D01*
X0111224Y0045657D02*
X0099157Y0045657D01*
X0099261Y0044058D02*
X0111224Y0044058D01*
X0111224Y0042460D02*
X0099261Y0042460D01*
X0099261Y0040861D02*
X0111224Y0040861D01*
X0111224Y0039263D02*
X0099261Y0039263D01*
X0099261Y0037664D02*
X0111224Y0037664D01*
X0111224Y0036066D02*
X0099261Y0036066D01*
X0098338Y0034467D02*
X0111224Y0034467D01*
X0111224Y0032869D02*
X0074487Y0032869D01*
X0074624Y0031270D02*
X0111224Y0031270D01*
X0111224Y0029672D02*
X0074336Y0029672D01*
X0073557Y0028073D02*
X0111224Y0028073D01*
X0111224Y0026475D02*
X0071952Y0026475D01*
X0064224Y0026475D02*
X0064224Y0026475D01*
X0064224Y0028073D02*
X0064224Y0028073D01*
X0064224Y0029672D02*
X0064224Y0029672D01*
X0064224Y0031270D02*
X0064224Y0031270D01*
X0064224Y0032869D02*
X0064224Y0032869D01*
X0064224Y0034467D02*
X0064224Y0034467D01*
X0064224Y0036066D02*
X0064224Y0036066D01*
X0072608Y0036066D02*
X0086587Y0036066D01*
X0086587Y0037664D02*
X0023649Y0037664D01*
X0023649Y0039263D02*
X0086587Y0039263D01*
X0086587Y0040861D02*
X0080250Y0040861D01*
X0081770Y0042460D02*
X0086587Y0042460D01*
X0086587Y0044058D02*
X0082432Y0044058D01*
X0082735Y0045657D02*
X0086690Y0045657D01*
X0086587Y0047255D02*
X0082735Y0047255D01*
X0082735Y0048854D02*
X0086587Y0048854D01*
X0086587Y0050452D02*
X0082735Y0050452D01*
X0082735Y0052051D02*
X0086587Y0052051D01*
X0086587Y0053649D02*
X0082735Y0053649D01*
X0082735Y0055248D02*
X0086799Y0055248D01*
X0111224Y0061642D02*
X0023649Y0061642D01*
X0023649Y0063240D02*
X0111224Y0063240D01*
X0111224Y0064839D02*
X0023649Y0064839D01*
X0023649Y0066437D02*
X0111224Y0066437D01*
X0111224Y0068036D02*
X0023649Y0068036D01*
X0023649Y0069634D02*
X0111224Y0069634D01*
X0111224Y0071233D02*
X0023649Y0071233D01*
X0023649Y0072832D02*
X0111224Y0072832D01*
X0111224Y0074430D02*
X0023649Y0074430D01*
X0023649Y0076029D02*
X0111224Y0076029D01*
X0111224Y0077627D02*
X0096223Y0077627D01*
X0095930Y0077414D02*
X0096661Y0077945D01*
X0097300Y0078584D01*
X0097830Y0079314D01*
X0098240Y0080119D01*
X0098519Y0080978D01*
X0098661Y0081870D01*
X0098661Y0081940D01*
X0093305Y0081940D01*
X0093305Y0082702D01*
X0098661Y0082702D01*
X0098661Y0082773D01*
X0098519Y0083665D01*
X0098240Y0084523D01*
X0097830Y0085328D01*
X0097300Y0086059D01*
X0096661Y0086697D01*
X0095930Y0087228D01*
X0095747Y0087321D01*
X0095930Y0087414D01*
X0096661Y0087945D01*
X0097300Y0088584D01*
X0097830Y0089314D01*
X0098240Y0090119D01*
X0098519Y0090978D01*
X0098661Y0091870D01*
X0098661Y0091940D01*
X0093305Y0091940D01*
X0093305Y0092702D01*
X0098661Y0092702D01*
X0098661Y0092773D01*
X0098519Y0093665D01*
X0098240Y0094523D01*
X0097830Y0095328D01*
X0097300Y0096059D01*
X0096661Y0096697D01*
X0095930Y0097228D01*
X0095126Y0097638D01*
X0094267Y0097917D01*
X0093375Y0098058D01*
X0093305Y0098058D01*
X0093305Y0092702D01*
X0092542Y0092702D01*
X0092542Y0091940D01*
X0087187Y0091940D01*
X0087187Y0091870D01*
X0087328Y0090978D01*
X0087607Y0090119D01*
X0088017Y0089314D01*
X0088548Y0088584D01*
X0089186Y0087945D01*
X0089917Y0087414D01*
X0090100Y0087321D01*
X0089917Y0087228D01*
X0089186Y0086697D01*
X0088548Y0086059D01*
X0088017Y0085328D01*
X0087607Y0084523D01*
X0087328Y0083665D01*
X0087187Y0082773D01*
X0087187Y0082702D01*
X0092542Y0082702D01*
X0092542Y0081940D01*
X0087187Y0081940D01*
X0087187Y0081870D01*
X0087328Y0080978D01*
X0087607Y0080119D01*
X0088017Y0079314D01*
X0088548Y0078584D01*
X0089186Y0077945D01*
X0089917Y0077414D01*
X0090721Y0077005D01*
X0091580Y0076725D01*
X0092472Y0076584D01*
X0092542Y0076584D01*
X0092542Y0081940D01*
X0093305Y0081940D01*
X0093305Y0076584D01*
X0093375Y0076584D01*
X0094267Y0076725D01*
X0095126Y0077005D01*
X0095930Y0077414D01*
X0097766Y0079226D02*
X0111224Y0079226D01*
X0111224Y0080824D02*
X0098469Y0080824D01*
X0098404Y0084021D02*
X0111224Y0084021D01*
X0111224Y0082423D02*
X0093305Y0082423D01*
X0093305Y0082702D02*
X0092542Y0082702D01*
X0092542Y0088058D01*
X0092542Y0091940D01*
X0093305Y0091940D01*
X0093305Y0082702D01*
X0092542Y0082423D02*
X0023649Y0082423D01*
X0023649Y0084021D02*
X0087444Y0084021D01*
X0088229Y0085620D02*
X0023649Y0085620D01*
X0023649Y0087218D02*
X0089903Y0087218D01*
X0088378Y0088817D02*
X0023649Y0088817D01*
X0023649Y0090415D02*
X0087511Y0090415D01*
X0087187Y0092702D02*
X0092542Y0092702D01*
X0092542Y0098058D01*
X0092472Y0098058D01*
X0091580Y0097917D01*
X0090721Y0097638D01*
X0089917Y0097228D01*
X0089186Y0096697D01*
X0088548Y0096059D01*
X0088017Y0095328D01*
X0087607Y0094523D01*
X0087328Y0093665D01*
X0087187Y0092773D01*
X0087187Y0092702D01*
X0087320Y0093612D02*
X0023649Y0093612D01*
X0023649Y0092014D02*
X0092542Y0092014D01*
X0093305Y0092014D02*
X0111224Y0092014D01*
X0111224Y0093612D02*
X0098528Y0093612D01*
X0097890Y0095211D02*
X0111224Y0095211D01*
X0111224Y0096809D02*
X0096507Y0096809D01*
X0093305Y0096809D02*
X0092542Y0096809D01*
X0092542Y0095211D02*
X0093305Y0095211D01*
X0093305Y0093612D02*
X0092542Y0093612D01*
X0092542Y0090415D02*
X0093305Y0090415D01*
X0093305Y0088817D02*
X0092542Y0088817D01*
X0092542Y0087218D02*
X0093305Y0087218D01*
X0093305Y0085620D02*
X0092542Y0085620D01*
X0092542Y0084021D02*
X0093305Y0084021D01*
X0093305Y0080824D02*
X0092542Y0080824D01*
X0092542Y0079226D02*
X0093305Y0079226D01*
X0093305Y0077627D02*
X0092542Y0077627D01*
X0089624Y0077627D02*
X0023649Y0077627D01*
X0023649Y0079226D02*
X0088081Y0079226D01*
X0087378Y0080824D02*
X0023649Y0080824D01*
X0023649Y0095211D02*
X0087957Y0095211D01*
X0089340Y0096809D02*
X0023649Y0096809D01*
X0023649Y0098408D02*
X0111224Y0098408D01*
X0111224Y0100006D02*
X0023649Y0100006D01*
X0023649Y0101605D02*
X0111224Y0101605D01*
X0111224Y0103203D02*
X0023649Y0103203D01*
X0023649Y0104802D02*
X0111224Y0104802D01*
X0111224Y0106400D02*
X0023649Y0106400D01*
X0023649Y0107999D02*
X0111224Y0107999D01*
X0111224Y0109597D02*
X0023649Y0109597D01*
X0023649Y0111196D02*
X0111224Y0111196D01*
X0111224Y0112794D02*
X0023649Y0112794D01*
X0023649Y0114393D02*
X0111224Y0114393D01*
X0111224Y0115991D02*
X0023649Y0115991D01*
X0023649Y0117590D02*
X0111224Y0117590D01*
X0111224Y0119188D02*
X0023649Y0119188D01*
X0023649Y0120787D02*
X0111224Y0120787D01*
X0111224Y0122385D02*
X0023649Y0122385D01*
X0023649Y0123984D02*
X0111224Y0123984D01*
X0111224Y0125582D02*
X0110929Y0125582D01*
X0107884Y0125582D02*
X0107884Y0125582D01*
X0107884Y0124621D02*
X0107884Y0129921D01*
X0107884Y0129921D01*
X0107884Y0124621D01*
X0107884Y0127181D02*
X0107884Y0127181D01*
X0107884Y0128779D02*
X0107884Y0128779D01*
X0107883Y0129921D02*
X0102584Y0129921D01*
X0107883Y0129921D01*
X0107883Y0129921D01*
X0104042Y0133575D02*
X0023649Y0133575D01*
X0023649Y0135173D02*
X0104287Y0135173D01*
X0102802Y0136772D02*
X0023649Y0136772D01*
X0023649Y0138370D02*
X0102140Y0138370D01*
X0101984Y0139969D02*
X0023649Y0139969D01*
X0023649Y0141568D02*
X0102179Y0141568D01*
X0102842Y0143166D02*
X0023649Y0143166D01*
X0023649Y0144765D02*
X0104383Y0144765D01*
X0103098Y0146363D02*
X0023649Y0146363D01*
X0023649Y0147962D02*
X0102309Y0147962D01*
X0101984Y0149560D02*
X0023649Y0149560D01*
X0023649Y0151159D02*
X0102010Y0151159D01*
X0102672Y0152757D02*
X0023649Y0152757D01*
X0023649Y0154356D02*
X0103974Y0154356D01*
X0103507Y0155954D02*
X0023649Y0155954D01*
X0023649Y0157553D02*
X0102479Y0157553D01*
X0101984Y0159151D02*
X0023649Y0159151D01*
X0023649Y0160750D02*
X0101984Y0160750D01*
X0102503Y0162348D02*
X0023649Y0162348D01*
X0023649Y0163947D02*
X0103565Y0163947D01*
X0103916Y0165545D02*
X0023649Y0165545D01*
X0023649Y0167144D02*
X0102648Y0167144D01*
X0101986Y0168742D02*
X0023649Y0168742D01*
X0023649Y0170341D02*
X0101984Y0170341D01*
X0102333Y0171939D02*
X0023649Y0171939D01*
X0023649Y0173538D02*
X0103156Y0173538D01*
X0104325Y0175136D02*
X0023649Y0175136D01*
X0023649Y0176735D02*
X0102817Y0176735D01*
X0102155Y0178333D02*
X0023649Y0178333D01*
X0023649Y0179932D02*
X0101984Y0179932D01*
X0102164Y0181530D02*
X0023649Y0181530D01*
X0023649Y0183129D02*
X0102826Y0183129D01*
X0104346Y0184727D02*
X0023649Y0184727D01*
X0023649Y0186326D02*
X0116394Y0186326D01*
X0117992Y0184727D02*
X0111421Y0184727D01*
X0112941Y0183129D02*
X0118724Y0183129D01*
X0118724Y0181530D02*
X0113603Y0181530D01*
X0113784Y0179932D02*
X0118724Y0179932D01*
X0118724Y0178333D02*
X0113612Y0178333D01*
X0112950Y0176735D02*
X0118724Y0176735D01*
X0118724Y0175136D02*
X0111443Y0175136D01*
X0112611Y0173538D02*
X0118724Y0173538D01*
X0118724Y0171939D02*
X0113434Y0171939D01*
X0113784Y0170341D02*
X0118724Y0170341D01*
X0118724Y0168742D02*
X0113781Y0168742D01*
X0113119Y0167144D02*
X0118724Y0167144D01*
X0118724Y0165545D02*
X0111851Y0165545D01*
X0112202Y0163947D02*
X0118724Y0163947D01*
X0118724Y0162348D02*
X0116922Y0162348D01*
X0118521Y0160750D02*
X0119470Y0160750D01*
X0121924Y0162821D02*
X0121924Y0185321D01*
X0101924Y0205321D01*
X0096924Y0205321D01*
X0091986Y0210259D01*
X0091986Y0220384D01*
X0088236Y0221493D02*
X0023649Y0221493D01*
X0023649Y0219895D02*
X0088097Y0219895D01*
X0088641Y0218296D02*
X0023649Y0218296D01*
X0023649Y0216698D02*
X0088786Y0216698D01*
X0088786Y0215099D02*
X0023649Y0215099D01*
X0023649Y0213501D02*
X0088786Y0213501D01*
X0088786Y0211902D02*
X0023649Y0211902D01*
X0023649Y0210303D02*
X0088786Y0210303D01*
X0089166Y0208705D02*
X0023649Y0208705D01*
X0023649Y0207106D02*
X0090613Y0207106D01*
X0092211Y0205508D02*
X0023649Y0205508D01*
X0023649Y0203909D02*
X0093810Y0203909D01*
X0095829Y0202311D02*
X0023649Y0202311D01*
X0023649Y0200712D02*
X0102007Y0200712D01*
X0103605Y0199114D02*
X0023649Y0199114D01*
X0023649Y0197515D02*
X0105204Y0197515D01*
X0106802Y0195917D02*
X0023649Y0195917D01*
X0023649Y0194318D02*
X0108401Y0194318D01*
X0109999Y0192720D02*
X0023649Y0192720D01*
X0023649Y0191121D02*
X0111598Y0191121D01*
X0113196Y0189523D02*
X0023649Y0189523D01*
X0023649Y0187924D02*
X0114795Y0187924D01*
X0119050Y0192720D02*
X0160068Y0192720D01*
X0160170Y0192821D02*
X0157324Y0189975D01*
X0157324Y0185667D01*
X0160370Y0182621D01*
X0164678Y0182621D01*
X0167724Y0185667D01*
X0167724Y0189975D01*
X0164878Y0192821D01*
X0167724Y0195667D01*
X0167724Y0199975D01*
X0164678Y0203021D01*
X0160370Y0203021D01*
X0157324Y0199975D01*
X0157324Y0195667D01*
X0160170Y0192821D01*
X0158673Y0194318D02*
X0117452Y0194318D01*
X0115853Y0195917D02*
X0157324Y0195917D01*
X0157324Y0197515D02*
X0114255Y0197515D01*
X0112656Y0199114D02*
X0157324Y0199114D01*
X0158061Y0200712D02*
X0111058Y0200712D01*
X0109459Y0202311D02*
X0159659Y0202311D01*
X0165388Y0202311D02*
X0170508Y0202311D01*
X0170618Y0202421D02*
X0167924Y0199727D01*
X0167924Y0197921D01*
X0172424Y0197921D01*
X0172424Y0202421D01*
X0170618Y0202421D01*
X0171924Y0202821D02*
X0169424Y0205321D01*
X0136924Y0205321D01*
X0132524Y0209721D01*
X0132524Y0216321D01*
X0132724Y0216521D02*
X0132324Y0216521D01*
X0132324Y0221821D01*
X0132091Y0221821D01*
X0131236Y0221686D01*
X0130412Y0221418D01*
X0129641Y0221025D01*
X0128941Y0220516D01*
X0128328Y0219904D01*
X0127891Y0219302D01*
X0127695Y0219777D01*
X0125979Y0221493D01*
X0124461Y0222121D01*
X0140586Y0222121D01*
X0139068Y0221493D01*
X0137352Y0219777D01*
X0137156Y0219302D01*
X0136719Y0219904D01*
X0136107Y0220516D01*
X0135406Y0221025D01*
X0134635Y0221418D01*
X0133812Y0221686D01*
X0132956Y0221821D01*
X0132724Y0221821D01*
X0132724Y0216521D01*
X0132724Y0216698D02*
X0132324Y0216698D01*
X0132324Y0218296D02*
X0132724Y0218296D01*
X0132724Y0219895D02*
X0132324Y0219895D01*
X0132324Y0221493D02*
X0132724Y0221493D01*
X0134405Y0221493D02*
X0139070Y0221493D01*
X0137470Y0219895D02*
X0136726Y0219895D01*
X0132724Y0215099D02*
X0132324Y0215099D01*
X0132324Y0213501D02*
X0132724Y0213501D01*
X0132724Y0211902D02*
X0132324Y0211902D01*
X0129249Y0211902D02*
X0126731Y0211902D01*
X0123936Y0210303D02*
X0141112Y0210303D01*
X0143936Y0210303D02*
X0151112Y0210303D01*
X0153936Y0210303D02*
X0161112Y0210303D01*
X0163936Y0210303D02*
X0171112Y0210303D01*
X0173936Y0210303D02*
X0181112Y0210303D01*
X0183936Y0210303D02*
X0191112Y0210303D01*
X0193936Y0210303D02*
X0206112Y0210303D01*
X0206310Y0210221D02*
X0208737Y0210221D01*
X0210979Y0211150D01*
X0212524Y0212695D01*
X0214068Y0211150D01*
X0216310Y0210221D01*
X0218737Y0210221D01*
X0220979Y0211150D01*
X0222524Y0212695D01*
X0224068Y0211150D01*
X0226310Y0210221D01*
X0228737Y0210221D01*
X0230979Y0211150D01*
X0232524Y0212695D01*
X0234068Y0211150D01*
X0236310Y0210221D01*
X0238737Y0210221D01*
X0240979Y0211150D01*
X0242524Y0212695D01*
X0244068Y0211150D01*
X0246310Y0210221D01*
X0248737Y0210221D01*
X0250979Y0211150D01*
X0252524Y0212695D01*
X0254068Y0211150D01*
X0256310Y0210221D01*
X0258737Y0210221D01*
X0260979Y0211150D01*
X0262524Y0212695D01*
X0264068Y0211150D01*
X0266310Y0210221D01*
X0268737Y0210221D01*
X0270979Y0211150D01*
X0272524Y0212695D01*
X0274068Y0211150D01*
X0276310Y0210221D01*
X0278737Y0210221D01*
X0280979Y0211150D01*
X0282695Y0212866D01*
X0283624Y0215108D01*
X0283624Y0217535D01*
X0282695Y0219777D01*
X0280979Y0221493D01*
X0278737Y0222421D01*
X0276310Y0222421D01*
X0274068Y0221493D01*
X0272524Y0219948D01*
X0270979Y0221493D01*
X0268737Y0222421D01*
X0266310Y0222421D01*
X0264068Y0221493D01*
X0262524Y0219948D01*
X0260979Y0221493D01*
X0258737Y0222421D01*
X0256310Y0222421D01*
X0254068Y0221493D01*
X0252524Y0219948D01*
X0250979Y0221493D01*
X0248737Y0222421D01*
X0246310Y0222421D01*
X0244068Y0221493D01*
X0242524Y0219948D01*
X0240979Y0221493D01*
X0238737Y0222421D01*
X0236310Y0222421D01*
X0234068Y0221493D01*
X0232524Y0219948D01*
X0230979Y0221493D01*
X0228737Y0222421D01*
X0226310Y0222421D01*
X0224068Y0221493D01*
X0222524Y0219948D01*
X0220979Y0221493D01*
X0218737Y0222421D01*
X0216310Y0222421D01*
X0214068Y0221493D01*
X0212524Y0219948D01*
X0210979Y0221493D01*
X0208737Y0222421D01*
X0206310Y0222421D01*
X0204068Y0221493D01*
X0202352Y0219777D01*
X0201424Y0217535D01*
X0201424Y0215108D01*
X0202352Y0212866D01*
X0204068Y0211150D01*
X0206310Y0210221D01*
X0208936Y0210303D02*
X0216112Y0210303D01*
X0218936Y0210303D02*
X0226112Y0210303D01*
X0228936Y0210303D02*
X0236112Y0210303D01*
X0238936Y0210303D02*
X0246112Y0210303D01*
X0248936Y0210303D02*
X0256112Y0210303D01*
X0258936Y0210303D02*
X0266112Y0210303D01*
X0268936Y0210303D02*
X0276112Y0210303D01*
X0278936Y0210303D02*
X0303649Y0210303D01*
X0303649Y0208705D02*
X0098065Y0208705D01*
X0096467Y0210303D02*
X0101112Y0210303D01*
X0103936Y0210303D02*
X0111112Y0210303D01*
X0113936Y0210303D02*
X0121112Y0210303D01*
X0118316Y0211902D02*
X0116731Y0211902D01*
X0108316Y0211902D02*
X0106731Y0211902D01*
X0104636Y0207134D02*
X0104636Y0207134D01*
X0104664Y0207106D02*
X0303649Y0207106D01*
X0303649Y0205508D02*
X0106262Y0205508D01*
X0107861Y0203909D02*
X0222685Y0203909D01*
X0223168Y0204393D02*
X0221597Y0202821D01*
X0219261Y0202821D01*
X0217938Y0202273D01*
X0214291Y0198627D01*
X0210993Y0198627D01*
X0210111Y0198261D01*
X0209436Y0197586D01*
X0209304Y0197268D01*
X0208713Y0197268D01*
X0208427Y0197959D01*
X0207752Y0198634D01*
X0206870Y0199000D01*
X0201978Y0199000D01*
X0201096Y0198634D01*
X0200420Y0197959D01*
X0200055Y0197077D01*
X0200055Y0190217D01*
X0200167Y0189946D01*
X0200055Y0189676D01*
X0200055Y0182815D01*
X0200420Y0181933D01*
X0200824Y0181530D01*
X0200824Y0176812D01*
X0200432Y0176421D01*
X0180895Y0176421D01*
X0180197Y0176710D01*
X0178650Y0176710D01*
X0177221Y0176118D01*
X0176127Y0175024D01*
X0175535Y0173595D01*
X0175535Y0172048D01*
X0176127Y0170618D01*
X0177221Y0169524D01*
X0178650Y0168932D01*
X0180197Y0168932D01*
X0180895Y0169221D01*
X0202640Y0169221D01*
X0203963Y0169769D01*
X0204706Y0170513D01*
X0205111Y0170108D01*
X0206287Y0169621D01*
X0209624Y0169621D01*
X0209721Y0169524D01*
X0211150Y0168932D01*
X0212697Y0168932D01*
X0214127Y0169524D01*
X0215221Y0170618D01*
X0215813Y0172048D01*
X0215813Y0173595D01*
X0215221Y0175024D01*
X0214127Y0176118D01*
X0212697Y0176710D01*
X0211150Y0176710D01*
X0209721Y0176118D01*
X0209624Y0176021D01*
X0208249Y0176021D01*
X0208024Y0176247D01*
X0208024Y0181530D01*
X0226424Y0181530D01*
X0226424Y0181621D02*
X0226424Y0181221D01*
X0226824Y0181221D01*
X0226824Y0181621D01*
X0232124Y0181621D01*
X0232124Y0181854D01*
X0231988Y0182709D01*
X0231721Y0183532D01*
X0231328Y0184304D01*
X0230819Y0185004D01*
X0230207Y0185616D01*
X0229506Y0186125D01*
X0228735Y0186518D01*
X0227912Y0186786D01*
X0227056Y0186921D01*
X0226824Y0186921D01*
X0226824Y0181621D01*
X0226424Y0181621D01*
X0226424Y0186921D01*
X0226191Y0186921D01*
X0225336Y0186786D01*
X0224512Y0186518D01*
X0223741Y0186125D01*
X0223041Y0185616D01*
X0222428Y0185004D01*
X0221920Y0184304D01*
X0221527Y0183532D01*
X0221259Y0182709D01*
X0221124Y0181854D01*
X0221124Y0181621D01*
X0226424Y0181621D01*
X0226424Y0181221D02*
X0221124Y0181221D01*
X0221124Y0180988D01*
X0221259Y0180133D01*
X0221527Y0179310D01*
X0221920Y0178539D01*
X0222428Y0177838D01*
X0223041Y0177226D01*
X0223741Y0176717D01*
X0224512Y0176324D01*
X0225336Y0176057D01*
X0226191Y0175921D01*
X0226424Y0175921D01*
X0226424Y0181221D01*
X0226824Y0181221D02*
X0226824Y0175921D01*
X0227056Y0175921D01*
X0227912Y0176057D01*
X0228735Y0176324D01*
X0229506Y0176717D01*
X0230207Y0177226D01*
X0230819Y0177838D01*
X0231328Y0178539D01*
X0231721Y0179310D01*
X0231988Y0180133D01*
X0232124Y0180988D01*
X0232124Y0181221D01*
X0226824Y0181221D01*
X0226824Y0181530D02*
X0252024Y0181530D01*
X0252024Y0181621D02*
X0252024Y0181221D01*
X0252424Y0181221D01*
X0252424Y0181621D01*
X0257724Y0181621D01*
X0257724Y0181854D01*
X0257588Y0182709D01*
X0257321Y0183532D01*
X0256928Y0184304D01*
X0256419Y0185004D01*
X0255807Y0185616D01*
X0255106Y0186125D01*
X0254335Y0186518D01*
X0253512Y0186786D01*
X0252656Y0186921D01*
X0252424Y0186921D01*
X0252424Y0181621D01*
X0252024Y0181621D01*
X0252024Y0186921D01*
X0251791Y0186921D01*
X0250936Y0186786D01*
X0250112Y0186518D01*
X0249341Y0186125D01*
X0248641Y0185616D01*
X0248028Y0185004D01*
X0247520Y0184304D01*
X0247127Y0183532D01*
X0246859Y0182709D01*
X0246724Y0181854D01*
X0246724Y0181621D01*
X0252024Y0181621D01*
X0252224Y0181421D02*
X0252224Y0188121D01*
X0269424Y0205321D01*
X0281924Y0205321D01*
X0283124Y0204120D01*
X0283124Y0197821D01*
X0289424Y0197821D01*
X0291983Y0195262D01*
X0291983Y0161739D01*
X0292167Y0161923D02*
X0291798Y0161923D01*
X0291798Y0166491D01*
X0290545Y0166491D01*
X0290311Y0166726D01*
X0290183Y0166779D01*
X0290183Y0168080D01*
X0290221Y0168118D01*
X0290813Y0169548D01*
X0290813Y0171095D01*
X0290221Y0172524D01*
X0289127Y0173618D01*
X0287697Y0174210D01*
X0286150Y0174210D01*
X0284721Y0173618D01*
X0283627Y0172524D01*
X0283076Y0171194D01*
X0275813Y0178458D01*
X0275813Y0178595D01*
X0275221Y0180024D01*
X0274686Y0180559D01*
X0278129Y0180559D01*
X0279011Y0180924D01*
X0279424Y0181337D01*
X0279836Y0180924D01*
X0280718Y0180559D01*
X0286397Y0180559D01*
X0287279Y0180924D01*
X0287954Y0181599D01*
X0288320Y0182482D01*
X0288320Y0188161D01*
X0287954Y0189043D01*
X0287279Y0189718D01*
X0286397Y0190083D01*
X0284349Y0190083D01*
X0281861Y0194053D01*
X0282940Y0194053D01*
X0282940Y0197637D01*
X0283309Y0197637D01*
X0283309Y0198005D01*
X0287877Y0198005D01*
X0287877Y0200027D01*
X0287754Y0200484D01*
X0287518Y0200895D01*
X0287182Y0201230D01*
X0286772Y0201467D01*
X0286314Y0201590D01*
X0283309Y0201590D01*
X0283309Y0198006D01*
X0282940Y0198006D01*
X0282940Y0201590D01*
X0280270Y0201590D01*
X0280035Y0201824D01*
X0279153Y0202190D01*
X0272293Y0202190D01*
X0271411Y0201824D01*
X0270735Y0201149D01*
X0270370Y0200267D01*
X0270370Y0195375D01*
X0270735Y0194493D01*
X0271411Y0193818D01*
X0272293Y0193453D01*
X0274684Y0193453D01*
X0276796Y0190083D01*
X0272450Y0190083D01*
X0271568Y0189718D01*
X0270893Y0189043D01*
X0270677Y0188521D01*
X0268787Y0188521D01*
X0267611Y0188034D01*
X0266711Y0187134D01*
X0253098Y0173521D01*
X0248787Y0173521D01*
X0247611Y0173034D01*
X0246711Y0172134D01*
X0244211Y0169634D01*
X0243724Y0168458D01*
X0243724Y0167091D01*
X0239537Y0167091D01*
X0239483Y0167069D01*
X0239429Y0167091D01*
X0234537Y0167091D01*
X0234483Y0167069D01*
X0234429Y0167091D01*
X0229537Y0167091D01*
X0229483Y0167069D01*
X0229429Y0167091D01*
X0224537Y0167091D01*
X0223655Y0166726D01*
X0222980Y0166051D01*
X0222614Y0165169D01*
X0222614Y0164939D01*
X0205204Y0164939D01*
X0204028Y0164451D01*
X0200598Y0161021D01*
X0198165Y0161021D01*
X0198112Y0161149D01*
X0197437Y0161824D01*
X0196555Y0162190D01*
X0189694Y0162190D01*
X0188812Y0161824D01*
X0188578Y0161590D01*
X0185907Y0161590D01*
X0185907Y0158006D01*
X0185539Y0158006D01*
X0185539Y0161590D01*
X0182533Y0161590D01*
X0182075Y0161467D01*
X0181665Y0161230D01*
X0181330Y0160895D01*
X0181093Y0160484D01*
X0180970Y0160027D01*
X0180970Y0158005D01*
X0185538Y0158005D01*
X0185538Y0157637D01*
X0180970Y0157637D01*
X0180970Y0155616D01*
X0181093Y0155158D01*
X0181330Y0154747D01*
X0181665Y0154412D01*
X0182075Y0154175D01*
X0182533Y0154053D01*
X0185539Y0154053D01*
X0185539Y0157637D01*
X0185907Y0157637D01*
X0185907Y0154053D01*
X0188578Y0154053D01*
X0188812Y0153818D01*
X0189694Y0153453D01*
X0196555Y0153453D01*
X0197437Y0153818D01*
X0198112Y0154493D01*
X0198165Y0154621D01*
X0202560Y0154621D01*
X0203736Y0155108D01*
X0207166Y0158539D01*
X0222614Y0158539D01*
X0222614Y0158308D01*
X0222980Y0157426D01*
X0223655Y0156751D01*
X0224537Y0156386D01*
X0229429Y0156386D01*
X0229483Y0156408D01*
X0229537Y0156386D01*
X0234429Y0156386D01*
X0234483Y0156408D01*
X0234537Y0156386D01*
X0239429Y0156386D01*
X0239483Y0156408D01*
X0239537Y0156386D01*
X0244429Y0156386D01*
X0244483Y0156408D01*
X0244537Y0156386D01*
X0249429Y0156386D01*
X0249483Y0156408D01*
X0249537Y0156386D01*
X0254429Y0156386D01*
X0254483Y0156408D01*
X0254537Y0156386D01*
X0259429Y0156386D01*
X0259483Y0156408D01*
X0259537Y0156386D01*
X0264429Y0156386D01*
X0264483Y0156408D01*
X0264537Y0156386D01*
X0269429Y0156386D01*
X0269483Y0156408D01*
X0269537Y0156386D01*
X0274429Y0156386D01*
X0274483Y0156408D01*
X0274537Y0156386D01*
X0279429Y0156386D01*
X0279483Y0156408D01*
X0279537Y0156386D01*
X0284429Y0156386D01*
X0284483Y0156408D01*
X0284537Y0156386D01*
X0289429Y0156386D01*
X0290311Y0156751D01*
X0290545Y0156986D01*
X0291798Y0156986D01*
X0291798Y0161554D01*
X0292167Y0161554D01*
X0292167Y0161923D01*
X0292167Y0166491D01*
X0294188Y0166491D01*
X0294646Y0166369D01*
X0295056Y0166132D01*
X0295392Y0165796D01*
X0295629Y0165386D01*
X0295751Y0164928D01*
X0295751Y0161923D01*
X0292167Y0161923D01*
X0292167Y0162348D02*
X0291798Y0162348D01*
X0291798Y0160750D02*
X0292167Y0160750D01*
X0292167Y0159151D02*
X0291798Y0159151D01*
X0291798Y0157553D02*
X0292167Y0157553D01*
X0295264Y0157553D02*
X0295488Y0157553D01*
X0295488Y0155954D02*
X0204582Y0155954D01*
X0206181Y0157553D02*
X0222927Y0157553D01*
X0226983Y0161739D02*
X0205841Y0161739D01*
X0201924Y0157821D01*
X0193124Y0157821D01*
X0197974Y0154356D02*
X0295488Y0154356D01*
X0295488Y0152757D02*
X0155429Y0152757D01*
X0155429Y0151159D02*
X0216062Y0151159D01*
X0216074Y0151171D02*
X0215739Y0150836D01*
X0215502Y0150425D01*
X0215380Y0149968D01*
X0215380Y0147946D01*
X0219948Y0147946D01*
X0219948Y0151531D01*
X0216943Y0151531D01*
X0216485Y0151408D01*
X0216074Y0151171D01*
X0217573Y0150321D02*
X0186924Y0150321D01*
X0180524Y0143921D01*
X0180524Y0143121D01*
X0180724Y0143166D02*
X0192224Y0143166D01*
X0192365Y0141568D02*
X0185802Y0141568D01*
X0185888Y0141833D02*
X0186024Y0142688D01*
X0186024Y0142921D01*
X0180724Y0142921D01*
X0180724Y0143321D01*
X0186024Y0143321D01*
X0186024Y0143554D01*
X0185888Y0144409D01*
X0185621Y0145232D01*
X0185228Y0146004D01*
X0184719Y0146704D01*
X0184107Y0147316D01*
X0183406Y0147825D01*
X0182635Y0148218D01*
X0181812Y0148486D01*
X0180956Y0148621D01*
X0180724Y0148621D01*
X0180724Y0143321D01*
X0180324Y0143321D01*
X0180324Y0148621D01*
X0180091Y0148621D01*
X0179236Y0148486D01*
X0178412Y0148218D01*
X0177641Y0147825D01*
X0176941Y0147316D01*
X0176328Y0146704D01*
X0175820Y0146004D01*
X0175427Y0145232D01*
X0175159Y0144409D01*
X0175024Y0143554D01*
X0175024Y0143321D01*
X0180324Y0143321D01*
X0180324Y0142921D01*
X0180724Y0142921D01*
X0180724Y0137621D01*
X0180956Y0137621D01*
X0181812Y0137757D01*
X0182635Y0138024D01*
X0183406Y0138417D01*
X0184107Y0138926D01*
X0184719Y0139538D01*
X0185228Y0140239D01*
X0185621Y0141010D01*
X0185888Y0141833D01*
X0185032Y0139969D02*
X0193027Y0139969D01*
X0194448Y0138370D02*
X0183315Y0138370D01*
X0180724Y0138370D02*
X0180324Y0138370D01*
X0180324Y0137621D02*
X0180324Y0142921D01*
X0175024Y0142921D01*
X0175024Y0142688D01*
X0175159Y0141833D01*
X0175427Y0141010D01*
X0175820Y0140239D01*
X0176328Y0139538D01*
X0176941Y0138926D01*
X0177641Y0138417D01*
X0178412Y0138024D01*
X0179236Y0137757D01*
X0180091Y0137621D01*
X0180324Y0137621D01*
X0180324Y0139969D02*
X0180724Y0139969D01*
X0180724Y0141568D02*
X0180324Y0141568D01*
X0180324Y0143166D02*
X0155484Y0143166D01*
X0155484Y0141568D02*
X0175245Y0141568D01*
X0176015Y0139969D02*
X0151605Y0139969D01*
X0151605Y0139722D02*
X0155484Y0139722D01*
X0155484Y0137011D01*
X0155361Y0136554D01*
X0155125Y0136143D01*
X0154789Y0135808D01*
X0154379Y0135571D01*
X0153921Y0135448D01*
X0151605Y0135448D01*
X0151605Y0139722D01*
X0151605Y0138370D02*
X0150646Y0138370D01*
X0150646Y0136772D02*
X0151605Y0136772D01*
X0151665Y0133575D02*
X0150706Y0133575D01*
X0150706Y0131976D02*
X0151665Y0131976D01*
X0151665Y0130378D02*
X0194924Y0130378D01*
X0194924Y0131976D02*
X0155544Y0131976D01*
X0155487Y0133575D02*
X0194924Y0133575D01*
X0194924Y0135173D02*
X0148375Y0135173D01*
X0151185Y0130171D02*
X0151185Y0127821D01*
X0150706Y0127181D02*
X0151665Y0127181D01*
X0151665Y0128779D02*
X0150706Y0128779D01*
X0151665Y0129692D02*
X0151665Y0125418D01*
X0153981Y0125418D01*
X0154439Y0125541D01*
X0154849Y0125778D01*
X0155184Y0126113D01*
X0155421Y0126524D01*
X0155544Y0126981D01*
X0155544Y0129692D01*
X0151665Y0129692D01*
X0155544Y0128779D02*
X0194924Y0128779D01*
X0194924Y0127181D02*
X0155544Y0127181D01*
X0154510Y0125582D02*
X0194924Y0125582D01*
X0194924Y0123984D02*
X0143883Y0123984D01*
X0143883Y0124818D02*
X0143883Y0119602D01*
X0144424Y0119602D01*
X0144424Y0115439D01*
X0144424Y0115439D01*
X0144424Y0115991D02*
X0144424Y0115991D01*
X0144424Y0117590D02*
X0144424Y0117590D01*
X0144424Y0119188D02*
X0144424Y0119188D01*
X0143883Y0120787D02*
X0176098Y0120787D01*
X0176328Y0121104D02*
X0175820Y0120404D01*
X0175427Y0119632D01*
X0175159Y0118809D01*
X0175024Y0117954D01*
X0175024Y0117721D01*
X0180324Y0117721D01*
X0180324Y0123021D01*
X0180091Y0123021D01*
X0179236Y0122886D01*
X0178412Y0122618D01*
X0177641Y0122225D01*
X0176941Y0121716D01*
X0176328Y0121104D01*
X0177955Y0122385D02*
X0143883Y0122385D01*
X0150706Y0125582D02*
X0151665Y0125582D01*
X0151254Y0119188D02*
X0175282Y0119188D01*
X0175024Y0117321D02*
X0175024Y0117088D01*
X0175159Y0116233D01*
X0175427Y0115410D01*
X0175820Y0114639D01*
X0176328Y0113938D01*
X0176941Y0113326D01*
X0177641Y0112817D01*
X0178412Y0112424D01*
X0179236Y0112157D01*
X0180091Y0112021D01*
X0180324Y0112021D01*
X0180324Y0117321D01*
X0180724Y0117321D01*
X0180724Y0117721D01*
X0186024Y0117721D01*
X0186024Y0117954D01*
X0185888Y0118809D01*
X0185621Y0119632D01*
X0185228Y0120404D01*
X0184719Y0121104D01*
X0184107Y0121716D01*
X0183406Y0122225D01*
X0182635Y0122618D01*
X0181812Y0122886D01*
X0180956Y0123021D01*
X0180724Y0123021D01*
X0180724Y0117721D01*
X0180324Y0117721D01*
X0180324Y0117321D01*
X0175024Y0117321D01*
X0175238Y0115991D02*
X0168649Y0115991D01*
X0169381Y0114393D02*
X0175998Y0114393D01*
X0177686Y0112794D02*
X0169381Y0112794D01*
X0169381Y0111196D02*
X0195124Y0111196D01*
X0194424Y0112794D02*
X0183361Y0112794D01*
X0183406Y0112817D02*
X0182635Y0112424D01*
X0181812Y0112157D01*
X0180956Y0112021D01*
X0180724Y0112021D01*
X0180724Y0117321D01*
X0186024Y0117321D01*
X0186024Y0117088D01*
X0185888Y0116233D01*
X0185621Y0115410D01*
X0185228Y0114639D01*
X0184719Y0113938D01*
X0184107Y0113326D01*
X0183406Y0112817D01*
X0185049Y0114393D02*
X0193017Y0114393D01*
X0192355Y0115991D02*
X0185810Y0115991D01*
X0185765Y0119188D02*
X0192412Y0119188D01*
X0192224Y0117590D02*
X0180724Y0117590D01*
X0180324Y0117590D02*
X0151646Y0117590D01*
X0148164Y0115439D02*
X0148164Y0111591D01*
X0148282Y0105321D02*
X0164585Y0105321D01*
X0164629Y0105277D01*
X0185679Y0105277D01*
X0185723Y0105321D01*
X0185491Y0105090D01*
X0182070Y0109597D02*
X0169381Y0109597D01*
X0169718Y0101605D02*
X0181124Y0101605D01*
X0181342Y0098408D02*
X0151357Y0098408D01*
X0151364Y0100006D02*
X0201517Y0100006D01*
X0203116Y0101605D02*
X0197723Y0101605D01*
X0199331Y0103203D02*
X0204714Y0103203D01*
X0206313Y0104802D02*
X0200930Y0104802D01*
X0201524Y0106400D02*
X0214780Y0106400D01*
X0214780Y0107999D02*
X0201524Y0107999D01*
X0201524Y0109597D02*
X0214780Y0109597D01*
X0214780Y0111196D02*
X0201524Y0111196D01*
X0202223Y0112794D02*
X0214780Y0112794D01*
X0214780Y0114393D02*
X0203630Y0114393D01*
X0204293Y0115991D02*
X0214780Y0115991D01*
X0214780Y0117590D02*
X0204424Y0117590D01*
X0204236Y0119188D02*
X0214780Y0119188D01*
X0214780Y0120787D02*
X0203574Y0120787D01*
X0202086Y0122385D02*
X0214780Y0122385D01*
X0214780Y0123984D02*
X0201724Y0123984D01*
X0201724Y0125582D02*
X0214780Y0125582D01*
X0214780Y0127181D02*
X0201724Y0127181D01*
X0201724Y0128779D02*
X0214780Y0128779D01*
X0214780Y0130378D02*
X0201724Y0130378D01*
X0201724Y0131976D02*
X0214780Y0131976D01*
X0214780Y0133575D02*
X0201724Y0133575D01*
X0201724Y0135173D02*
X0214780Y0135173D01*
X0214780Y0136772D02*
X0201724Y0136772D01*
X0202200Y0138370D02*
X0214780Y0138370D01*
X0225485Y0138370D02*
X0295488Y0138370D01*
X0295488Y0136772D02*
X0275511Y0136772D01*
X0275529Y0136762D02*
X0275118Y0136999D01*
X0274661Y0137121D01*
X0265224Y0137121D01*
X0265224Y0126121D01*
X0276224Y0126121D01*
X0276224Y0135558D01*
X0276101Y0136016D01*
X0275864Y0136426D01*
X0275529Y0136762D01*
X0276224Y0135173D02*
X0295488Y0135173D01*
X0295488Y0133575D02*
X0276224Y0133575D01*
X0276224Y0131976D02*
X0295488Y0131976D01*
X0295488Y0130378D02*
X0276224Y0130378D01*
X0276224Y0128779D02*
X0295488Y0128779D01*
X0295488Y0127181D02*
X0276224Y0127181D01*
X0276224Y0124521D02*
X0276224Y0115084D01*
X0276101Y0114626D01*
X0275864Y0114216D01*
X0275529Y0113881D01*
X0275118Y0113644D01*
X0274661Y0113521D01*
X0265224Y0113521D01*
X0265224Y0124521D01*
X0265224Y0126121D01*
X0263624Y0126121D01*
X0263624Y0137121D01*
X0254187Y0137121D01*
X0253729Y0136999D01*
X0253318Y0136762D01*
X0252983Y0136426D01*
X0252746Y0136016D01*
X0252624Y0135558D01*
X0252624Y0126121D01*
X0263624Y0126121D01*
X0263624Y0124521D01*
X0265224Y0124521D01*
X0276224Y0124521D01*
X0276224Y0123984D02*
X0295488Y0123984D01*
X0295488Y0125582D02*
X0265224Y0125582D01*
X0265224Y0123984D02*
X0263624Y0123984D01*
X0263624Y0124521D02*
X0263624Y0113521D01*
X0254187Y0113521D01*
X0253729Y0113644D01*
X0253318Y0113881D01*
X0252983Y0114216D01*
X0252746Y0114626D01*
X0252624Y0115084D01*
X0252624Y0124521D01*
X0263624Y0124521D01*
X0263624Y0125582D02*
X0225485Y0125582D01*
X0225485Y0123984D02*
X0252624Y0123984D01*
X0252624Y0122385D02*
X0225485Y0122385D01*
X0225485Y0120787D02*
X0252624Y0120787D01*
X0252624Y0119188D02*
X0225485Y0119188D01*
X0225485Y0117590D02*
X0252624Y0117590D01*
X0252624Y0115991D02*
X0225485Y0115991D01*
X0225485Y0114393D02*
X0252881Y0114393D01*
X0261924Y0117821D02*
X0261924Y0101025D01*
X0263649Y0099300D01*
X0289711Y0099300D01*
X0291983Y0097029D01*
X0291983Y0088904D01*
X0291983Y0077544D01*
X0291976Y0077537D01*
X0292160Y0077627D02*
X0303649Y0077627D01*
X0303649Y0076029D02*
X0295745Y0076029D01*
X0295987Y0074430D02*
X0303649Y0074430D01*
X0303649Y0072832D02*
X0296345Y0072832D01*
X0296345Y0071233D02*
X0303649Y0071233D01*
X0303649Y0069634D02*
X0296345Y0069634D01*
X0296345Y0068036D02*
X0303649Y0068036D01*
X0303649Y0066437D02*
X0296234Y0066437D01*
X0295176Y0064839D02*
X0303649Y0064839D01*
X0303649Y0063240D02*
X0295176Y0063240D01*
X0295176Y0061642D02*
X0303649Y0061642D01*
X0303649Y0060043D02*
X0295176Y0060043D01*
X0295176Y0058445D02*
X0303649Y0058445D01*
X0303649Y0056846D02*
X0295176Y0056846D01*
X0295176Y0055248D02*
X0303649Y0055248D01*
X0303649Y0053649D02*
X0295176Y0053649D01*
X0295176Y0052051D02*
X0303649Y0052051D01*
X0303649Y0050452D02*
X0295176Y0050452D01*
X0295176Y0048854D02*
X0303649Y0048854D01*
X0303649Y0047255D02*
X0295176Y0047255D01*
X0295176Y0045657D02*
X0303649Y0045657D01*
X0303649Y0044058D02*
X0295176Y0044058D01*
X0295176Y0042460D02*
X0303649Y0042460D01*
X0303649Y0040861D02*
X0294489Y0040861D01*
X0292891Y0039263D02*
X0303612Y0039263D01*
X0302013Y0037664D02*
X0291292Y0037664D01*
X0289424Y0040321D02*
X0274424Y0040321D01*
X0280805Y0036066D02*
X0300415Y0036066D01*
X0298816Y0034467D02*
X0223811Y0034467D01*
X0223811Y0032869D02*
X0297218Y0032869D01*
X0295619Y0031270D02*
X0281201Y0031270D01*
X0282738Y0029672D02*
X0294021Y0029672D01*
X0292422Y0028073D02*
X0283401Y0028073D01*
X0283624Y0026475D02*
X0290824Y0026475D01*
X0289225Y0024876D02*
X0283528Y0024876D01*
X0282866Y0023278D02*
X0288649Y0023278D01*
X0288649Y0021679D02*
X0281508Y0021679D01*
X0288649Y0020081D02*
X0223811Y0020081D01*
X0223811Y0018482D02*
X0288649Y0018482D01*
X0288649Y0016884D02*
X0223811Y0016884D01*
X0223811Y0015285D02*
X0288649Y0015285D01*
X0288649Y0013687D02*
X0223811Y0013687D01*
X0223216Y0012088D02*
X0288649Y0012088D01*
X0288649Y0010490D02*
X0221617Y0010490D01*
X0220019Y0008891D02*
X0288649Y0008891D01*
X0288649Y0007293D02*
X0217974Y0007293D01*
X0216924Y0010321D02*
X0119424Y0010321D01*
X0114424Y0015321D01*
X0114424Y0152821D01*
X0118236Y0156509D02*
X0114824Y0159921D01*
X0107884Y0159921D01*
X0118236Y0156509D02*
X0118236Y0016509D01*
X0121924Y0012821D01*
X0214424Y0012821D01*
X0216924Y0015321D01*
X0216924Y0040321D01*
X0219424Y0042821D01*
X0259424Y0042821D01*
X0262549Y0045446D01*
X0262549Y0072946D01*
X0271983Y0082880D01*
X0271983Y0088904D01*
X0276924Y0088845D02*
X0276924Y0080321D01*
X0265611Y0067759D01*
X0265611Y0042759D01*
X0261924Y0037821D01*
X0222361Y0037821D01*
X0220611Y0036071D01*
X0220611Y0014009D01*
X0216924Y0010321D01*
X0211924Y0015321D02*
X0170624Y0015321D01*
X0167524Y0018421D01*
X0167524Y0026321D01*
X0171508Y0021679D02*
X0173539Y0021679D01*
X0170724Y0020081D02*
X0211224Y0020081D01*
X0214424Y0017821D02*
X0214424Y0035321D01*
X0204424Y0047821D01*
X0204424Y0056620D01*
X0208792Y0056846D02*
X0213944Y0056846D01*
X0213944Y0056495D02*
X0209671Y0056495D01*
X0209671Y0054179D01*
X0209794Y0053721D01*
X0210030Y0053310D01*
X0210366Y0052975D01*
X0210776Y0052738D01*
X0211234Y0052616D01*
X0213944Y0052616D01*
X0213944Y0056495D01*
X0214903Y0056495D01*
X0214903Y0052616D01*
X0217613Y0052616D01*
X0218071Y0052738D01*
X0218482Y0052975D01*
X0218817Y0053310D01*
X0219054Y0053721D01*
X0219176Y0054179D01*
X0219176Y0056495D01*
X0214903Y0056495D01*
X0214903Y0057454D01*
X0219176Y0057454D01*
X0219176Y0059514D01*
X0219411Y0059749D01*
X0219776Y0060631D01*
X0219776Y0063929D01*
X0221468Y0065621D01*
X0221597Y0065621D01*
X0223168Y0064050D01*
X0225410Y0063121D01*
X0227837Y0063121D01*
X0230079Y0064050D01*
X0231795Y0065766D01*
X0231818Y0065821D01*
X0247029Y0065821D01*
X0247052Y0065766D01*
X0248768Y0064050D01*
X0251010Y0063121D01*
X0253437Y0063121D01*
X0255679Y0064050D01*
X0257395Y0065766D01*
X0258324Y0068008D01*
X0258324Y0070435D01*
X0257395Y0072677D01*
X0255679Y0074393D01*
X0253437Y0075321D01*
X0251010Y0075321D01*
X0248768Y0074393D01*
X0247052Y0072677D01*
X0247029Y0072621D01*
X0231818Y0072621D01*
X0231795Y0072677D01*
X0230583Y0073889D01*
X0230583Y0083551D01*
X0233035Y0083551D01*
X0233035Y0082048D01*
X0233627Y0080618D01*
X0234721Y0079524D01*
X0236150Y0078932D01*
X0237697Y0078932D01*
X0238097Y0079098D01*
X0238097Y0078360D01*
X0238689Y0076931D01*
X0239783Y0075837D01*
X0241213Y0075245D01*
X0242760Y0075245D01*
X0244189Y0075837D01*
X0245283Y0076931D01*
X0245875Y0078360D01*
X0245875Y0079907D01*
X0245283Y0081337D01*
X0245186Y0081434D01*
X0245186Y0083551D01*
X0249429Y0083551D01*
X0249483Y0083574D01*
X0249537Y0083551D01*
X0254429Y0083551D01*
X0254483Y0083574D01*
X0254537Y0083551D01*
X0259429Y0083551D01*
X0260311Y0083916D01*
X0260545Y0084151D01*
X0261798Y0084151D01*
X0261798Y0088720D01*
X0262167Y0088720D01*
X0262167Y0084151D01*
X0263420Y0084151D01*
X0263655Y0083916D01*
X0264537Y0083551D01*
X0268207Y0083551D01*
X0260257Y0075180D01*
X0259836Y0074759D01*
X0259819Y0074719D01*
X0259790Y0074688D01*
X0259576Y0074132D01*
X0259349Y0073583D01*
X0259349Y0073540D01*
X0259333Y0073500D01*
X0259349Y0072905D01*
X0259349Y0046937D01*
X0258258Y0046021D01*
X0253288Y0046021D01*
X0253512Y0046057D01*
X0254335Y0046324D01*
X0255106Y0046717D01*
X0255807Y0047226D01*
X0256419Y0047838D01*
X0256928Y0048539D01*
X0257321Y0049310D01*
X0257588Y0050133D01*
X0257724Y0050988D01*
X0257724Y0051221D01*
X0252424Y0051221D01*
X0252424Y0051621D01*
X0257724Y0051621D01*
X0257724Y0051854D01*
X0257588Y0052709D01*
X0257321Y0053532D01*
X0256928Y0054304D01*
X0256419Y0055004D01*
X0255807Y0055616D01*
X0255106Y0056125D01*
X0254335Y0056518D01*
X0253512Y0056786D01*
X0252656Y0056921D01*
X0252424Y0056921D01*
X0252424Y0051621D01*
X0252024Y0051621D01*
X0252024Y0056921D01*
X0251791Y0056921D01*
X0250936Y0056786D01*
X0250112Y0056518D01*
X0249341Y0056125D01*
X0248641Y0055616D01*
X0248028Y0055004D01*
X0247520Y0054304D01*
X0247127Y0053532D01*
X0246859Y0052709D01*
X0246724Y0051854D01*
X0246724Y0051621D01*
X0252024Y0051621D01*
X0252024Y0051221D01*
X0246724Y0051221D01*
X0246724Y0050988D01*
X0246859Y0050133D01*
X0247127Y0049310D01*
X0247520Y0048539D01*
X0248028Y0047838D01*
X0248641Y0047226D01*
X0249341Y0046717D01*
X0250112Y0046324D01*
X0250936Y0046057D01*
X0251160Y0046021D01*
X0227688Y0046021D01*
X0227912Y0046057D01*
X0228735Y0046324D01*
X0229506Y0046717D01*
X0230207Y0047226D01*
X0230819Y0047838D01*
X0231328Y0048539D01*
X0231721Y0049310D01*
X0231988Y0050133D01*
X0232124Y0050988D01*
X0232124Y0051221D01*
X0226824Y0051221D01*
X0226824Y0051621D01*
X0232124Y0051621D01*
X0232124Y0051854D01*
X0231988Y0052709D01*
X0231721Y0053532D01*
X0231328Y0054304D01*
X0230819Y0055004D01*
X0230207Y0055616D01*
X0229506Y0056125D01*
X0228735Y0056518D01*
X0227912Y0056786D01*
X0227056Y0056921D01*
X0226824Y0056921D01*
X0226824Y0051621D01*
X0226424Y0051621D01*
X0226424Y0056921D01*
X0226191Y0056921D01*
X0225336Y0056786D01*
X0224512Y0056518D01*
X0223741Y0056125D01*
X0223041Y0055616D01*
X0222428Y0055004D01*
X0221920Y0054304D01*
X0221527Y0053532D01*
X0221259Y0052709D01*
X0221124Y0051854D01*
X0221124Y0051621D01*
X0226424Y0051621D01*
X0226424Y0051221D01*
X0221124Y0051221D01*
X0221124Y0050988D01*
X0221259Y0050133D01*
X0221527Y0049310D01*
X0221920Y0048539D01*
X0222428Y0047838D01*
X0223041Y0047226D01*
X0223741Y0046717D01*
X0224512Y0046324D01*
X0225336Y0046057D01*
X0225560Y0046021D01*
X0218787Y0046021D01*
X0217611Y0045534D01*
X0216711Y0044634D01*
X0215111Y0043034D01*
X0215111Y0043034D01*
X0214211Y0042134D01*
X0213822Y0041196D01*
X0207624Y0048944D01*
X0207624Y0051580D01*
X0207752Y0051633D01*
X0208427Y0052308D01*
X0208792Y0053190D01*
X0208792Y0060051D01*
X0208680Y0060321D01*
X0208722Y0060422D01*
X0209158Y0060422D01*
X0209436Y0059749D01*
X0209671Y0059514D01*
X0209671Y0057454D01*
X0213944Y0057454D01*
X0213944Y0056495D01*
X0214424Y0056975D02*
X0214424Y0047821D01*
X0217907Y0045657D02*
X0210253Y0045657D01*
X0208974Y0047255D02*
X0223011Y0047255D01*
X0221759Y0048854D02*
X0207695Y0048854D01*
X0207624Y0050452D02*
X0221209Y0050452D01*
X0221155Y0052051D02*
X0208169Y0052051D01*
X0208792Y0053649D02*
X0209835Y0053649D01*
X0209671Y0055248D02*
X0208792Y0055248D01*
X0208792Y0058445D02*
X0209671Y0058445D01*
X0209314Y0060043D02*
X0208792Y0060043D01*
X0214903Y0056846D02*
X0225719Y0056846D01*
X0226424Y0056846D02*
X0226824Y0056846D01*
X0227529Y0056846D02*
X0251319Y0056846D01*
X0252024Y0056846D02*
X0252424Y0056846D01*
X0253129Y0056846D02*
X0259349Y0056846D01*
X0259424Y0055321D02*
X0259424Y0075321D01*
X0261983Y0077880D01*
X0261983Y0088904D01*
X0261983Y0097634D01*
X0263649Y0099300D01*
X0262167Y0093612D02*
X0261798Y0093612D01*
X0261798Y0092014D02*
X0262167Y0092014D01*
X0262167Y0090415D02*
X0261798Y0090415D01*
X0261798Y0087218D02*
X0262167Y0087218D01*
X0262167Y0085620D02*
X0261798Y0085620D01*
X0260415Y0084021D02*
X0263550Y0084021D01*
X0265617Y0080824D02*
X0245495Y0080824D01*
X0245186Y0082423D02*
X0267135Y0082423D01*
X0264099Y0079226D02*
X0245875Y0079226D01*
X0245571Y0077627D02*
X0262581Y0077627D01*
X0261063Y0076029D02*
X0244381Y0076029D01*
X0241986Y0079134D02*
X0241986Y0088900D01*
X0241983Y0088904D01*
X0246924Y0088963D02*
X0246983Y0088904D01*
X0246924Y0088963D02*
X0246924Y0097821D01*
X0247952Y0101605D02*
X0295488Y0101605D01*
X0295488Y0103203D02*
X0225485Y0103203D01*
X0225485Y0101605D02*
X0245896Y0101605D01*
X0243619Y0100006D02*
X0225357Y0100006D01*
X0223596Y0098408D02*
X0243035Y0098408D01*
X0243133Y0096809D02*
X0208503Y0096809D01*
X0210101Y0098408D02*
X0216668Y0098408D01*
X0223376Y0093612D02*
X0205306Y0093612D01*
X0206904Y0095211D02*
X0243724Y0095211D01*
X0250124Y0095211D02*
X0295488Y0095211D01*
X0295488Y0096809D02*
X0250714Y0096809D01*
X0250813Y0098408D02*
X0295488Y0098408D01*
X0295488Y0100006D02*
X0250228Y0100006D01*
X0236983Y0088904D02*
X0236983Y0082880D01*
X0236924Y0082821D01*
X0235442Y0079226D02*
X0230583Y0079226D01*
X0230583Y0080824D02*
X0233541Y0080824D01*
X0233035Y0082423D02*
X0230583Y0082423D01*
X0223383Y0082423D02*
X0166305Y0082423D01*
X0166305Y0082702D02*
X0171661Y0082702D01*
X0171661Y0082773D01*
X0171519Y0083665D01*
X0171240Y0084523D01*
X0170830Y0085328D01*
X0170300Y0086059D01*
X0169661Y0086697D01*
X0168930Y0087228D01*
X0168747Y0087321D01*
X0168930Y0087414D01*
X0169661Y0087945D01*
X0170300Y0088584D01*
X0170830Y0089314D01*
X0171240Y0090119D01*
X0171519Y0090978D01*
X0171661Y0091870D01*
X0171661Y0091940D01*
X0166305Y0091940D01*
X0166305Y0092702D01*
X0171661Y0092702D01*
X0171661Y0092773D01*
X0171519Y0093665D01*
X0171240Y0094523D01*
X0170830Y0095328D01*
X0170300Y0096059D01*
X0169661Y0096697D01*
X0168930Y0097228D01*
X0168126Y0097638D01*
X0167267Y0097917D01*
X0166375Y0098058D01*
X0166305Y0098058D01*
X0166305Y0092702D01*
X0165542Y0092702D01*
X0165542Y0091940D01*
X0160187Y0091940D01*
X0160187Y0091870D01*
X0160328Y0090978D01*
X0160607Y0090119D01*
X0161017Y0089314D01*
X0161548Y0088584D01*
X0162186Y0087945D01*
X0162917Y0087414D01*
X0163100Y0087321D01*
X0162917Y0087228D01*
X0162186Y0086697D01*
X0161548Y0086059D01*
X0161017Y0085328D01*
X0160607Y0084523D01*
X0160328Y0083665D01*
X0160187Y0082773D01*
X0160187Y0082702D01*
X0165542Y0082702D01*
X0165542Y0081940D01*
X0160187Y0081940D01*
X0160187Y0081870D01*
X0160328Y0080978D01*
X0160607Y0080119D01*
X0161017Y0079314D01*
X0161548Y0078584D01*
X0162186Y0077945D01*
X0162917Y0077414D01*
X0163721Y0077005D01*
X0164580Y0076725D01*
X0165472Y0076584D01*
X0165542Y0076584D01*
X0165542Y0081940D01*
X0166305Y0081940D01*
X0166305Y0082702D01*
X0165542Y0082702D01*
X0165542Y0088058D01*
X0165542Y0091940D01*
X0166305Y0091940D01*
X0166305Y0082702D01*
X0166305Y0081940D02*
X0171661Y0081940D01*
X0171661Y0081870D01*
X0171519Y0080978D01*
X0171240Y0080119D01*
X0170830Y0079314D01*
X0170300Y0078584D01*
X0169661Y0077945D01*
X0168930Y0077414D01*
X0168126Y0077005D01*
X0167267Y0076725D01*
X0166375Y0076584D01*
X0166305Y0076584D01*
X0166305Y0081940D01*
X0165542Y0082423D02*
X0150724Y0082423D01*
X0150724Y0084021D02*
X0160444Y0084021D01*
X0161229Y0085620D02*
X0150724Y0085620D01*
X0150724Y0087218D02*
X0162903Y0087218D01*
X0161378Y0088817D02*
X0150724Y0088817D01*
X0150724Y0090415D02*
X0160511Y0090415D01*
X0160187Y0092702D02*
X0165542Y0092702D01*
X0165542Y0098058D01*
X0165472Y0098058D01*
X0164580Y0097917D01*
X0163721Y0097638D01*
X0162917Y0097228D01*
X0162186Y0096697D01*
X0161548Y0096059D01*
X0161017Y0095328D01*
X0160607Y0094523D01*
X0160328Y0093665D01*
X0160187Y0092773D01*
X0160187Y0092702D01*
X0160320Y0093612D02*
X0150411Y0093612D01*
X0150724Y0092014D02*
X0165542Y0092014D01*
X0166305Y0092014D02*
X0181564Y0092014D01*
X0180970Y0093612D02*
X0171528Y0093612D01*
X0170890Y0095211D02*
X0185538Y0095211D01*
X0185539Y0096809D02*
X0185907Y0096809D01*
X0185907Y0098408D02*
X0185539Y0098408D01*
X0180970Y0096809D02*
X0169507Y0096809D01*
X0166305Y0096809D02*
X0165542Y0096809D01*
X0165542Y0095211D02*
X0166305Y0095211D01*
X0166305Y0093612D02*
X0165542Y0093612D01*
X0165542Y0090415D02*
X0166305Y0090415D01*
X0166305Y0088817D02*
X0165542Y0088817D01*
X0165542Y0087218D02*
X0166305Y0087218D01*
X0166305Y0085620D02*
X0165542Y0085620D01*
X0165542Y0084021D02*
X0166305Y0084021D01*
X0166305Y0080824D02*
X0165542Y0080824D01*
X0165542Y0079226D02*
X0166305Y0079226D01*
X0166305Y0077627D02*
X0165542Y0077627D01*
X0162624Y0077627D02*
X0150724Y0077627D01*
X0150724Y0076029D02*
X0223383Y0076029D01*
X0223383Y0077627D02*
X0169223Y0077627D01*
X0170766Y0079226D02*
X0223383Y0079226D01*
X0223383Y0080824D02*
X0171469Y0080824D01*
X0171404Y0084021D02*
X0223383Y0084021D01*
X0222614Y0085620D02*
X0170619Y0085620D01*
X0168944Y0087218D02*
X0222614Y0087218D01*
X0222614Y0088817D02*
X0170469Y0088817D01*
X0171337Y0090415D02*
X0222614Y0090415D01*
X0222614Y0092014D02*
X0203346Y0092014D01*
X0196924Y0105321D02*
X0193124Y0105321D01*
X0196924Y0105321D02*
X0198324Y0106721D01*
X0198324Y0117521D01*
X0193074Y0120787D02*
X0184949Y0120787D01*
X0183092Y0122385D02*
X0194561Y0122385D01*
X0180724Y0122385D02*
X0180324Y0122385D01*
X0180324Y0120787D02*
X0180724Y0120787D01*
X0180724Y0119188D02*
X0180324Y0119188D01*
X0180324Y0115991D02*
X0180724Y0115991D01*
X0180724Y0114393D02*
X0180324Y0114393D01*
X0180324Y0112794D02*
X0180724Y0112794D01*
X0189376Y0109597D02*
X0189471Y0109597D01*
X0185907Y0093612D02*
X0185539Y0093612D01*
X0185539Y0092014D02*
X0185907Y0092014D01*
X0162340Y0096809D02*
X0150437Y0096809D01*
X0149060Y0095211D02*
X0160957Y0095211D01*
X0159539Y0101605D02*
X0151364Y0101605D01*
X0148164Y0099061D02*
X0148164Y0105203D01*
X0148282Y0105321D01*
X0148164Y0099061D02*
X0144424Y0095321D01*
X0147524Y0092221D01*
X0147524Y0026321D01*
X0147524Y0017221D01*
X0149424Y0015321D01*
X0164424Y0015321D01*
X0167524Y0018421D01*
X0181508Y0021679D02*
X0184556Y0021679D01*
X0182937Y0023278D02*
X0182866Y0023278D01*
X0187324Y0023278D02*
X0187724Y0023278D01*
X0187724Y0024876D02*
X0187324Y0024876D01*
X0187724Y0026121D02*
X0187724Y0020821D01*
X0187956Y0020821D01*
X0188812Y0020957D01*
X0189635Y0021224D01*
X0190406Y0021617D01*
X0191107Y0022126D01*
X0191719Y0022738D01*
X0192228Y0023439D01*
X0192524Y0024019D01*
X0192820Y0023439D01*
X0193328Y0022738D01*
X0193941Y0022126D01*
X0194641Y0021617D01*
X0195412Y0021224D01*
X0196236Y0020957D01*
X0197091Y0020821D01*
X0197324Y0020821D01*
X0197324Y0026121D01*
X0192024Y0026121D01*
X0187724Y0026121D01*
X0187724Y0026475D02*
X0197324Y0026475D01*
X0197324Y0028073D02*
X0197724Y0028073D01*
X0197724Y0029672D02*
X0197324Y0029672D01*
X0197324Y0031270D02*
X0197724Y0031270D01*
X0199925Y0031270D02*
X0203846Y0031270D01*
X0202309Y0029672D02*
X0201888Y0029672D01*
X0195122Y0031270D02*
X0189925Y0031270D01*
X0187724Y0031270D02*
X0187324Y0031270D01*
X0187324Y0029672D02*
X0187724Y0029672D01*
X0187724Y0028073D02*
X0187324Y0028073D01*
X0185122Y0031270D02*
X0181201Y0031270D01*
X0182738Y0029672D02*
X0183160Y0029672D01*
X0191888Y0029672D02*
X0193160Y0029672D01*
X0197324Y0024876D02*
X0197724Y0024876D01*
X0197724Y0023278D02*
X0197324Y0023278D01*
X0197324Y0021679D02*
X0197724Y0021679D01*
X0200492Y0021679D02*
X0203539Y0021679D01*
X0202182Y0023278D02*
X0202111Y0023278D01*
X0194556Y0021679D02*
X0190492Y0021679D01*
X0192111Y0023278D02*
X0192936Y0023278D01*
X0187724Y0021679D02*
X0187324Y0021679D01*
X0173846Y0031270D02*
X0171201Y0031270D01*
X0170338Y0033984D02*
X0171220Y0034350D01*
X0171895Y0035025D01*
X0172261Y0035907D01*
X0172261Y0044736D01*
X0172018Y0045321D01*
X0172261Y0045907D01*
X0172261Y0054736D01*
X0171895Y0055618D01*
X0171220Y0056293D01*
X0170338Y0056658D01*
X0161509Y0056658D01*
X0160627Y0056293D01*
X0159952Y0055618D01*
X0159587Y0054736D01*
X0159587Y0045907D01*
X0159829Y0045321D01*
X0159587Y0044736D01*
X0159587Y0035907D01*
X0159952Y0035025D01*
X0160627Y0034350D01*
X0161509Y0033984D01*
X0170338Y0033984D01*
X0171338Y0034467D02*
X0211009Y0034467D01*
X0211224Y0032869D02*
X0150724Y0032869D01*
X0150724Y0034467D02*
X0160509Y0034467D01*
X0159587Y0036066D02*
X0150724Y0036066D01*
X0150724Y0037664D02*
X0159587Y0037664D01*
X0159587Y0039263D02*
X0150724Y0039263D01*
X0150724Y0040861D02*
X0159587Y0040861D01*
X0159587Y0042460D02*
X0150724Y0042460D01*
X0150724Y0044058D02*
X0159587Y0044058D01*
X0159690Y0045657D02*
X0150724Y0045657D01*
X0150724Y0047255D02*
X0159587Y0047255D01*
X0159587Y0048854D02*
X0150724Y0048854D01*
X0150724Y0050452D02*
X0159587Y0050452D01*
X0159587Y0052051D02*
X0150724Y0052051D01*
X0150724Y0053649D02*
X0159587Y0053649D01*
X0159799Y0055248D02*
X0150724Y0055248D01*
X0150724Y0056846D02*
X0200055Y0056846D01*
X0200055Y0055248D02*
X0172048Y0055248D01*
X0172261Y0053649D02*
X0200055Y0053649D01*
X0200678Y0052051D02*
X0172261Y0052051D01*
X0172261Y0050452D02*
X0201224Y0050452D01*
X0201224Y0048854D02*
X0172261Y0048854D01*
X0172261Y0047255D02*
X0201224Y0047255D01*
X0202057Y0045657D02*
X0172157Y0045657D01*
X0172261Y0044058D02*
X0203336Y0044058D01*
X0204615Y0042460D02*
X0172261Y0042460D01*
X0172261Y0040861D02*
X0205894Y0040861D01*
X0207172Y0039263D02*
X0172261Y0039263D01*
X0172261Y0037664D02*
X0208451Y0037664D01*
X0209730Y0036066D02*
X0172261Y0036066D01*
X0163846Y0031270D02*
X0161201Y0031270D01*
X0153846Y0031270D02*
X0151201Y0031270D01*
X0118373Y0007293D02*
X0030656Y0007293D01*
X0029058Y0008891D02*
X0116328Y0008891D01*
X0114730Y0010490D02*
X0027459Y0010490D01*
X0025861Y0012088D02*
X0113131Y0012088D01*
X0087509Y0034467D02*
X0073870Y0034467D01*
X0052413Y0040021D02*
X0052413Y0050421D01*
X0052413Y0050421D01*
X0052412Y0050421D02*
X0046313Y0050421D01*
X0046313Y0045641D01*
X0046463Y0044693D01*
X0046760Y0043780D01*
X0047195Y0042924D01*
X0047760Y0042147D01*
X0048439Y0041468D01*
X0049215Y0040904D01*
X0050071Y0040468D01*
X0050984Y0040171D01*
X0051933Y0040021D01*
X0052413Y0040021D01*
X0052413Y0040861D02*
X0052413Y0040861D01*
X0052413Y0042460D02*
X0052413Y0042460D01*
X0052413Y0044058D02*
X0052413Y0044058D01*
X0052413Y0045657D02*
X0052413Y0045657D01*
X0052413Y0047255D02*
X0052413Y0047255D01*
X0052413Y0048854D02*
X0052413Y0048854D01*
X0052412Y0050421D02*
X0052412Y0050421D01*
X0046313Y0050421D01*
X0046313Y0055201D01*
X0046463Y0056150D01*
X0046760Y0057063D01*
X0047195Y0057918D01*
X0047760Y0058695D01*
X0048439Y0059374D01*
X0049215Y0059938D01*
X0050071Y0060374D01*
X0050984Y0060671D01*
X0051933Y0060821D01*
X0052413Y0060821D01*
X0052413Y0050421D01*
X0052413Y0050452D02*
X0052413Y0050452D01*
X0052413Y0052051D02*
X0052413Y0052051D01*
X0052413Y0053649D02*
X0052413Y0053649D01*
X0052413Y0055248D02*
X0052413Y0055248D01*
X0052413Y0056846D02*
X0052413Y0056846D01*
X0052413Y0058445D02*
X0052413Y0058445D01*
X0052413Y0060043D02*
X0052413Y0060043D01*
X0049422Y0060043D02*
X0023649Y0060043D01*
X0023649Y0058445D02*
X0047578Y0058445D01*
X0046689Y0056846D02*
X0023649Y0056846D01*
X0023649Y0055248D02*
X0046320Y0055248D01*
X0046313Y0053649D02*
X0023649Y0053649D01*
X0023649Y0052051D02*
X0046313Y0052051D01*
X0046313Y0050452D02*
X0023649Y0050452D01*
X0023649Y0048854D02*
X0046313Y0048854D01*
X0046313Y0047255D02*
X0023649Y0047255D01*
X0023649Y0045657D02*
X0046313Y0045657D01*
X0046669Y0044058D02*
X0023649Y0044058D01*
X0023649Y0042460D02*
X0047533Y0042460D01*
X0049299Y0040861D02*
X0023649Y0040861D01*
X0032255Y0005694D02*
X0288649Y0005694D01*
X0273539Y0021679D02*
X0271508Y0021679D01*
X0263539Y0021679D02*
X0261508Y0021679D01*
X0253539Y0021679D02*
X0251508Y0021679D01*
X0243539Y0021679D02*
X0241508Y0021679D01*
X0233539Y0021679D02*
X0231508Y0021679D01*
X0231201Y0031270D02*
X0233846Y0031270D01*
X0241201Y0031270D02*
X0243846Y0031270D01*
X0251201Y0031270D02*
X0253846Y0031270D01*
X0261201Y0031270D02*
X0263846Y0031270D01*
X0271201Y0031270D02*
X0273846Y0031270D01*
X0268042Y0036066D02*
X0264660Y0036066D01*
X0265800Y0037664D02*
X0266679Y0037664D01*
X0259349Y0047255D02*
X0255836Y0047255D01*
X0257088Y0048854D02*
X0259349Y0048854D01*
X0259349Y0050452D02*
X0257639Y0050452D01*
X0257692Y0052051D02*
X0259349Y0052051D01*
X0259349Y0053649D02*
X0257261Y0053649D01*
X0256175Y0055248D02*
X0259349Y0055248D01*
X0259424Y0055321D02*
X0255524Y0051421D01*
X0251924Y0051421D01*
X0252024Y0052051D02*
X0252424Y0052051D01*
X0252424Y0053649D02*
X0252024Y0053649D01*
X0252024Y0055248D02*
X0252424Y0055248D01*
X0248272Y0055248D02*
X0230575Y0055248D01*
X0231661Y0053649D02*
X0247186Y0053649D01*
X0246755Y0052051D02*
X0232092Y0052051D01*
X0232039Y0050452D02*
X0246809Y0050452D01*
X0247359Y0048854D02*
X0231488Y0048854D01*
X0230236Y0047255D02*
X0248611Y0047255D01*
X0259349Y0058445D02*
X0219176Y0058445D01*
X0219533Y0060043D02*
X0259349Y0060043D01*
X0259349Y0061642D02*
X0219776Y0061642D01*
X0219776Y0063240D02*
X0225122Y0063240D01*
X0228125Y0063240D02*
X0250722Y0063240D01*
X0253725Y0063240D02*
X0259349Y0063240D01*
X0259349Y0064839D02*
X0256468Y0064839D01*
X0257673Y0066437D02*
X0259349Y0066437D01*
X0259349Y0068036D02*
X0258324Y0068036D01*
X0258324Y0069634D02*
X0259349Y0069634D01*
X0259349Y0071233D02*
X0257993Y0071233D01*
X0257240Y0072832D02*
X0259349Y0072832D01*
X0259691Y0074430D02*
X0255588Y0074430D01*
X0248859Y0074430D02*
X0230583Y0074430D01*
X0230583Y0076029D02*
X0239591Y0076029D01*
X0238401Y0077627D02*
X0230583Y0077627D01*
X0231640Y0072832D02*
X0247207Y0072832D01*
X0247979Y0064839D02*
X0230868Y0064839D01*
X0222379Y0064839D02*
X0220686Y0064839D01*
X0215299Y0069634D02*
X0150724Y0069634D01*
X0150724Y0068036D02*
X0200297Y0068036D01*
X0200055Y0066437D02*
X0150724Y0066437D01*
X0150724Y0064839D02*
X0200055Y0064839D01*
X0200055Y0063240D02*
X0150724Y0063240D01*
X0150724Y0061642D02*
X0200055Y0061642D01*
X0200055Y0060043D02*
X0150724Y0060043D01*
X0150724Y0058445D02*
X0200055Y0058445D01*
X0213944Y0055248D02*
X0214903Y0055248D01*
X0214903Y0053649D02*
X0213944Y0053649D01*
X0219012Y0053649D02*
X0221586Y0053649D01*
X0222672Y0055248D02*
X0219176Y0055248D01*
X0226424Y0055248D02*
X0226824Y0055248D01*
X0226824Y0053649D02*
X0226424Y0053649D01*
X0226424Y0052051D02*
X0226824Y0052051D01*
X0216135Y0044058D02*
X0211532Y0044058D01*
X0212811Y0042460D02*
X0214537Y0042460D01*
X0211224Y0031270D02*
X0211201Y0031270D01*
X0223811Y0031270D02*
X0223846Y0031270D01*
X0214424Y0017821D02*
X0211924Y0015321D01*
X0274424Y0050321D02*
X0284424Y0050321D01*
X0286924Y0052821D01*
X0286924Y0088845D01*
X0286983Y0088904D01*
X0281983Y0088904D02*
X0281924Y0088845D01*
X0281924Y0077821D01*
X0274424Y0070321D01*
X0274424Y0060321D01*
X0291976Y0070135D02*
X0291976Y0042874D01*
X0289424Y0040321D01*
X0292160Y0077721D02*
X0295745Y0077721D01*
X0295745Y0080727D01*
X0295622Y0081185D01*
X0295385Y0081595D01*
X0295050Y0081930D01*
X0294639Y0082167D01*
X0294182Y0082290D01*
X0292160Y0082290D01*
X0292160Y0077721D01*
X0292160Y0079226D02*
X0291792Y0079226D01*
X0291792Y0080824D02*
X0292160Y0080824D01*
X0290124Y0082423D02*
X0303649Y0082423D01*
X0303649Y0084021D02*
X0290415Y0084021D01*
X0292167Y0084151D02*
X0294188Y0084151D01*
X0294646Y0084274D01*
X0295056Y0084511D01*
X0295392Y0084846D01*
X0295629Y0085256D01*
X0295751Y0085714D01*
X0295751Y0088720D01*
X0292167Y0088720D01*
X0292167Y0084151D01*
X0292167Y0085620D02*
X0291798Y0085620D01*
X0291798Y0087218D02*
X0292167Y0087218D01*
X0292167Y0088817D02*
X0295734Y0088817D01*
X0295751Y0087218D02*
X0303649Y0087218D01*
X0303649Y0085620D02*
X0295726Y0085620D01*
X0295719Y0080824D02*
X0303649Y0080824D01*
X0303649Y0079226D02*
X0295745Y0079226D01*
X0292167Y0090415D02*
X0291798Y0090415D01*
X0291798Y0092014D02*
X0292167Y0092014D01*
X0292167Y0093612D02*
X0291798Y0093612D01*
X0294354Y0093612D02*
X0295488Y0093612D01*
X0276983Y0088904D02*
X0276924Y0088845D01*
X0295488Y0104802D02*
X0225485Y0104802D01*
X0225485Y0106400D02*
X0295488Y0106400D01*
X0295488Y0107999D02*
X0225485Y0107999D01*
X0225485Y0109597D02*
X0295488Y0109597D01*
X0295488Y0111196D02*
X0225485Y0111196D01*
X0225485Y0112794D02*
X0295488Y0112794D01*
X0295488Y0114393D02*
X0275966Y0114393D01*
X0276224Y0115991D02*
X0295488Y0115991D01*
X0295488Y0117590D02*
X0276224Y0117590D01*
X0276224Y0119188D02*
X0295488Y0119188D01*
X0295488Y0120787D02*
X0276224Y0120787D01*
X0276224Y0122385D02*
X0295488Y0122385D01*
X0295488Y0139969D02*
X0225485Y0139969D01*
X0225485Y0141568D02*
X0295488Y0141568D01*
X0295488Y0143166D02*
X0225485Y0143166D01*
X0225485Y0144765D02*
X0295488Y0144765D01*
X0295488Y0146363D02*
X0224885Y0146363D01*
X0224885Y0147962D02*
X0295488Y0147962D01*
X0295488Y0149560D02*
X0224885Y0149560D01*
X0224203Y0151159D02*
X0295488Y0151159D01*
X0295751Y0162348D02*
X0296088Y0162348D01*
X0295751Y0163947D02*
X0303649Y0163947D01*
X0303649Y0165545D02*
X0295537Y0165545D01*
X0292167Y0165545D02*
X0291798Y0165545D01*
X0291798Y0163947D02*
X0292167Y0163947D01*
X0290183Y0167144D02*
X0303649Y0167144D01*
X0303649Y0168742D02*
X0290479Y0168742D01*
X0290813Y0170341D02*
X0303649Y0170341D01*
X0303649Y0171939D02*
X0290463Y0171939D01*
X0289207Y0173538D02*
X0303649Y0173538D01*
X0303649Y0175136D02*
X0279134Y0175136D01*
X0280733Y0173538D02*
X0284640Y0173538D01*
X0283384Y0171939D02*
X0282331Y0171939D01*
X0286924Y0170321D02*
X0286983Y0170262D01*
X0286983Y0161739D01*
X0281924Y0161798D02*
X0281924Y0167821D01*
X0271924Y0177821D01*
X0275259Y0179932D02*
X0303649Y0179932D01*
X0303649Y0181530D02*
X0287885Y0181530D01*
X0288320Y0183129D02*
X0303649Y0183129D01*
X0303649Y0184727D02*
X0288320Y0184727D01*
X0288320Y0186326D02*
X0303649Y0186326D01*
X0303649Y0187924D02*
X0288320Y0187924D01*
X0287474Y0189523D02*
X0303649Y0189523D01*
X0303649Y0191121D02*
X0283699Y0191121D01*
X0282697Y0192720D02*
X0303649Y0192720D01*
X0303649Y0194318D02*
X0287020Y0194318D01*
X0287182Y0194412D02*
X0287518Y0194747D01*
X0287754Y0195158D01*
X0287877Y0195616D01*
X0287877Y0197637D01*
X0283309Y0197637D01*
X0283309Y0194053D01*
X0286314Y0194053D01*
X0286772Y0194175D01*
X0287182Y0194412D01*
X0287877Y0195917D02*
X0303649Y0195917D01*
X0303649Y0197515D02*
X0287877Y0197515D01*
X0287877Y0199114D02*
X0303649Y0199114D01*
X0303649Y0200712D02*
X0287623Y0200712D01*
X0283309Y0200712D02*
X0282940Y0200712D01*
X0282940Y0199114D02*
X0283309Y0199114D01*
X0283309Y0197515D02*
X0282940Y0197515D01*
X0282940Y0195917D02*
X0283309Y0195917D01*
X0283309Y0194318D02*
X0282940Y0194318D01*
X0276145Y0191121D02*
X0219776Y0191121D01*
X0219776Y0190631D02*
X0219776Y0193929D01*
X0221468Y0195621D01*
X0221597Y0195621D01*
X0223168Y0194050D01*
X0225410Y0193121D01*
X0227837Y0193121D01*
X0230079Y0194050D01*
X0231795Y0195766D01*
X0231818Y0195821D01*
X0247029Y0195821D01*
X0247052Y0195766D01*
X0248768Y0194050D01*
X0251010Y0193121D01*
X0253437Y0193121D01*
X0255679Y0194050D01*
X0257395Y0195766D01*
X0258324Y0198008D01*
X0258324Y0200435D01*
X0257395Y0202677D01*
X0255679Y0204393D01*
X0253437Y0205321D01*
X0251010Y0205321D01*
X0248768Y0204393D01*
X0247052Y0202677D01*
X0247029Y0202621D01*
X0231818Y0202621D01*
X0231795Y0202677D01*
X0230079Y0204393D01*
X0227837Y0205321D01*
X0225410Y0205321D01*
X0223168Y0204393D01*
X0230562Y0203909D02*
X0248285Y0203909D01*
X0256162Y0203909D02*
X0303649Y0203909D01*
X0303649Y0202311D02*
X0257546Y0202311D01*
X0258209Y0200712D02*
X0270555Y0200712D01*
X0270370Y0199114D02*
X0258324Y0199114D01*
X0258120Y0197515D02*
X0270370Y0197515D01*
X0270370Y0195917D02*
X0257458Y0195917D01*
X0255948Y0194318D02*
X0270910Y0194318D01*
X0275144Y0192720D02*
X0219776Y0192720D01*
X0220166Y0194318D02*
X0222900Y0194318D01*
X0219776Y0190631D02*
X0219411Y0189749D01*
X0219176Y0189514D01*
X0219176Y0187454D01*
X0214903Y0187454D01*
X0214903Y0186495D01*
X0214903Y0182616D01*
X0217613Y0182616D01*
X0218071Y0182738D01*
X0218482Y0182975D01*
X0218817Y0183310D01*
X0219054Y0183721D01*
X0219176Y0184179D01*
X0219176Y0186495D01*
X0214903Y0186495D01*
X0213944Y0186495D01*
X0213944Y0182616D01*
X0211234Y0182616D01*
X0210776Y0182738D01*
X0210366Y0182975D01*
X0210030Y0183310D01*
X0209794Y0183721D01*
X0209671Y0184179D01*
X0209671Y0186495D01*
X0213944Y0186495D01*
X0213944Y0187454D01*
X0209671Y0187454D01*
X0209671Y0189514D01*
X0209436Y0189749D01*
X0209304Y0190068D01*
X0208730Y0190068D01*
X0208680Y0189946D01*
X0208792Y0189676D01*
X0208792Y0182815D01*
X0208427Y0181933D01*
X0208024Y0181530D01*
X0208024Y0179932D02*
X0221325Y0179932D01*
X0222069Y0178333D02*
X0208024Y0178333D01*
X0208024Y0176735D02*
X0223717Y0176735D01*
X0226424Y0176735D02*
X0226824Y0176735D01*
X0226824Y0178333D02*
X0226424Y0178333D01*
X0226424Y0179932D02*
X0226824Y0179932D01*
X0229530Y0176735D02*
X0249317Y0176735D01*
X0249341Y0176717D02*
X0250112Y0176324D01*
X0250936Y0176057D01*
X0251791Y0175921D01*
X0252024Y0175921D01*
X0252024Y0181221D01*
X0246724Y0181221D01*
X0246724Y0180988D01*
X0246859Y0180133D01*
X0247127Y0179310D01*
X0247520Y0178539D01*
X0248028Y0177838D01*
X0248641Y0177226D01*
X0249341Y0176717D01*
X0247669Y0178333D02*
X0231178Y0178333D01*
X0231923Y0179932D02*
X0246925Y0179932D01*
X0246995Y0183129D02*
X0231852Y0183129D01*
X0231020Y0184727D02*
X0247827Y0184727D01*
X0249735Y0186326D02*
X0229113Y0186326D01*
X0226824Y0186326D02*
X0226424Y0186326D01*
X0226424Y0184727D02*
X0226824Y0184727D01*
X0226824Y0183129D02*
X0226424Y0183129D01*
X0224135Y0186326D02*
X0219176Y0186326D01*
X0219176Y0187924D02*
X0267501Y0187924D01*
X0265903Y0186326D02*
X0254713Y0186326D01*
X0252424Y0186326D02*
X0252024Y0186326D01*
X0252024Y0184727D02*
X0252424Y0184727D01*
X0252424Y0183129D02*
X0252024Y0183129D01*
X0252424Y0181530D02*
X0261107Y0181530D01*
X0259509Y0179932D02*
X0257523Y0179932D01*
X0257588Y0180133D02*
X0257321Y0179310D01*
X0256928Y0178539D01*
X0256419Y0177838D01*
X0255807Y0177226D01*
X0255106Y0176717D01*
X0254335Y0176324D01*
X0253512Y0176057D01*
X0252656Y0175921D01*
X0252424Y0175921D01*
X0252424Y0181221D01*
X0257724Y0181221D01*
X0257724Y0180988D01*
X0257588Y0180133D01*
X0257910Y0178333D02*
X0256778Y0178333D01*
X0256312Y0176735D02*
X0255130Y0176735D01*
X0254713Y0175136D02*
X0215108Y0175136D01*
X0215813Y0173538D02*
X0253115Y0173538D01*
X0252424Y0176735D02*
X0252024Y0176735D01*
X0252024Y0178333D02*
X0252424Y0178333D01*
X0252424Y0179932D02*
X0252024Y0179932D01*
X0257452Y0183129D02*
X0262706Y0183129D01*
X0264304Y0184727D02*
X0256620Y0184727D01*
X0269424Y0185321D02*
X0275290Y0185321D01*
X0269424Y0185321D02*
X0254424Y0170321D01*
X0249424Y0170321D01*
X0246924Y0167821D01*
X0246924Y0161798D01*
X0243724Y0167144D02*
X0148024Y0167144D01*
X0148024Y0168742D02*
X0243841Y0168742D01*
X0244918Y0170341D02*
X0214943Y0170341D01*
X0215768Y0171939D02*
X0246516Y0171939D01*
X0222770Y0165545D02*
X0148024Y0165545D01*
X0150651Y0163947D02*
X0151610Y0163947D01*
X0151610Y0162348D02*
X0150651Y0162348D01*
X0150651Y0160750D02*
X0151610Y0160750D01*
X0151130Y0160131D02*
X0169234Y0160131D01*
X0172524Y0163421D01*
X0178124Y0157821D01*
X0185723Y0157821D01*
X0185723Y0151522D01*
X0186924Y0150321D01*
X0184967Y0146363D02*
X0193064Y0146363D01*
X0192402Y0144765D02*
X0185773Y0144765D01*
X0180724Y0144765D02*
X0180324Y0144765D01*
X0180324Y0146363D02*
X0180724Y0146363D01*
X0180724Y0147962D02*
X0180324Y0147962D01*
X0177909Y0147962D02*
X0155429Y0147962D01*
X0155429Y0146931D02*
X0155429Y0149642D01*
X0151550Y0149642D01*
X0151550Y0145368D01*
X0153866Y0145368D01*
X0154324Y0145491D01*
X0154734Y0145728D01*
X0155069Y0146063D01*
X0155306Y0146474D01*
X0155429Y0146931D01*
X0155243Y0146363D02*
X0176081Y0146363D01*
X0175275Y0144765D02*
X0154495Y0144765D01*
X0151605Y0144765D02*
X0150646Y0144765D01*
X0150646Y0143166D02*
X0151605Y0143166D01*
X0151605Y0141568D02*
X0150646Y0141568D01*
X0155484Y0138370D02*
X0177733Y0138370D01*
X0183139Y0147962D02*
X0194537Y0147962D01*
X0202110Y0147962D02*
X0215380Y0147962D01*
X0215380Y0149560D02*
X0155429Y0149560D01*
X0151550Y0149560D02*
X0150591Y0149560D01*
X0150591Y0147962D02*
X0151550Y0147962D01*
X0151550Y0146363D02*
X0150591Y0146363D01*
X0150591Y0151159D02*
X0151550Y0151159D01*
X0151550Y0152757D02*
X0150591Y0152757D01*
X0150591Y0154356D02*
X0151550Y0154356D01*
X0151610Y0155378D02*
X0153926Y0155378D01*
X0154384Y0155501D01*
X0154794Y0155738D01*
X0155129Y0156073D01*
X0155366Y0156484D01*
X0155489Y0156941D01*
X0155489Y0159652D01*
X0151610Y0159652D01*
X0151610Y0155378D01*
X0151610Y0155954D02*
X0150651Y0155954D01*
X0150651Y0157553D02*
X0151610Y0157553D01*
X0151610Y0159151D02*
X0150651Y0159151D01*
X0155489Y0159151D02*
X0180970Y0159151D01*
X0180970Y0157553D02*
X0155489Y0157553D01*
X0155010Y0155954D02*
X0180970Y0155954D01*
X0181763Y0154356D02*
X0154893Y0154356D01*
X0155489Y0160750D02*
X0181246Y0160750D01*
X0185539Y0160750D02*
X0185907Y0160750D01*
X0185907Y0159151D02*
X0185539Y0159151D01*
X0185539Y0157553D02*
X0185907Y0157553D01*
X0185907Y0155954D02*
X0185539Y0155954D01*
X0185539Y0154356D02*
X0185907Y0154356D01*
X0172524Y0163421D02*
X0172524Y0187821D01*
X0172624Y0187721D02*
X0172624Y0183221D01*
X0174429Y0183221D01*
X0177124Y0185916D01*
X0177124Y0187721D01*
X0172624Y0187721D01*
X0172624Y0187921D01*
X0177124Y0187921D01*
X0177124Y0189727D01*
X0174429Y0192421D01*
X0172624Y0192421D01*
X0172624Y0187921D01*
X0172424Y0187921D01*
X0172424Y0192421D01*
X0170618Y0192421D01*
X0167924Y0189727D01*
X0167924Y0187921D01*
X0172424Y0187921D01*
X0172424Y0187721D01*
X0172624Y0187721D01*
X0172424Y0187721D02*
X0172424Y0183221D01*
X0170618Y0183221D01*
X0167924Y0185916D01*
X0167924Y0187721D01*
X0172424Y0187721D01*
X0172424Y0187924D02*
X0172624Y0187924D01*
X0172624Y0186326D02*
X0172424Y0186326D01*
X0172424Y0184727D02*
X0172624Y0184727D01*
X0175935Y0184727D02*
X0178264Y0184727D01*
X0177324Y0185667D02*
X0180370Y0182621D01*
X0184678Y0182621D01*
X0187524Y0185467D01*
X0190370Y0182621D01*
X0194678Y0182621D01*
X0197724Y0185667D01*
X0197724Y0189975D01*
X0194878Y0192821D01*
X0197724Y0195667D01*
X0197724Y0199975D01*
X0194678Y0203021D01*
X0190370Y0203021D01*
X0187524Y0200175D01*
X0184678Y0203021D01*
X0180370Y0203021D01*
X0177324Y0199975D01*
X0177324Y0195667D01*
X0180170Y0192821D01*
X0177324Y0189975D01*
X0177324Y0185667D01*
X0177324Y0186326D02*
X0177124Y0186326D01*
X0177124Y0187924D02*
X0177324Y0187924D01*
X0177324Y0189523D02*
X0177124Y0189523D01*
X0178470Y0191121D02*
X0175729Y0191121D01*
X0174429Y0193221D02*
X0177124Y0195916D01*
X0177124Y0197721D01*
X0172624Y0197721D01*
X0172624Y0197921D01*
X0177124Y0197921D01*
X0177124Y0199727D01*
X0174429Y0202421D01*
X0172624Y0202421D01*
X0172624Y0197921D01*
X0172424Y0197921D01*
X0172424Y0197721D01*
X0172624Y0197721D01*
X0172624Y0193221D01*
X0174429Y0193221D01*
X0175526Y0194318D02*
X0178673Y0194318D01*
X0177324Y0195917D02*
X0177124Y0195917D01*
X0177124Y0197515D02*
X0177324Y0197515D01*
X0177324Y0199114D02*
X0177124Y0199114D01*
X0178061Y0200712D02*
X0176138Y0200712D01*
X0174539Y0202311D02*
X0179659Y0202311D01*
X0185388Y0202311D02*
X0189659Y0202311D01*
X0188061Y0200712D02*
X0186986Y0200712D01*
X0195388Y0202311D02*
X0218029Y0202311D01*
X0216377Y0200712D02*
X0196986Y0200712D01*
X0197724Y0199114D02*
X0214779Y0199114D01*
X0209407Y0197515D02*
X0208611Y0197515D01*
X0200237Y0197515D02*
X0197724Y0197515D01*
X0197724Y0195917D02*
X0200055Y0195917D01*
X0200055Y0194318D02*
X0196375Y0194318D01*
X0194979Y0192720D02*
X0200055Y0192720D01*
X0200055Y0191121D02*
X0196577Y0191121D01*
X0197724Y0189523D02*
X0200055Y0189523D01*
X0200055Y0187924D02*
X0197724Y0187924D01*
X0197724Y0186326D02*
X0200055Y0186326D01*
X0200055Y0184727D02*
X0196784Y0184727D01*
X0195185Y0183129D02*
X0200055Y0183129D01*
X0200823Y0181530D02*
X0125124Y0181530D01*
X0125124Y0179932D02*
X0200824Y0179932D01*
X0200824Y0178333D02*
X0125124Y0178333D01*
X0125124Y0176735D02*
X0200746Y0176735D01*
X0204424Y0175321D02*
X0206924Y0172821D01*
X0211924Y0172821D01*
X0204879Y0170341D02*
X0204534Y0170341D01*
X0203524Y0163947D02*
X0155269Y0163947D01*
X0155489Y0162348D02*
X0201925Y0162348D01*
X0217573Y0150321D02*
X0219748Y0148146D01*
X0220132Y0147762D01*
X0219948Y0147962D02*
X0220317Y0147962D01*
X0220317Y0149560D02*
X0219948Y0149560D01*
X0219948Y0151159D02*
X0220317Y0151159D01*
X0225485Y0136772D02*
X0253336Y0136772D01*
X0252624Y0135173D02*
X0225485Y0135173D01*
X0225485Y0133575D02*
X0252624Y0133575D01*
X0252624Y0131976D02*
X0225485Y0131976D01*
X0225485Y0130378D02*
X0252624Y0130378D01*
X0252624Y0128779D02*
X0225485Y0128779D01*
X0225485Y0127181D02*
X0252624Y0127181D01*
X0263624Y0127181D02*
X0265224Y0127181D01*
X0265224Y0128779D02*
X0263624Y0128779D01*
X0263624Y0130378D02*
X0265224Y0130378D01*
X0265224Y0131976D02*
X0263624Y0131976D01*
X0263624Y0133575D02*
X0265224Y0133575D01*
X0265224Y0135173D02*
X0263624Y0135173D01*
X0263624Y0136772D02*
X0265224Y0136772D01*
X0265224Y0122385D02*
X0263624Y0122385D01*
X0263624Y0120787D02*
X0265224Y0120787D01*
X0265224Y0119188D02*
X0263624Y0119188D01*
X0263624Y0117590D02*
X0265224Y0117590D01*
X0265224Y0115991D02*
X0263624Y0115991D01*
X0263624Y0114393D02*
X0265224Y0114393D01*
X0223259Y0074430D02*
X0150724Y0074430D01*
X0150724Y0072832D02*
X0221607Y0072832D01*
X0216898Y0071233D02*
X0150724Y0071233D01*
X0150724Y0079226D02*
X0161081Y0079226D01*
X0160378Y0080824D02*
X0150724Y0080824D01*
X0144424Y0095321D02*
X0124424Y0095321D01*
X0121924Y0097821D01*
X0121924Y0157821D01*
X0124424Y0160321D01*
X0121924Y0162821D01*
X0124424Y0160321D02*
X0144247Y0160321D01*
X0144437Y0160131D01*
X0139638Y0163947D02*
X0125324Y0163947D01*
X0125124Y0165545D02*
X0140824Y0165545D01*
X0140824Y0167144D02*
X0125124Y0167144D01*
X0125124Y0168742D02*
X0140824Y0168742D01*
X0140824Y0170341D02*
X0125124Y0170341D01*
X0125124Y0171939D02*
X0140580Y0171939D01*
X0140535Y0173538D02*
X0125124Y0173538D01*
X0125124Y0175136D02*
X0141239Y0175136D01*
X0147608Y0175136D02*
X0176239Y0175136D01*
X0175535Y0173538D02*
X0148313Y0173538D01*
X0148268Y0171939D02*
X0175580Y0171939D01*
X0176404Y0170341D02*
X0148024Y0170341D01*
X0159862Y0183129D02*
X0125124Y0183129D01*
X0125124Y0184727D02*
X0158264Y0184727D01*
X0157324Y0186326D02*
X0124971Y0186326D01*
X0123846Y0187924D02*
X0157324Y0187924D01*
X0157324Y0189523D02*
X0122247Y0189523D01*
X0120649Y0191121D02*
X0158470Y0191121D01*
X0164979Y0192720D02*
X0180068Y0192720D01*
X0172624Y0194318D02*
X0172424Y0194318D01*
X0172424Y0193221D02*
X0172424Y0197721D01*
X0167924Y0197721D01*
X0167924Y0195916D01*
X0170618Y0193221D01*
X0172424Y0193221D01*
X0172424Y0191121D02*
X0172624Y0191121D01*
X0172624Y0189523D02*
X0172424Y0189523D01*
X0169318Y0191121D02*
X0166577Y0191121D01*
X0167724Y0189523D02*
X0167924Y0189523D01*
X0167924Y0187924D02*
X0167724Y0187924D01*
X0167724Y0186326D02*
X0167924Y0186326D01*
X0166784Y0184727D02*
X0169112Y0184727D01*
X0165185Y0183129D02*
X0179862Y0183129D01*
X0185185Y0183129D02*
X0189862Y0183129D01*
X0188264Y0184727D02*
X0186784Y0184727D01*
X0172624Y0195917D02*
X0172424Y0195917D01*
X0172424Y0197515D02*
X0172624Y0197515D01*
X0172524Y0197821D02*
X0171924Y0198421D01*
X0171924Y0202821D01*
X0172424Y0202311D02*
X0172624Y0202311D01*
X0172624Y0200712D02*
X0172424Y0200712D01*
X0172424Y0199114D02*
X0172624Y0199114D01*
X0168909Y0200712D02*
X0166986Y0200712D01*
X0167724Y0199114D02*
X0167924Y0199114D01*
X0167924Y0197515D02*
X0167724Y0197515D01*
X0167724Y0195917D02*
X0167924Y0195917D01*
X0166375Y0194318D02*
X0169521Y0194318D01*
X0168316Y0211902D02*
X0166731Y0211902D01*
X0158316Y0211902D02*
X0156731Y0211902D01*
X0148316Y0211902D02*
X0146731Y0211902D01*
X0138316Y0211902D02*
X0135798Y0211902D01*
X0128321Y0219895D02*
X0127577Y0219895D01*
X0125978Y0221493D02*
X0130643Y0221493D01*
X0099070Y0221493D02*
X0095736Y0221493D01*
X0095875Y0219895D02*
X0097470Y0219895D01*
X0096739Y0218296D02*
X0095331Y0218296D01*
X0095186Y0216698D02*
X0096424Y0216698D01*
X0096427Y0215099D02*
X0095186Y0215099D01*
X0095186Y0213501D02*
X0097089Y0213501D01*
X0098316Y0211902D02*
X0095186Y0211902D01*
X0084628Y0223092D02*
X0023649Y0223092D01*
X0023649Y0224690D02*
X0083029Y0224690D01*
X0081595Y0226289D02*
X0023649Y0226289D01*
X0023649Y0227887D02*
X0081224Y0227887D01*
X0081224Y0229486D02*
X0023649Y0229486D01*
X0023649Y0231084D02*
X0081224Y0231084D01*
X0081224Y0232683D02*
X0023649Y0232683D01*
X0023649Y0234281D02*
X0081224Y0234281D01*
X0081224Y0235880D02*
X0023649Y0235880D01*
X0023649Y0237478D02*
X0081224Y0237478D01*
X0081224Y0239077D02*
X0023649Y0239077D01*
X0023649Y0240675D02*
X0081224Y0240675D01*
X0081224Y0242274D02*
X0023649Y0242274D01*
X0023649Y0243872D02*
X0081224Y0243872D01*
X0081224Y0245471D02*
X0023649Y0245471D01*
X0023649Y0247069D02*
X0081224Y0247069D01*
X0081224Y0248668D02*
X0023649Y0248668D01*
X0023649Y0250266D02*
X0081224Y0250266D01*
X0081224Y0251865D02*
X0023649Y0251865D01*
X0023649Y0253463D02*
X0081224Y0253463D01*
X0081224Y0255062D02*
X0023649Y0255062D01*
X0023649Y0256660D02*
X0081515Y0256660D01*
X0082836Y0258259D02*
X0023649Y0258259D01*
X0024206Y0259857D02*
X0084434Y0259857D01*
X0086924Y0257821D02*
X0084424Y0255321D01*
X0084424Y0227821D01*
X0086924Y0225321D01*
X0179424Y0225321D01*
X0182524Y0222221D01*
X0182524Y0216321D01*
X0186731Y0211902D02*
X0188316Y0211902D01*
X0192524Y0216321D02*
X0192524Y0226659D01*
X0190174Y0229009D01*
X0088236Y0229009D01*
X0086924Y0230321D01*
X0086924Y0252821D01*
X0088236Y0254134D01*
X0127236Y0254134D01*
X0127299Y0254196D01*
X0129424Y0257821D02*
X0086924Y0257821D01*
X0129424Y0257821D02*
X0132376Y0254868D01*
X0132376Y0247014D01*
X0135870Y0251865D02*
X0138883Y0251865D01*
X0135576Y0253463D02*
X0303649Y0253463D01*
X0303649Y0251865D02*
X0295870Y0251865D01*
X0297415Y0250266D02*
X0303649Y0250266D01*
X0303649Y0248668D02*
X0298078Y0248668D01*
X0298276Y0247069D02*
X0303649Y0247069D01*
X0303649Y0245471D02*
X0298123Y0245471D01*
X0297461Y0243872D02*
X0303649Y0243872D01*
X0303649Y0242274D02*
X0295980Y0242274D01*
X0297059Y0240675D02*
X0303649Y0240675D01*
X0303649Y0239077D02*
X0297908Y0239077D01*
X0298276Y0237478D02*
X0303649Y0237478D01*
X0303649Y0235880D02*
X0298276Y0235880D01*
X0297630Y0234281D02*
X0303649Y0234281D01*
X0303649Y0232683D02*
X0296389Y0232683D01*
X0303649Y0231084D02*
X0192624Y0231084D01*
X0194222Y0229486D02*
X0303649Y0229486D01*
X0303649Y0227887D02*
X0195478Y0227887D01*
X0195724Y0226289D02*
X0303649Y0226289D01*
X0303649Y0224690D02*
X0195724Y0224690D01*
X0195724Y0223092D02*
X0303649Y0223092D01*
X0303649Y0221493D02*
X0280978Y0221493D01*
X0282577Y0219895D02*
X0303649Y0219895D01*
X0303649Y0218296D02*
X0283308Y0218296D01*
X0283624Y0216698D02*
X0303649Y0216698D01*
X0303649Y0215099D02*
X0283620Y0215099D01*
X0282958Y0213501D02*
X0303649Y0213501D01*
X0303649Y0211902D02*
X0281731Y0211902D01*
X0273316Y0211902D02*
X0271731Y0211902D01*
X0263316Y0211902D02*
X0261731Y0211902D01*
X0253316Y0211902D02*
X0251731Y0211902D01*
X0243316Y0211902D02*
X0241731Y0211902D01*
X0233316Y0211902D02*
X0231731Y0211902D01*
X0223316Y0211902D02*
X0221731Y0211902D01*
X0213316Y0211902D02*
X0211731Y0211902D01*
X0203316Y0211902D02*
X0196731Y0211902D01*
X0197958Y0213501D02*
X0202089Y0213501D01*
X0201427Y0215099D02*
X0198620Y0215099D01*
X0198624Y0216698D02*
X0201424Y0216698D01*
X0201739Y0218296D02*
X0198308Y0218296D01*
X0197577Y0219895D02*
X0202470Y0219895D01*
X0204070Y0221493D02*
X0195978Y0221493D01*
X0196389Y0232683D02*
X0198364Y0232683D01*
X0206389Y0232683D02*
X0208364Y0232683D01*
X0216389Y0232683D02*
X0218364Y0232683D01*
X0226389Y0232683D02*
X0228364Y0232683D01*
X0236389Y0232683D02*
X0238364Y0232683D01*
X0246389Y0232683D02*
X0248364Y0232683D01*
X0256389Y0232683D02*
X0258364Y0232683D01*
X0266389Y0232683D02*
X0268364Y0232683D01*
X0276389Y0232683D02*
X0278364Y0232683D01*
X0286389Y0232683D02*
X0288364Y0232683D01*
X0274070Y0221493D02*
X0270978Y0221493D01*
X0264070Y0221493D02*
X0260978Y0221493D01*
X0254070Y0221493D02*
X0250978Y0221493D01*
X0244070Y0221493D02*
X0240978Y0221493D01*
X0234070Y0221493D02*
X0230978Y0221493D01*
X0224070Y0221493D02*
X0220978Y0221493D01*
X0214070Y0221493D02*
X0210978Y0221493D01*
X0178316Y0211902D02*
X0176731Y0211902D01*
X0208792Y0189523D02*
X0209662Y0189523D01*
X0209671Y0187924D02*
X0208792Y0187924D01*
X0208792Y0186326D02*
X0209671Y0186326D01*
X0209671Y0184727D02*
X0208792Y0184727D01*
X0208792Y0183129D02*
X0210212Y0183129D01*
X0213944Y0183129D02*
X0214903Y0183129D01*
X0214903Y0184727D02*
X0213944Y0184727D01*
X0213944Y0186326D02*
X0214903Y0186326D01*
X0218635Y0183129D02*
X0221395Y0183129D01*
X0222227Y0184727D02*
X0219176Y0184727D01*
X0219185Y0189523D02*
X0271373Y0189523D01*
X0275723Y0197821D02*
X0283557Y0185321D01*
X0275937Y0178333D02*
X0303649Y0178333D01*
X0303649Y0176735D02*
X0277536Y0176735D01*
X0248500Y0194318D02*
X0230348Y0194318D01*
X0228883Y0251865D02*
X0225870Y0251865D01*
X0218883Y0251865D02*
X0215870Y0251865D01*
X0208883Y0251865D02*
X0205870Y0251865D01*
X0198883Y0251865D02*
X0195870Y0251865D01*
X0188883Y0251865D02*
X0185870Y0251865D01*
X0178883Y0251865D02*
X0175870Y0251865D01*
X0168883Y0251865D02*
X0165870Y0251865D01*
X0158883Y0251865D02*
X0155870Y0251865D01*
X0148883Y0251865D02*
X0145870Y0251865D01*
X0135576Y0255062D02*
X0303649Y0255062D01*
X0303649Y0256660D02*
X0135098Y0256660D01*
X0133511Y0258259D02*
X0303649Y0258259D01*
X0303092Y0259857D02*
X0131913Y0259857D01*
X0235870Y0251865D02*
X0238883Y0251865D01*
X0245870Y0251865D02*
X0248883Y0251865D01*
X0255870Y0251865D02*
X0258883Y0251865D01*
X0265870Y0251865D02*
X0268883Y0251865D01*
X0275870Y0251865D02*
X0278883Y0251865D01*
X0285870Y0251865D02*
X0288883Y0251865D01*
X0299895Y0263054D02*
X0027403Y0263054D01*
X0025805Y0261456D02*
X0301493Y0261456D01*
X0194924Y0136772D02*
X0155420Y0136772D01*
X0104839Y0125582D02*
X0023649Y0125582D01*
X0023649Y0127181D02*
X0103332Y0127181D01*
X0102698Y0128779D02*
X0023649Y0128779D01*
X0023649Y0130378D02*
X0102590Y0130378D01*
X0102983Y0131976D02*
X0023649Y0131976D01*
X0095944Y0087218D02*
X0111224Y0087218D01*
X0111224Y0085620D02*
X0097619Y0085620D01*
X0097469Y0088817D02*
X0111224Y0088817D01*
X0111224Y0090415D02*
X0098337Y0090415D01*
X0208550Y0068036D02*
X0209886Y0068036D01*
D11*
X0151185Y0130171D03*
X0144492Y0130171D03*
X0144432Y0140201D03*
X0151125Y0140201D03*
X0151070Y0150121D03*
X0144377Y0150121D03*
X0144437Y0160131D03*
X0151130Y0160131D03*
D12*
X0214424Y0186975D03*
X0214424Y0193668D03*
X0164629Y0111970D03*
X0164629Y0105277D03*
X0214424Y0063668D03*
X0214424Y0056975D03*
D13*
X0076035Y0054721D02*
X0076035Y0046121D01*
X0068524Y0031524D02*
X0059924Y0031524D01*
X0052413Y0046121D02*
X0052413Y0054721D01*
D14*
X0137524Y0026321D03*
X0147524Y0026321D03*
X0157524Y0026321D03*
X0167524Y0026321D03*
X0177524Y0026321D03*
X0187524Y0026321D03*
X0197524Y0026321D03*
X0207524Y0026321D03*
X0227524Y0026321D03*
X0237524Y0026321D03*
X0247524Y0026321D03*
X0257524Y0026321D03*
X0267524Y0026321D03*
X0277524Y0026321D03*
X0252224Y0051421D03*
X0252224Y0069221D03*
X0226624Y0069221D03*
X0226624Y0051421D03*
X0198324Y0117521D03*
X0180524Y0117521D03*
X0180524Y0143121D03*
X0198324Y0143121D03*
X0226624Y0181421D03*
X0226624Y0199221D03*
X0227524Y0216321D03*
X0237524Y0216321D03*
X0247524Y0216321D03*
X0257524Y0216321D03*
X0267524Y0216321D03*
X0277524Y0216321D03*
X0252224Y0199221D03*
X0252224Y0181421D03*
X0217524Y0216321D03*
X0207524Y0216321D03*
X0192524Y0216321D03*
X0182524Y0216321D03*
X0172524Y0216321D03*
X0162524Y0216321D03*
X0152524Y0216321D03*
X0142524Y0216321D03*
X0132524Y0216321D03*
X0122524Y0216321D03*
X0112524Y0216321D03*
X0102524Y0216321D03*
D15*
X0271424Y0060321D02*
X0277424Y0060321D01*
X0277424Y0050321D02*
X0271424Y0050321D01*
X0271424Y0040321D02*
X0277424Y0040321D01*
D16*
X0275290Y0185321D03*
X0283557Y0185321D03*
D17*
X0281983Y0161739D03*
X0286983Y0161739D03*
X0291983Y0161739D03*
X0276983Y0161739D03*
X0271983Y0161739D03*
X0266983Y0161739D03*
X0261983Y0161739D03*
X0256983Y0161739D03*
X0251983Y0161739D03*
X0246983Y0161739D03*
X0241983Y0161739D03*
X0236983Y0161739D03*
X0231983Y0161739D03*
X0226983Y0161739D03*
X0204424Y0186245D03*
X0204424Y0193647D03*
X0226983Y0088904D03*
X0231983Y0088904D03*
X0236983Y0088904D03*
X0241983Y0088904D03*
X0246983Y0088904D03*
X0251983Y0088904D03*
X0256983Y0088904D03*
X0261983Y0088904D03*
X0266983Y0088904D03*
X0271983Y0088904D03*
X0276983Y0088904D03*
X0281983Y0088904D03*
X0286983Y0088904D03*
X0291983Y0088904D03*
X0291976Y0077537D03*
X0291976Y0070135D03*
X0204424Y0064022D03*
X0204424Y0056620D03*
D18*
X0193124Y0095321D03*
X0185723Y0095321D03*
X0185723Y0105321D03*
X0193124Y0105321D03*
X0220132Y0107762D03*
X0220132Y0112762D03*
X0220132Y0117762D03*
X0220132Y0122762D03*
X0220132Y0127762D03*
X0220132Y0132762D03*
X0220132Y0137762D03*
X0220132Y0142762D03*
X0220132Y0147762D03*
X0193124Y0157821D03*
X0185723Y0157821D03*
X0220132Y0102762D03*
X0275723Y0197821D03*
X0283124Y0197821D03*
D19*
X0165924Y0092321D03*
X0165924Y0082321D03*
X0092924Y0082321D03*
X0092924Y0092321D03*
D20*
X0092924Y0050321D03*
X0092924Y0040321D03*
X0165924Y0040321D03*
X0165924Y0050321D03*
D21*
X0264424Y0125321D03*
D22*
X0148164Y0115439D03*
X0144424Y0115439D03*
X0140683Y0115439D03*
X0140683Y0105203D03*
X0148164Y0105203D03*
D23*
X0102376Y0237014D03*
D24*
X0112376Y0237014D03*
X0112376Y0247014D03*
X0102376Y0247014D03*
X0122376Y0247014D03*
X0132376Y0247014D03*
X0132376Y0237014D03*
X0122376Y0237014D03*
X0142376Y0237014D03*
X0152376Y0237014D03*
X0152376Y0247014D03*
X0142376Y0247014D03*
X0162376Y0247014D03*
X0172376Y0247014D03*
X0182376Y0247014D03*
X0182376Y0237014D03*
X0172376Y0237014D03*
X0162376Y0237014D03*
X0192376Y0237014D03*
X0202376Y0237014D03*
X0202376Y0247014D03*
X0192376Y0247014D03*
X0212376Y0247014D03*
X0222376Y0247014D03*
X0222376Y0237014D03*
X0212376Y0237014D03*
X0232376Y0237014D03*
X0242376Y0237014D03*
X0242376Y0247014D03*
X0232376Y0247014D03*
X0252376Y0247014D03*
X0262376Y0247014D03*
X0262376Y0237014D03*
X0252376Y0237014D03*
X0272376Y0237014D03*
X0282376Y0237014D03*
X0282376Y0247014D03*
X0272376Y0247014D03*
X0292376Y0247014D03*
X0292376Y0237014D03*
X0107884Y0179921D03*
X0107884Y0169921D03*
X0107884Y0159921D03*
X0107884Y0149921D03*
X0107884Y0139921D03*
X0107884Y0129921D03*
D25*
X0162524Y0187821D03*
X0172524Y0187821D03*
X0182524Y0187821D03*
X0192524Y0187821D03*
X0192524Y0197821D03*
X0182524Y0197821D03*
X0172524Y0197821D03*
X0162524Y0197821D03*
D26*
X0179424Y0172821D02*
X0201924Y0172821D01*
X0204424Y0175321D01*
X0204424Y0186245D01*
X0214424Y0186975D02*
X0219977Y0181421D01*
X0216924Y0178368D01*
X0216924Y0167821D01*
X0216924Y0155321D02*
X0216924Y0150971D01*
X0219748Y0148146D01*
X0219773Y0143121D02*
X0220132Y0142762D01*
X0219773Y0143121D02*
X0198324Y0143121D01*
X0180524Y0117521D02*
X0169124Y0117521D01*
X0164629Y0113026D01*
X0164629Y0111970D01*
X0168924Y0095321D02*
X0165924Y0092321D01*
X0165924Y0092783D01*
X0165885Y0092821D01*
X0168924Y0095321D02*
X0185723Y0095321D01*
X0193124Y0095321D02*
X0201924Y0095321D01*
X0209365Y0102762D01*
X0220132Y0102762D01*
X0226983Y0088904D02*
X0226983Y0069580D01*
X0226624Y0069221D01*
X0219977Y0069221D01*
X0214424Y0063668D01*
X0214069Y0064022D01*
X0204424Y0064022D01*
X0214424Y0056975D02*
X0219977Y0051421D01*
X0226624Y0051421D01*
X0151185Y0128983D02*
X0151185Y0130171D01*
X0151185Y0140141D01*
X0151125Y0140201D01*
X0151125Y0150066D01*
X0151070Y0150121D01*
X0151130Y0150181D01*
X0151130Y0160131D01*
X0144437Y0160131D02*
X0144424Y0160145D01*
X0144424Y0172821D01*
X0144377Y0150121D02*
X0144432Y0150066D01*
X0144432Y0140201D01*
X0144492Y0140141D01*
X0144492Y0130171D01*
X0219977Y0181421D02*
X0226624Y0181421D01*
X0214424Y0193668D02*
X0204444Y0193668D01*
X0204424Y0193647D01*
X0214424Y0193668D02*
X0219977Y0199221D01*
X0226624Y0199221D01*
X0246924Y0161798D02*
X0246983Y0161739D01*
X0281924Y0161798D02*
X0281983Y0161739D01*
X0091986Y0220384D02*
X0091924Y0220321D01*
D27*
X0091986Y0220384D03*
X0127299Y0254196D03*
X0144424Y0172821D03*
X0114424Y0152821D03*
X0131924Y0115321D03*
X0154424Y0111946D03*
X0216924Y0155321D03*
X0216924Y0167821D03*
X0211924Y0172821D03*
X0179424Y0172821D03*
X0271924Y0177821D03*
X0286924Y0170321D03*
X0246924Y0097821D03*
X0236924Y0082821D03*
X0241986Y0079134D03*
X0214424Y0047821D03*
D28*
X0226624Y0051421D02*
X0251924Y0051421D01*
X0252224Y0051421D01*
X0252224Y0069221D02*
X0226624Y0069221D01*
X0198324Y0117521D02*
X0198324Y0143121D01*
X0226624Y0181421D02*
X0252224Y0181421D01*
X0252224Y0199221D02*
X0226624Y0199221D01*
D29*
X0256924Y0132821D03*
X0261924Y0132821D03*
X0266924Y0132821D03*
X0271924Y0132821D03*
X0271924Y0127821D03*
X0271924Y0122821D03*
X0271924Y0117821D03*
X0266924Y0117821D03*
X0261924Y0117821D03*
X0256924Y0117821D03*
X0256924Y0122821D03*
X0261924Y0122821D03*
X0266924Y0122821D03*
X0266924Y0127821D03*
X0261924Y0127821D03*
X0256924Y0127821D03*
M02*
