G75*
%MOIN*%
%OFA0B0*%
%FSLAX25Y25*%
%IPPOS*%
%LPD*%
%AMOC8*
5,1,8,0,0,1.08239X$1,22.5*
%
%ADD10R,0.05518X0.06306*%
%ADD11R,0.06306X0.05518*%
%ADD12C,0.09000*%
%ADD13C,0.07800*%
%ADD14C,0.06400*%
%ADD15R,0.05124X0.05124*%
%ADD16R,0.04337X0.06306*%
%ADD17R,0.06306X0.04337*%
%ADD18C,0.08274*%
%ADD19R,0.08274X0.08274*%
%ADD20R,0.20400X0.20400*%
%ADD21R,0.02565X0.05124*%
%ADD22R,0.07400X0.07400*%
%ADD23C,0.07400*%
%ADD24OC8,0.06000*%
D10*
X0144492Y0130171D03*
X0151185Y0130171D03*
X0151125Y0140201D03*
X0144432Y0140201D03*
X0144377Y0150121D03*
X0151070Y0150121D03*
X0151130Y0160131D03*
X0144437Y0160131D03*
D11*
X0214424Y0186975D03*
X0214424Y0193668D03*
X0164629Y0111970D03*
X0164629Y0105277D03*
X0214424Y0063668D03*
X0214424Y0056975D03*
D12*
X0068524Y0031524D02*
X0059924Y0031524D01*
X0052413Y0046121D02*
X0052413Y0054721D01*
X0076035Y0054721D02*
X0076035Y0046121D01*
D13*
X0137524Y0026321D03*
X0147524Y0026321D03*
X0157524Y0026321D03*
X0167524Y0026321D03*
X0177524Y0026321D03*
X0187524Y0026321D03*
X0197524Y0026321D03*
X0207524Y0026321D03*
X0227524Y0026321D03*
X0237524Y0026321D03*
X0247524Y0026321D03*
X0257524Y0026321D03*
X0267524Y0026321D03*
X0277524Y0026321D03*
X0252224Y0051421D03*
X0252224Y0069221D03*
X0226624Y0069221D03*
X0226624Y0051421D03*
X0198324Y0117521D03*
X0180524Y0117521D03*
X0180524Y0143121D03*
X0198324Y0143121D03*
X0226624Y0181421D03*
X0226624Y0199221D03*
X0227524Y0216321D03*
X0237524Y0216321D03*
X0247524Y0216321D03*
X0257524Y0216321D03*
X0267524Y0216321D03*
X0277524Y0216321D03*
X0252224Y0199221D03*
X0252224Y0181421D03*
X0217524Y0216321D03*
X0207524Y0216321D03*
X0192524Y0216321D03*
X0182524Y0216321D03*
X0172524Y0216321D03*
X0162524Y0216321D03*
X0152524Y0216321D03*
X0142524Y0216321D03*
X0132524Y0216321D03*
X0122524Y0216321D03*
X0112524Y0216321D03*
X0102524Y0216321D03*
D14*
X0271424Y0060321D02*
X0277424Y0060321D01*
X0277424Y0050321D02*
X0271424Y0050321D01*
X0271424Y0040321D02*
X0277424Y0040321D01*
D15*
X0275290Y0185321D03*
X0283557Y0185321D03*
D16*
X0281983Y0161739D03*
X0286983Y0161739D03*
X0291983Y0161739D03*
X0276983Y0161739D03*
X0271983Y0161739D03*
X0266983Y0161739D03*
X0261983Y0161739D03*
X0256983Y0161739D03*
X0251983Y0161739D03*
X0246983Y0161739D03*
X0241983Y0161739D03*
X0236983Y0161739D03*
X0231983Y0161739D03*
X0226983Y0161739D03*
X0204424Y0186245D03*
X0204424Y0193647D03*
X0226983Y0088904D03*
X0231983Y0088904D03*
X0236983Y0088904D03*
X0241983Y0088904D03*
X0246983Y0088904D03*
X0251983Y0088904D03*
X0256983Y0088904D03*
X0261983Y0088904D03*
X0266983Y0088904D03*
X0271983Y0088904D03*
X0276983Y0088904D03*
X0281983Y0088904D03*
X0286983Y0088904D03*
X0291983Y0088904D03*
X0291976Y0077537D03*
X0291976Y0070135D03*
X0204424Y0064022D03*
X0204424Y0056620D03*
D17*
X0193124Y0095321D03*
X0185723Y0095321D03*
X0185723Y0105321D03*
X0193124Y0105321D03*
X0220132Y0107762D03*
X0220132Y0112762D03*
X0220132Y0117762D03*
X0220132Y0122762D03*
X0220132Y0127762D03*
X0220132Y0132762D03*
X0220132Y0137762D03*
X0220132Y0142762D03*
X0220132Y0147762D03*
X0193124Y0157821D03*
X0185723Y0157821D03*
X0220132Y0102762D03*
X0275723Y0197821D03*
X0283124Y0197821D03*
D18*
X0165924Y0092321D03*
X0165924Y0082321D03*
X0092924Y0082321D03*
X0092924Y0092321D03*
D19*
X0092924Y0050321D03*
X0092924Y0040321D03*
X0165924Y0040321D03*
X0165924Y0050321D03*
D20*
X0264424Y0125321D03*
D21*
X0148164Y0115439D03*
X0144424Y0115439D03*
X0140683Y0115439D03*
X0140683Y0105203D03*
X0148164Y0105203D03*
D22*
X0102376Y0237014D03*
D23*
X0112376Y0237014D03*
X0112376Y0247014D03*
X0102376Y0247014D03*
X0122376Y0247014D03*
X0132376Y0247014D03*
X0132376Y0237014D03*
X0122376Y0237014D03*
X0142376Y0237014D03*
X0152376Y0237014D03*
X0152376Y0247014D03*
X0142376Y0247014D03*
X0162376Y0247014D03*
X0172376Y0247014D03*
X0182376Y0247014D03*
X0182376Y0237014D03*
X0172376Y0237014D03*
X0162376Y0237014D03*
X0192376Y0237014D03*
X0202376Y0237014D03*
X0202376Y0247014D03*
X0192376Y0247014D03*
X0212376Y0247014D03*
X0222376Y0247014D03*
X0222376Y0237014D03*
X0212376Y0237014D03*
X0232376Y0237014D03*
X0242376Y0237014D03*
X0242376Y0247014D03*
X0232376Y0247014D03*
X0252376Y0247014D03*
X0262376Y0247014D03*
X0262376Y0237014D03*
X0252376Y0237014D03*
X0272376Y0237014D03*
X0282376Y0237014D03*
X0282376Y0247014D03*
X0272376Y0247014D03*
X0292376Y0247014D03*
X0292376Y0237014D03*
X0107884Y0179921D03*
X0107884Y0169921D03*
X0107884Y0159921D03*
X0107884Y0149921D03*
X0107884Y0139921D03*
X0107884Y0129921D03*
D24*
X0162524Y0187821D03*
X0172524Y0187821D03*
X0182524Y0187821D03*
X0192524Y0187821D03*
X0192524Y0197821D03*
X0182524Y0197821D03*
X0172524Y0197821D03*
X0162524Y0197821D03*
M02*
