G75*
%MOIN*%
%OFA0B0*%
%FSLAX25Y25*%
%IPPOS*%
%LPD*%
%AMOC8*
5,1,8,0,0,1.08239X$1,22.5*
%
%ADD10C,0.08600*%
%ADD11C,0.07400*%
%ADD12C,0.06000*%
%ADD13C,0.07874*%
%ADD14R,0.07874X0.07874*%
%ADD15R,0.07000X0.07000*%
%ADD16C,0.07000*%
%ADD17OC8,0.05600*%
%ADD18C,0.04000*%
%ADD19C,0.02400*%
%ADD20C,0.02978*%
%ADD21C,0.01200*%
%ADD22C,0.01600*%
%ADD23OC8,0.02978*%
%ADD24C,0.03200*%
D10*
X0059924Y0031524D02*
X0068524Y0031524D01*
X0076035Y0046121D02*
X0076035Y0054721D01*
X0052413Y0054721D02*
X0052413Y0046121D01*
D11*
X0137524Y0026321D03*
X0147524Y0026321D03*
X0157524Y0026321D03*
X0167524Y0026321D03*
X0177524Y0026321D03*
X0187524Y0026321D03*
X0197524Y0026321D03*
X0207524Y0026321D03*
X0227524Y0026321D03*
X0237524Y0026321D03*
X0247524Y0026321D03*
X0257524Y0026321D03*
X0267524Y0026321D03*
X0277524Y0026321D03*
X0252224Y0051421D03*
X0252224Y0069221D03*
X0226624Y0069221D03*
X0226624Y0051421D03*
X0198324Y0117521D03*
X0180524Y0117521D03*
X0180524Y0143121D03*
X0198324Y0143121D03*
X0226624Y0181421D03*
X0226624Y0199221D03*
X0227524Y0216321D03*
X0237524Y0216321D03*
X0247524Y0216321D03*
X0257524Y0216321D03*
X0267524Y0216321D03*
X0277524Y0216321D03*
X0252224Y0199221D03*
X0252224Y0181421D03*
X0217524Y0216321D03*
X0207524Y0216321D03*
X0192524Y0216321D03*
X0182524Y0216321D03*
X0172524Y0216321D03*
X0162524Y0216321D03*
X0152524Y0216321D03*
X0142524Y0216321D03*
X0132524Y0216321D03*
X0122524Y0216321D03*
X0112524Y0216321D03*
X0102524Y0216321D03*
D12*
X0271424Y0060321D02*
X0277424Y0060321D01*
X0277424Y0050321D02*
X0271424Y0050321D01*
X0271424Y0040321D02*
X0277424Y0040321D01*
D13*
X0165924Y0082321D03*
X0165924Y0092321D03*
X0092924Y0092321D03*
X0092924Y0082321D03*
D14*
X0092924Y0050321D03*
X0092924Y0040321D03*
X0165924Y0040321D03*
X0165924Y0050321D03*
D15*
X0102376Y0237014D03*
D16*
X0112376Y0237014D03*
X0112376Y0247014D03*
X0102376Y0247014D03*
X0122376Y0247014D03*
X0132376Y0247014D03*
X0132376Y0237014D03*
X0122376Y0237014D03*
X0142376Y0237014D03*
X0152376Y0237014D03*
X0152376Y0247014D03*
X0142376Y0247014D03*
X0162376Y0247014D03*
X0172376Y0247014D03*
X0182376Y0247014D03*
X0182376Y0237014D03*
X0172376Y0237014D03*
X0162376Y0237014D03*
X0192376Y0237014D03*
X0202376Y0237014D03*
X0202376Y0247014D03*
X0192376Y0247014D03*
X0212376Y0247014D03*
X0222376Y0247014D03*
X0222376Y0237014D03*
X0212376Y0237014D03*
X0232376Y0237014D03*
X0242376Y0237014D03*
X0242376Y0247014D03*
X0232376Y0247014D03*
X0252376Y0247014D03*
X0262376Y0247014D03*
X0262376Y0237014D03*
X0252376Y0237014D03*
X0272376Y0237014D03*
X0282376Y0237014D03*
X0282376Y0247014D03*
X0272376Y0247014D03*
X0292376Y0247014D03*
X0292376Y0237014D03*
X0107884Y0179921D03*
X0107884Y0169921D03*
X0107884Y0159921D03*
X0107884Y0149921D03*
X0107884Y0139921D03*
X0107884Y0129921D03*
D17*
X0162524Y0187821D03*
X0172524Y0187821D03*
X0182524Y0187821D03*
X0192524Y0187821D03*
X0192524Y0197821D03*
X0182524Y0197821D03*
X0172524Y0197821D03*
X0162524Y0197821D03*
D18*
X0165924Y0092321D02*
X0165924Y0082321D01*
X0165924Y0050321D02*
X0165924Y0040321D01*
X0092924Y0040321D02*
X0092924Y0050321D01*
X0092924Y0050421D01*
X0076035Y0050421D01*
X0052413Y0050421D02*
X0052413Y0037332D01*
X0059424Y0030321D01*
X0060626Y0031524D01*
X0064224Y0031524D01*
X0052413Y0050421D02*
X0052413Y0073310D01*
X0061424Y0082321D01*
X0092924Y0082321D01*
X0092924Y0092321D01*
X0092884Y0092361D01*
D19*
X0092924Y0092321D02*
X0092924Y0119321D01*
X0103524Y0129921D01*
X0107884Y0129921D01*
X0092924Y0119321D02*
X0079424Y0132821D01*
X0079424Y0250321D01*
X0084424Y0255321D01*
X0119424Y0255321D01*
X0122376Y0252368D01*
X0122376Y0247014D01*
X0102376Y0247014D02*
X0088617Y0247014D01*
X0084424Y0242821D01*
X0084424Y0212821D01*
X0089424Y0207821D01*
X0084424Y0202821D01*
X0084424Y0152821D01*
X0087324Y0149921D01*
X0107884Y0149921D01*
X0144424Y0172821D02*
X0179424Y0172821D01*
X0172524Y0187821D02*
X0172524Y0197821D01*
X0162524Y0197821D02*
X0162524Y0187821D01*
X0134424Y0187821D01*
X0129424Y0182821D01*
X0104424Y0207821D01*
X0089424Y0207821D01*
X0091986Y0220384D02*
X0091986Y0232884D01*
X0096117Y0237014D01*
X0102376Y0237014D01*
X0129424Y0182821D02*
X0129424Y0117821D01*
X0131924Y0115321D01*
X0129424Y0112821D01*
X0129424Y0086821D01*
X0165924Y0050321D01*
X0165924Y0040321D02*
X0174424Y0040321D01*
X0177524Y0037221D01*
X0177524Y0026321D01*
X0197524Y0026321D02*
X0197524Y0042221D01*
X0203124Y0047821D01*
X0214424Y0047821D01*
X0197524Y0042221D02*
X0165924Y0073821D01*
X0165924Y0082321D01*
X0216924Y0155321D02*
X0216924Y0167821D01*
X0182524Y0197821D02*
X0182524Y0216321D01*
D20*
X0127299Y0254196D03*
X0091986Y0220384D03*
X0144424Y0172821D03*
X0114424Y0152821D03*
X0131924Y0115321D03*
X0154424Y0111946D03*
X0216924Y0155321D03*
X0216924Y0167821D03*
X0211924Y0172821D03*
X0179424Y0172821D03*
X0271924Y0177821D03*
X0286924Y0170321D03*
X0246924Y0097821D03*
X0236924Y0082821D03*
X0241986Y0079134D03*
X0214424Y0047821D03*
D21*
X0132524Y0216321D02*
X0127236Y0221609D01*
X0127236Y0242821D01*
X0123043Y0247014D01*
X0122376Y0247014D01*
D22*
X0023649Y0259300D02*
X0023649Y0014300D01*
X0033649Y0004300D01*
X0288649Y0004300D01*
X0288649Y0024300D01*
X0303649Y0039300D01*
X0303649Y0087488D01*
X0297411Y0087488D01*
X0296529Y0087854D01*
X0295854Y0088529D01*
X0295488Y0089411D01*
X0295488Y0096860D01*
X0294636Y0096009D01*
X0293736Y0095108D01*
X0292560Y0094621D01*
X0249223Y0094621D01*
X0249127Y0094524D01*
X0247697Y0093932D01*
X0246150Y0093932D01*
X0244721Y0094524D01*
X0243627Y0095618D01*
X0243035Y0097048D01*
X0243035Y0098595D01*
X0243627Y0100024D01*
X0244721Y0101118D01*
X0246150Y0101710D01*
X0247697Y0101710D01*
X0249127Y0101118D01*
X0249223Y0101021D01*
X0290598Y0101021D01*
X0292536Y0102959D01*
X0292536Y0200183D01*
X0288098Y0204621D01*
X0255127Y0204621D01*
X0255679Y0204393D01*
X0257395Y0202677D01*
X0258324Y0200435D01*
X0258324Y0198008D01*
X0257720Y0196550D01*
X0272560Y0181710D01*
X0272697Y0181710D01*
X0274127Y0181118D01*
X0275221Y0180024D01*
X0275813Y0178595D01*
X0275813Y0177048D01*
X0275387Y0176021D01*
X0285060Y0176021D01*
X0286236Y0175534D01*
X0287560Y0174210D01*
X0287697Y0174210D01*
X0289127Y0173618D01*
X0290221Y0172524D01*
X0290813Y0171095D01*
X0290813Y0169548D01*
X0290221Y0168118D01*
X0289127Y0167024D01*
X0287697Y0166432D01*
X0286150Y0166432D01*
X0284721Y0167024D01*
X0283627Y0168118D01*
X0283035Y0169548D01*
X0283035Y0169621D01*
X0214223Y0169621D01*
X0214127Y0169524D01*
X0212797Y0168973D01*
X0214636Y0167134D01*
X0215124Y0165958D01*
X0215124Y0086647D01*
X0215749Y0086021D01*
X0234624Y0086021D01*
X0234721Y0086118D01*
X0236150Y0086710D01*
X0237697Y0086710D01*
X0239127Y0086118D01*
X0240221Y0085024D01*
X0240813Y0083595D01*
X0240813Y0082857D01*
X0241213Y0083023D01*
X0242760Y0083023D01*
X0244189Y0082431D01*
X0245283Y0081337D01*
X0245875Y0079907D01*
X0245875Y0078360D01*
X0245283Y0076931D01*
X0244189Y0075837D01*
X0242760Y0075245D01*
X0241213Y0075245D01*
X0239783Y0075837D01*
X0239749Y0075871D01*
X0213100Y0075871D01*
X0211923Y0076358D01*
X0211023Y0077259D01*
X0206298Y0081983D01*
X0205398Y0082884D01*
X0204911Y0084060D01*
X0204911Y0160908D01*
X0183198Y0182621D01*
X0180370Y0182621D01*
X0177324Y0185667D01*
X0177324Y0189975D01*
X0180170Y0192821D01*
X0177324Y0195667D01*
X0177324Y0199975D01*
X0178924Y0201575D01*
X0178924Y0211295D01*
X0177524Y0212695D01*
X0175979Y0211150D01*
X0173737Y0210221D01*
X0171310Y0210221D01*
X0169068Y0211150D01*
X0167524Y0212695D01*
X0165979Y0211150D01*
X0163737Y0210221D01*
X0161310Y0210221D01*
X0159068Y0211150D01*
X0157524Y0212695D01*
X0155979Y0211150D01*
X0153737Y0210221D01*
X0151310Y0210221D01*
X0149068Y0211150D01*
X0147524Y0212695D01*
X0145979Y0211150D01*
X0143737Y0210221D01*
X0141310Y0210221D01*
X0139068Y0211150D01*
X0137352Y0212866D01*
X0137156Y0213340D01*
X0136719Y0212738D01*
X0136107Y0212126D01*
X0135406Y0211617D01*
X0134635Y0211224D01*
X0133812Y0210957D01*
X0132956Y0210821D01*
X0132724Y0210821D01*
X0132724Y0216121D01*
X0132324Y0216121D01*
X0132324Y0210821D01*
X0132091Y0210821D01*
X0131236Y0210957D01*
X0130412Y0211224D01*
X0129641Y0211617D01*
X0128941Y0212126D01*
X0128328Y0212738D01*
X0127891Y0213340D01*
X0127695Y0212866D01*
X0125979Y0211150D01*
X0123737Y0210221D01*
X0121310Y0210221D01*
X0119068Y0211150D01*
X0117524Y0212695D01*
X0115979Y0211150D01*
X0113737Y0210221D01*
X0111310Y0210221D01*
X0109068Y0211150D01*
X0107524Y0212695D01*
X0105979Y0211150D01*
X0105887Y0211112D01*
X0106463Y0210873D01*
X0107476Y0209860D01*
X0129424Y0187912D01*
X0131372Y0189860D01*
X0132384Y0190873D01*
X0133708Y0191421D01*
X0158770Y0191421D01*
X0158924Y0191575D01*
X0158924Y0194067D01*
X0157324Y0195667D01*
X0157324Y0199975D01*
X0160370Y0203021D01*
X0164678Y0203021D01*
X0167724Y0199975D01*
X0167724Y0195667D01*
X0166124Y0194067D01*
X0166124Y0191575D01*
X0167724Y0189975D01*
X0167724Y0185667D01*
X0164678Y0182621D01*
X0160370Y0182621D01*
X0158770Y0184221D01*
X0135915Y0184221D01*
X0133024Y0181330D01*
X0133024Y0119312D01*
X0133429Y0118907D01*
X0134127Y0118618D01*
X0135221Y0117524D01*
X0135813Y0116095D01*
X0135813Y0114548D01*
X0135221Y0113118D01*
X0134127Y0112024D01*
X0133429Y0111735D01*
X0133024Y0111330D01*
X0133024Y0088312D01*
X0164678Y0056658D01*
X0170338Y0056658D01*
X0171220Y0056293D01*
X0171895Y0055618D01*
X0172261Y0054736D01*
X0172261Y0045907D01*
X0172018Y0045321D01*
X0172261Y0044736D01*
X0172261Y0043921D01*
X0175140Y0043921D01*
X0176463Y0043373D01*
X0177476Y0042360D01*
X0180576Y0039260D01*
X0181124Y0037937D01*
X0181124Y0031348D01*
X0182695Y0029777D01*
X0182891Y0029302D01*
X0183328Y0029904D01*
X0183941Y0030516D01*
X0184641Y0031025D01*
X0185412Y0031418D01*
X0186236Y0031686D01*
X0187091Y0031821D01*
X0187324Y0031821D01*
X0187324Y0026521D01*
X0187724Y0026521D01*
X0197324Y0026521D01*
X0197324Y0031821D01*
X0197091Y0031821D01*
X0196236Y0031686D01*
X0195412Y0031418D01*
X0194641Y0031025D01*
X0193941Y0030516D01*
X0193328Y0029904D01*
X0192820Y0029204D01*
X0192524Y0028623D01*
X0192228Y0029204D01*
X0191719Y0029904D01*
X0191107Y0030516D01*
X0190406Y0031025D01*
X0189635Y0031418D01*
X0188812Y0031686D01*
X0187956Y0031821D01*
X0187724Y0031821D01*
X0187724Y0026521D01*
X0187724Y0026121D01*
X0192024Y0026121D01*
X0197324Y0026121D01*
X0197724Y0026121D01*
X0197724Y0020821D01*
X0197956Y0020821D01*
X0198812Y0020957D01*
X0199635Y0021224D01*
X0200406Y0021617D01*
X0201107Y0022126D01*
X0201719Y0022738D01*
X0202156Y0023340D01*
X0202352Y0022866D01*
X0204068Y0021150D01*
X0206310Y0020221D01*
X0208737Y0020221D01*
X0210979Y0021150D01*
X0212695Y0022866D01*
X0213624Y0025108D01*
X0213624Y0027535D01*
X0212695Y0029777D01*
X0210979Y0031493D01*
X0208737Y0032421D01*
X0206310Y0032421D01*
X0204068Y0031493D01*
X0202352Y0029777D01*
X0202156Y0029302D01*
X0201719Y0029904D01*
X0201107Y0030516D01*
X0200406Y0031025D01*
X0199635Y0031418D01*
X0198812Y0031686D01*
X0197956Y0031821D01*
X0197724Y0031821D01*
X0197724Y0026521D01*
X0197324Y0026521D01*
X0197324Y0026121D01*
X0197324Y0020821D01*
X0197091Y0020821D01*
X0196236Y0020957D01*
X0195412Y0021224D01*
X0194641Y0021617D01*
X0193941Y0022126D01*
X0193328Y0022738D01*
X0192820Y0023439D01*
X0192524Y0024019D01*
X0192228Y0023439D01*
X0191719Y0022738D01*
X0191107Y0022126D01*
X0190406Y0021617D01*
X0189635Y0021224D01*
X0188812Y0020957D01*
X0187956Y0020821D01*
X0187724Y0020821D01*
X0187724Y0026121D01*
X0187324Y0026121D01*
X0187324Y0020821D01*
X0187091Y0020821D01*
X0186236Y0020957D01*
X0185412Y0021224D01*
X0184641Y0021617D01*
X0183941Y0022126D01*
X0183328Y0022738D01*
X0182891Y0023340D01*
X0182695Y0022866D01*
X0180979Y0021150D01*
X0178737Y0020221D01*
X0176310Y0020221D01*
X0174068Y0021150D01*
X0172524Y0022695D01*
X0170979Y0021150D01*
X0168737Y0020221D01*
X0166310Y0020221D01*
X0164068Y0021150D01*
X0162524Y0022695D01*
X0160979Y0021150D01*
X0158737Y0020221D01*
X0156310Y0020221D01*
X0154068Y0021150D01*
X0152524Y0022695D01*
X0150979Y0021150D01*
X0148737Y0020221D01*
X0146310Y0020221D01*
X0144068Y0021150D01*
X0142524Y0022695D01*
X0140979Y0021150D01*
X0138737Y0020221D01*
X0136310Y0020221D01*
X0134068Y0021150D01*
X0132352Y0022866D01*
X0131424Y0025108D01*
X0131424Y0027535D01*
X0132352Y0029777D01*
X0134068Y0031493D01*
X0136310Y0032421D01*
X0138737Y0032421D01*
X0140979Y0031493D01*
X0142524Y0029948D01*
X0144068Y0031493D01*
X0146310Y0032421D01*
X0148737Y0032421D01*
X0150979Y0031493D01*
X0152524Y0029948D01*
X0154068Y0031493D01*
X0156310Y0032421D01*
X0158737Y0032421D01*
X0160979Y0031493D01*
X0162524Y0029948D01*
X0164068Y0031493D01*
X0166310Y0032421D01*
X0168737Y0032421D01*
X0170979Y0031493D01*
X0172524Y0029948D01*
X0173924Y0031348D01*
X0173924Y0035730D01*
X0172932Y0036721D01*
X0172261Y0036721D01*
X0172261Y0035907D01*
X0171895Y0035025D01*
X0171220Y0034350D01*
X0170338Y0033984D01*
X0161509Y0033984D01*
X0160627Y0034350D01*
X0159952Y0035025D01*
X0159587Y0035907D01*
X0159587Y0044736D01*
X0159829Y0045321D01*
X0159587Y0045907D01*
X0159587Y0051567D01*
X0127384Y0083769D01*
X0126372Y0084782D01*
X0125824Y0086105D01*
X0125824Y0113537D01*
X0126372Y0114860D01*
X0126832Y0115321D01*
X0126372Y0115782D01*
X0125824Y0117105D01*
X0125824Y0181330D01*
X0102932Y0204221D01*
X0090915Y0204221D01*
X0088024Y0201330D01*
X0088024Y0154312D01*
X0088815Y0153521D01*
X0103140Y0153521D01*
X0104540Y0154921D01*
X0102882Y0156579D01*
X0101984Y0158748D01*
X0101984Y0161095D01*
X0102882Y0163263D01*
X0104540Y0164921D01*
X0102882Y0166579D01*
X0101984Y0168748D01*
X0101984Y0171095D01*
X0102882Y0173263D01*
X0104540Y0174921D01*
X0102882Y0176579D01*
X0101984Y0178748D01*
X0101984Y0181095D01*
X0102882Y0183263D01*
X0104542Y0184923D01*
X0106710Y0185821D01*
X0109057Y0185821D01*
X0111226Y0184923D01*
X0112885Y0183263D01*
X0113784Y0181095D01*
X0113784Y0178748D01*
X0112885Y0176579D01*
X0111227Y0174921D01*
X0112885Y0173263D01*
X0112944Y0173121D01*
X0112960Y0173121D01*
X0114136Y0172634D01*
X0115036Y0171734D01*
X0117136Y0169634D01*
X0117624Y0168458D01*
X0117624Y0155121D01*
X0117721Y0155024D01*
X0118313Y0153595D01*
X0118313Y0152048D01*
X0117721Y0150618D01*
X0116627Y0149524D01*
X0115197Y0148932D01*
X0113784Y0148932D01*
X0113784Y0148748D01*
X0112885Y0146579D01*
X0111227Y0144921D01*
X0112885Y0143263D01*
X0113784Y0141095D01*
X0113784Y0138748D01*
X0112885Y0136579D01*
X0111226Y0134919D01*
X0110411Y0134582D01*
X0110661Y0134454D01*
X0111336Y0133964D01*
X0111926Y0133374D01*
X0112417Y0132699D01*
X0112795Y0131956D01*
X0113053Y0131162D01*
X0113184Y0130338D01*
X0113184Y0129921D01*
X0107884Y0129921D01*
X0107884Y0129921D01*
X0107884Y0124621D01*
X0108301Y0124621D01*
X0109125Y0124752D01*
X0109918Y0125009D01*
X0110661Y0125388D01*
X0111336Y0125879D01*
X0111926Y0126468D01*
X0112417Y0127143D01*
X0112795Y0127887D01*
X0113053Y0128680D01*
X0113184Y0129504D01*
X0113184Y0129921D01*
X0107884Y0129921D01*
X0107884Y0129921D01*
X0107884Y0124621D01*
X0107466Y0124621D01*
X0106643Y0124752D01*
X0105849Y0125009D01*
X0105106Y0125388D01*
X0104431Y0125879D01*
X0103841Y0126468D01*
X0103351Y0127143D01*
X0102972Y0127887D01*
X0102714Y0128680D01*
X0102584Y0129504D01*
X0102584Y0129921D01*
X0107883Y0129921D01*
X0107883Y0129921D01*
X0102584Y0129921D01*
X0102584Y0130338D01*
X0102714Y0131162D01*
X0102972Y0131956D01*
X0103351Y0132699D01*
X0103841Y0133374D01*
X0104431Y0133964D01*
X0105106Y0134454D01*
X0105356Y0134582D01*
X0104542Y0134919D01*
X0102882Y0136579D01*
X0101984Y0138748D01*
X0101984Y0141095D01*
X0102882Y0143263D01*
X0104540Y0144921D01*
X0103140Y0146321D01*
X0086608Y0146321D01*
X0085284Y0146869D01*
X0084272Y0147882D01*
X0081372Y0150782D01*
X0080824Y0152105D01*
X0080824Y0203537D01*
X0081372Y0204860D01*
X0082384Y0205873D01*
X0084332Y0207821D01*
X0082384Y0209769D01*
X0081372Y0210782D01*
X0080824Y0212105D01*
X0080824Y0243537D01*
X0081372Y0244860D01*
X0085565Y0249053D01*
X0086577Y0250066D01*
X0087900Y0250614D01*
X0097633Y0250614D01*
X0099034Y0252016D01*
X0101203Y0252914D01*
X0103550Y0252914D01*
X0105718Y0252016D01*
X0107376Y0250358D01*
X0109034Y0252016D01*
X0111203Y0252914D01*
X0113550Y0252914D01*
X0115718Y0252016D01*
X0117378Y0250356D01*
X0117716Y0249541D01*
X0117843Y0249792D01*
X0118334Y0250467D01*
X0118924Y0251057D01*
X0119599Y0251547D01*
X0120342Y0251926D01*
X0121135Y0252184D01*
X0121959Y0252314D01*
X0122192Y0252314D01*
X0122192Y0247198D01*
X0122561Y0247198D01*
X0126476Y0247198D01*
X0126476Y0246830D01*
X0122561Y0246830D01*
X0122561Y0247198D01*
X0122561Y0252314D01*
X0122793Y0252314D01*
X0123617Y0252184D01*
X0123970Y0252069D01*
X0123410Y0253423D01*
X0123410Y0254970D01*
X0124002Y0256399D01*
X0125096Y0257493D01*
X0126525Y0258085D01*
X0128072Y0258085D01*
X0129502Y0257493D01*
X0129598Y0257396D01*
X0141185Y0257396D01*
X0142361Y0256909D01*
X0143261Y0256009D01*
X0143261Y0256009D01*
X0144189Y0255081D01*
X0144189Y0255081D01*
X0145089Y0254181D01*
X0145576Y0253005D01*
X0145576Y0252075D01*
X0145718Y0252016D01*
X0147376Y0250358D01*
X0149034Y0252016D01*
X0151203Y0252914D01*
X0153550Y0252914D01*
X0155718Y0252016D01*
X0157376Y0250358D01*
X0159034Y0252016D01*
X0161203Y0252914D01*
X0163550Y0252914D01*
X0165718Y0252016D01*
X0167376Y0250358D01*
X0169034Y0252016D01*
X0171203Y0252914D01*
X0173550Y0252914D01*
X0175718Y0252016D01*
X0177376Y0250358D01*
X0179034Y0252016D01*
X0181203Y0252914D01*
X0183550Y0252914D01*
X0185718Y0252016D01*
X0187376Y0250358D01*
X0189034Y0252016D01*
X0191203Y0252914D01*
X0193550Y0252914D01*
X0195718Y0252016D01*
X0197376Y0250358D01*
X0199034Y0252016D01*
X0201203Y0252914D01*
X0203550Y0252914D01*
X0205718Y0252016D01*
X0207376Y0250358D01*
X0209034Y0252016D01*
X0211203Y0252914D01*
X0213550Y0252914D01*
X0215718Y0252016D01*
X0217376Y0250358D01*
X0219034Y0252016D01*
X0221203Y0252914D01*
X0223550Y0252914D01*
X0225718Y0252016D01*
X0227376Y0250358D01*
X0229034Y0252016D01*
X0231203Y0252914D01*
X0233550Y0252914D01*
X0235718Y0252016D01*
X0237376Y0250358D01*
X0239034Y0252016D01*
X0241203Y0252914D01*
X0243550Y0252914D01*
X0245718Y0252016D01*
X0247376Y0250358D01*
X0249034Y0252016D01*
X0251203Y0252914D01*
X0253550Y0252914D01*
X0255718Y0252016D01*
X0257376Y0250358D01*
X0259034Y0252016D01*
X0261203Y0252914D01*
X0263550Y0252914D01*
X0265718Y0252016D01*
X0267376Y0250358D01*
X0269034Y0252016D01*
X0271203Y0252914D01*
X0273550Y0252914D01*
X0275718Y0252016D01*
X0277376Y0250358D01*
X0279034Y0252016D01*
X0281203Y0252914D01*
X0283550Y0252914D01*
X0285718Y0252016D01*
X0287376Y0250358D01*
X0289034Y0252016D01*
X0291203Y0252914D01*
X0293550Y0252914D01*
X0295718Y0252016D01*
X0297378Y0250356D01*
X0298276Y0248188D01*
X0298276Y0245841D01*
X0297378Y0243672D01*
X0295720Y0242014D01*
X0297378Y0240356D01*
X0298276Y0238188D01*
X0298276Y0235841D01*
X0297378Y0233672D01*
X0295718Y0232012D01*
X0293550Y0231114D01*
X0291203Y0231114D01*
X0289034Y0232012D01*
X0287376Y0233670D01*
X0285718Y0232012D01*
X0283550Y0231114D01*
X0281203Y0231114D01*
X0279034Y0232012D01*
X0277376Y0233670D01*
X0275718Y0232012D01*
X0273550Y0231114D01*
X0271203Y0231114D01*
X0269034Y0232012D01*
X0267376Y0233670D01*
X0265718Y0232012D01*
X0263550Y0231114D01*
X0261203Y0231114D01*
X0259034Y0232012D01*
X0257376Y0233670D01*
X0255718Y0232012D01*
X0253550Y0231114D01*
X0251203Y0231114D01*
X0249034Y0232012D01*
X0247376Y0233670D01*
X0245718Y0232012D01*
X0243550Y0231114D01*
X0241203Y0231114D01*
X0239034Y0232012D01*
X0237376Y0233670D01*
X0235718Y0232012D01*
X0233550Y0231114D01*
X0231203Y0231114D01*
X0229034Y0232012D01*
X0227376Y0233670D01*
X0225718Y0232012D01*
X0223550Y0231114D01*
X0221203Y0231114D01*
X0219034Y0232012D01*
X0217376Y0233670D01*
X0215718Y0232012D01*
X0213550Y0231114D01*
X0211203Y0231114D01*
X0209034Y0232012D01*
X0207376Y0233670D01*
X0205718Y0232012D01*
X0203550Y0231114D01*
X0201203Y0231114D01*
X0199034Y0232012D01*
X0197376Y0233670D01*
X0195718Y0232012D01*
X0193550Y0231114D01*
X0191203Y0231114D01*
X0189034Y0232012D01*
X0187376Y0233670D01*
X0185718Y0232012D01*
X0183550Y0231114D01*
X0181203Y0231114D01*
X0179034Y0232012D01*
X0177376Y0233670D01*
X0175718Y0232012D01*
X0173550Y0231114D01*
X0171203Y0231114D01*
X0169034Y0232012D01*
X0167376Y0233670D01*
X0165718Y0232012D01*
X0163550Y0231114D01*
X0161203Y0231114D01*
X0159034Y0232012D01*
X0157376Y0233670D01*
X0155718Y0232012D01*
X0153550Y0231114D01*
X0151203Y0231114D01*
X0149034Y0232012D01*
X0147376Y0233670D01*
X0145718Y0232012D01*
X0143550Y0231114D01*
X0141203Y0231114D01*
X0139034Y0232012D01*
X0137376Y0233670D01*
X0135718Y0232012D01*
X0133550Y0231114D01*
X0131203Y0231114D01*
X0129034Y0232012D01*
X0127376Y0233670D01*
X0125718Y0232012D01*
X0123550Y0231114D01*
X0121203Y0231114D01*
X0119034Y0232012D01*
X0117376Y0233670D01*
X0115718Y0232012D01*
X0113550Y0231114D01*
X0111203Y0231114D01*
X0109034Y0232012D01*
X0108198Y0232848D01*
X0107911Y0232155D01*
X0107236Y0231479D01*
X0106354Y0231114D01*
X0098399Y0231114D01*
X0097517Y0231479D01*
X0096842Y0232155D01*
X0096697Y0232504D01*
X0095586Y0231393D01*
X0095586Y0221855D01*
X0095875Y0221157D01*
X0095875Y0219610D01*
X0095283Y0218181D01*
X0094189Y0217087D01*
X0092760Y0216495D01*
X0091213Y0216495D01*
X0089783Y0217087D01*
X0088689Y0218181D01*
X0088097Y0219610D01*
X0088097Y0221157D01*
X0088386Y0221855D01*
X0088386Y0233600D01*
X0088934Y0234923D01*
X0094077Y0240066D01*
X0095400Y0240614D01*
X0096476Y0240614D01*
X0096476Y0240991D01*
X0096842Y0241874D01*
X0097517Y0242549D01*
X0098211Y0242836D01*
X0097633Y0243414D01*
X0090108Y0243414D01*
X0088024Y0241330D01*
X0088024Y0214312D01*
X0090915Y0211421D01*
X0098797Y0211421D01*
X0097352Y0212866D01*
X0096424Y0215108D01*
X0096424Y0217535D01*
X0097352Y0219777D01*
X0099068Y0221493D01*
X0101310Y0222421D01*
X0103737Y0222421D01*
X0105979Y0221493D01*
X0107524Y0219948D01*
X0109068Y0221493D01*
X0111310Y0222421D01*
X0113737Y0222421D01*
X0115979Y0221493D01*
X0117524Y0219948D01*
X0119068Y0221493D01*
X0121310Y0222421D01*
X0123737Y0222421D01*
X0125979Y0221493D01*
X0127695Y0219777D01*
X0127891Y0219302D01*
X0128328Y0219904D01*
X0128941Y0220516D01*
X0129641Y0221025D01*
X0130412Y0221418D01*
X0131236Y0221686D01*
X0132091Y0221821D01*
X0132324Y0221821D01*
X0132324Y0216521D01*
X0132724Y0216521D01*
X0132724Y0221821D01*
X0132956Y0221821D01*
X0133812Y0221686D01*
X0134635Y0221418D01*
X0135406Y0221025D01*
X0136107Y0220516D01*
X0136719Y0219904D01*
X0137156Y0219302D01*
X0137352Y0219777D01*
X0139068Y0221493D01*
X0141310Y0222421D01*
X0143737Y0222421D01*
X0145979Y0221493D01*
X0147524Y0219948D01*
X0149068Y0221493D01*
X0151310Y0222421D01*
X0153737Y0222421D01*
X0155979Y0221493D01*
X0157524Y0219948D01*
X0159068Y0221493D01*
X0161310Y0222421D01*
X0163737Y0222421D01*
X0165979Y0221493D01*
X0167524Y0219948D01*
X0169068Y0221493D01*
X0171310Y0222421D01*
X0173737Y0222421D01*
X0175979Y0221493D01*
X0177524Y0219948D01*
X0179068Y0221493D01*
X0181310Y0222421D01*
X0183737Y0222421D01*
X0185979Y0221493D01*
X0187524Y0219948D01*
X0189068Y0221493D01*
X0191310Y0222421D01*
X0193737Y0222421D01*
X0195979Y0221493D01*
X0197695Y0219777D01*
X0198624Y0217535D01*
X0198624Y0215108D01*
X0197695Y0212866D01*
X0196524Y0211695D01*
X0196524Y0201175D01*
X0197724Y0199975D01*
X0197724Y0195667D01*
X0194878Y0192821D01*
X0197724Y0189975D01*
X0197724Y0185667D01*
X0196913Y0184857D01*
X0208076Y0173694D01*
X0208627Y0175024D01*
X0209721Y0176118D01*
X0211150Y0176710D01*
X0212697Y0176710D01*
X0214127Y0176118D01*
X0214223Y0176021D01*
X0225560Y0176021D01*
X0225336Y0176057D01*
X0224512Y0176324D01*
X0223741Y0176717D01*
X0223041Y0177226D01*
X0222428Y0177838D01*
X0221920Y0178539D01*
X0221527Y0179310D01*
X0221259Y0180133D01*
X0221124Y0180988D01*
X0221124Y0181221D01*
X0226424Y0181221D01*
X0226424Y0181621D01*
X0226424Y0186921D01*
X0226191Y0186921D01*
X0225336Y0186786D01*
X0224512Y0186518D01*
X0223741Y0186125D01*
X0223041Y0185616D01*
X0222428Y0185004D01*
X0221920Y0184304D01*
X0221527Y0183532D01*
X0221259Y0182709D01*
X0221124Y0181854D01*
X0221124Y0181621D01*
X0226424Y0181621D01*
X0226824Y0181621D01*
X0232124Y0181621D01*
X0232124Y0181854D01*
X0231988Y0182709D01*
X0231721Y0183532D01*
X0231328Y0184304D01*
X0230819Y0185004D01*
X0230207Y0185616D01*
X0229506Y0186125D01*
X0228735Y0186518D01*
X0227912Y0186786D01*
X0227056Y0186921D01*
X0226824Y0186921D01*
X0226824Y0181621D01*
X0226824Y0181221D01*
X0232124Y0181221D01*
X0232124Y0180988D01*
X0231988Y0180133D01*
X0231721Y0179310D01*
X0231328Y0178539D01*
X0230819Y0177838D01*
X0230207Y0177226D01*
X0229506Y0176717D01*
X0228735Y0176324D01*
X0227912Y0176057D01*
X0227688Y0176021D01*
X0251160Y0176021D01*
X0250936Y0176057D01*
X0250112Y0176324D01*
X0249341Y0176717D01*
X0248641Y0177226D01*
X0248028Y0177838D01*
X0247520Y0178539D01*
X0247127Y0179310D01*
X0246859Y0180133D01*
X0246724Y0180988D01*
X0246724Y0181221D01*
X0252024Y0181221D01*
X0252024Y0181621D01*
X0252024Y0186921D01*
X0251791Y0186921D01*
X0250936Y0186786D01*
X0250112Y0186518D01*
X0249341Y0186125D01*
X0248641Y0185616D01*
X0248028Y0185004D01*
X0247520Y0184304D01*
X0247127Y0183532D01*
X0246859Y0182709D01*
X0246724Y0181854D01*
X0246724Y0181621D01*
X0252024Y0181621D01*
X0252424Y0181621D01*
X0257724Y0181621D01*
X0257724Y0181854D01*
X0257588Y0182709D01*
X0257321Y0183532D01*
X0256928Y0184304D01*
X0256419Y0185004D01*
X0255807Y0185616D01*
X0255106Y0186125D01*
X0254335Y0186518D01*
X0253512Y0186786D01*
X0252656Y0186921D01*
X0252424Y0186921D01*
X0252424Y0181621D01*
X0252424Y0181221D01*
X0257724Y0181221D01*
X0257724Y0180988D01*
X0257588Y0180133D01*
X0257321Y0179310D01*
X0256928Y0178539D01*
X0256419Y0177838D01*
X0255807Y0177226D01*
X0255106Y0176717D01*
X0254335Y0176324D01*
X0253512Y0176057D01*
X0253288Y0176021D01*
X0268460Y0176021D01*
X0268035Y0177048D01*
X0268035Y0177185D01*
X0252098Y0193121D01*
X0251010Y0193121D01*
X0248768Y0194050D01*
X0247052Y0195766D01*
X0246124Y0198008D01*
X0246124Y0200435D01*
X0247052Y0202677D01*
X0248768Y0204393D01*
X0249320Y0204621D01*
X0238787Y0204621D01*
X0237611Y0205108D01*
X0236711Y0206009D01*
X0234811Y0207909D01*
X0234324Y0209085D01*
X0234324Y0211044D01*
X0234068Y0211150D01*
X0232524Y0212695D01*
X0230979Y0211150D01*
X0228737Y0210221D01*
X0226310Y0210221D01*
X0224068Y0211150D01*
X0222524Y0212695D01*
X0220979Y0211150D01*
X0218737Y0210221D01*
X0216310Y0210221D01*
X0214068Y0211150D01*
X0212524Y0212695D01*
X0210979Y0211150D01*
X0208737Y0210221D01*
X0206310Y0210221D01*
X0204068Y0211150D01*
X0202352Y0212866D01*
X0201424Y0215108D01*
X0201424Y0217535D01*
X0202352Y0219777D01*
X0204068Y0221493D01*
X0206310Y0222421D01*
X0208737Y0222421D01*
X0210979Y0221493D01*
X0212524Y0219948D01*
X0214068Y0221493D01*
X0216310Y0222421D01*
X0218737Y0222421D01*
X0220979Y0221493D01*
X0222524Y0219948D01*
X0224068Y0221493D01*
X0226310Y0222421D01*
X0228737Y0222421D01*
X0230979Y0221493D01*
X0232524Y0219948D01*
X0234068Y0221493D01*
X0236310Y0222421D01*
X0238737Y0222421D01*
X0240979Y0221493D01*
X0242524Y0219948D01*
X0244068Y0221493D01*
X0246310Y0222421D01*
X0248737Y0222421D01*
X0250979Y0221493D01*
X0252524Y0219948D01*
X0254068Y0221493D01*
X0256310Y0222421D01*
X0258737Y0222421D01*
X0260979Y0221493D01*
X0262524Y0219948D01*
X0264068Y0221493D01*
X0266310Y0222421D01*
X0268737Y0222421D01*
X0270979Y0221493D01*
X0272524Y0219948D01*
X0274068Y0221493D01*
X0276310Y0222421D01*
X0278737Y0222421D01*
X0280979Y0221493D01*
X0282695Y0219777D01*
X0283624Y0217535D01*
X0283624Y0215108D01*
X0282695Y0212866D01*
X0280979Y0211150D01*
X0280668Y0211021D01*
X0290060Y0211021D01*
X0291236Y0210534D01*
X0297549Y0204222D01*
X0298449Y0203321D01*
X0298936Y0202145D01*
X0298936Y0163154D01*
X0303649Y0163154D01*
X0303649Y0259300D01*
X0298649Y0264300D01*
X0028649Y0264300D01*
X0023649Y0259300D01*
X0024206Y0259857D02*
X0303092Y0259857D01*
X0303649Y0258259D02*
X0023649Y0258259D01*
X0023649Y0256660D02*
X0124263Y0256660D01*
X0123448Y0255062D02*
X0023649Y0255062D01*
X0023649Y0253463D02*
X0123410Y0253463D01*
X0122561Y0251865D02*
X0122192Y0251865D01*
X0122192Y0250266D02*
X0122561Y0250266D01*
X0122561Y0248668D02*
X0122192Y0248668D01*
X0122561Y0247069D02*
X0126476Y0247069D01*
X0127037Y0244487D02*
X0127375Y0243672D01*
X0129033Y0242014D01*
X0127376Y0240358D01*
X0125718Y0242016D01*
X0124904Y0242353D01*
X0125154Y0242481D01*
X0125829Y0242971D01*
X0126419Y0243561D01*
X0126909Y0244236D01*
X0127037Y0244487D01*
X0127292Y0243872D02*
X0126645Y0243872D01*
X0125096Y0242274D02*
X0128773Y0242274D01*
X0127694Y0240675D02*
X0127059Y0240675D01*
X0126389Y0232683D02*
X0128364Y0232683D01*
X0136389Y0232683D02*
X0138364Y0232683D01*
X0146389Y0232683D02*
X0148364Y0232683D01*
X0156389Y0232683D02*
X0158364Y0232683D01*
X0166389Y0232683D02*
X0168364Y0232683D01*
X0176389Y0232683D02*
X0178364Y0232683D01*
X0186389Y0232683D02*
X0188364Y0232683D01*
X0196389Y0232683D02*
X0198364Y0232683D01*
X0206389Y0232683D02*
X0208364Y0232683D01*
X0216389Y0232683D02*
X0218364Y0232683D01*
X0226389Y0232683D02*
X0228364Y0232683D01*
X0236389Y0232683D02*
X0238364Y0232683D01*
X0246389Y0232683D02*
X0248364Y0232683D01*
X0256389Y0232683D02*
X0258364Y0232683D01*
X0266389Y0232683D02*
X0268364Y0232683D01*
X0276389Y0232683D02*
X0278364Y0232683D01*
X0286389Y0232683D02*
X0288364Y0232683D01*
X0296389Y0232683D02*
X0303649Y0232683D01*
X0303649Y0234281D02*
X0297630Y0234281D01*
X0298276Y0235880D02*
X0303649Y0235880D01*
X0303649Y0237478D02*
X0298276Y0237478D01*
X0297908Y0239077D02*
X0303649Y0239077D01*
X0303649Y0240675D02*
X0297059Y0240675D01*
X0295980Y0242274D02*
X0303649Y0242274D01*
X0303649Y0243872D02*
X0297461Y0243872D01*
X0298123Y0245471D02*
X0303649Y0245471D01*
X0303649Y0247069D02*
X0298276Y0247069D01*
X0298078Y0248668D02*
X0303649Y0248668D01*
X0303649Y0250266D02*
X0297415Y0250266D01*
X0295870Y0251865D02*
X0303649Y0251865D01*
X0303649Y0253463D02*
X0145387Y0253463D01*
X0145870Y0251865D02*
X0148883Y0251865D01*
X0144208Y0255062D02*
X0303649Y0255062D01*
X0303649Y0256660D02*
X0142610Y0256660D01*
X0140549Y0254196D02*
X0142376Y0252368D01*
X0142376Y0247014D01*
X0140549Y0254196D02*
X0127299Y0254196D01*
X0120222Y0251865D02*
X0115870Y0251865D01*
X0117415Y0250266D02*
X0118188Y0250266D01*
X0108883Y0251865D02*
X0105870Y0251865D01*
X0098883Y0251865D02*
X0023649Y0251865D01*
X0023649Y0250266D02*
X0087061Y0250266D01*
X0085179Y0248668D02*
X0023649Y0248668D01*
X0023649Y0247069D02*
X0083581Y0247069D01*
X0081982Y0245471D02*
X0023649Y0245471D01*
X0023649Y0243872D02*
X0080962Y0243872D01*
X0080824Y0242274D02*
X0023649Y0242274D01*
X0023649Y0240675D02*
X0080824Y0240675D01*
X0080824Y0239077D02*
X0023649Y0239077D01*
X0023649Y0237478D02*
X0080824Y0237478D01*
X0080824Y0235880D02*
X0023649Y0235880D01*
X0023649Y0234281D02*
X0080824Y0234281D01*
X0080824Y0232683D02*
X0023649Y0232683D01*
X0023649Y0231084D02*
X0080824Y0231084D01*
X0080824Y0229486D02*
X0023649Y0229486D01*
X0023649Y0227887D02*
X0080824Y0227887D01*
X0080824Y0226289D02*
X0023649Y0226289D01*
X0023649Y0224690D02*
X0080824Y0224690D01*
X0080824Y0223092D02*
X0023649Y0223092D01*
X0023649Y0221493D02*
X0080824Y0221493D01*
X0080824Y0219895D02*
X0023649Y0219895D01*
X0023649Y0218296D02*
X0080824Y0218296D01*
X0080824Y0216698D02*
X0023649Y0216698D01*
X0023649Y0215099D02*
X0080824Y0215099D01*
X0080824Y0213501D02*
X0023649Y0213501D01*
X0023649Y0211902D02*
X0080908Y0211902D01*
X0081850Y0210303D02*
X0023649Y0210303D01*
X0023649Y0208705D02*
X0083449Y0208705D01*
X0083618Y0207106D02*
X0023649Y0207106D01*
X0023649Y0205508D02*
X0082019Y0205508D01*
X0080978Y0203909D02*
X0023649Y0203909D01*
X0023649Y0202311D02*
X0080824Y0202311D01*
X0080824Y0200712D02*
X0023649Y0200712D01*
X0023649Y0199114D02*
X0080824Y0199114D01*
X0080824Y0197515D02*
X0023649Y0197515D01*
X0023649Y0195917D02*
X0080824Y0195917D01*
X0080824Y0194318D02*
X0023649Y0194318D01*
X0023649Y0192720D02*
X0080824Y0192720D01*
X0080824Y0191121D02*
X0023649Y0191121D01*
X0023649Y0189523D02*
X0080824Y0189523D01*
X0080824Y0187924D02*
X0023649Y0187924D01*
X0023649Y0186326D02*
X0080824Y0186326D01*
X0080824Y0184727D02*
X0023649Y0184727D01*
X0023649Y0183129D02*
X0080824Y0183129D01*
X0080824Y0181530D02*
X0023649Y0181530D01*
X0023649Y0179932D02*
X0080824Y0179932D01*
X0080824Y0178333D02*
X0023649Y0178333D01*
X0023649Y0176735D02*
X0080824Y0176735D01*
X0080824Y0175136D02*
X0023649Y0175136D01*
X0023649Y0173538D02*
X0080824Y0173538D01*
X0080824Y0171939D02*
X0023649Y0171939D01*
X0023649Y0170341D02*
X0080824Y0170341D01*
X0080824Y0168742D02*
X0023649Y0168742D01*
X0023649Y0167144D02*
X0080824Y0167144D01*
X0080824Y0165545D02*
X0023649Y0165545D01*
X0023649Y0163947D02*
X0080824Y0163947D01*
X0080824Y0162348D02*
X0023649Y0162348D01*
X0023649Y0160750D02*
X0080824Y0160750D01*
X0080824Y0159151D02*
X0023649Y0159151D01*
X0023649Y0157553D02*
X0080824Y0157553D01*
X0080824Y0155954D02*
X0023649Y0155954D01*
X0023649Y0154356D02*
X0080824Y0154356D01*
X0080824Y0152757D02*
X0023649Y0152757D01*
X0023649Y0151159D02*
X0081216Y0151159D01*
X0082594Y0149560D02*
X0023649Y0149560D01*
X0023649Y0147962D02*
X0084192Y0147962D01*
X0086507Y0146363D02*
X0023649Y0146363D01*
X0023649Y0144765D02*
X0104383Y0144765D01*
X0102842Y0143166D02*
X0023649Y0143166D01*
X0023649Y0141568D02*
X0102179Y0141568D01*
X0101984Y0139969D02*
X0023649Y0139969D01*
X0023649Y0138370D02*
X0102140Y0138370D01*
X0102802Y0136772D02*
X0023649Y0136772D01*
X0023649Y0135173D02*
X0104287Y0135173D01*
X0104042Y0133575D02*
X0023649Y0133575D01*
X0023649Y0131976D02*
X0102983Y0131976D01*
X0102590Y0130378D02*
X0023649Y0130378D01*
X0023649Y0128779D02*
X0102698Y0128779D01*
X0103332Y0127181D02*
X0023649Y0127181D01*
X0023649Y0125582D02*
X0104839Y0125582D01*
X0107884Y0125582D02*
X0107884Y0125582D01*
X0107884Y0127181D02*
X0107884Y0127181D01*
X0107884Y0128779D02*
X0107884Y0128779D01*
X0110929Y0125582D02*
X0125824Y0125582D01*
X0125824Y0123984D02*
X0023649Y0123984D01*
X0023649Y0122385D02*
X0125824Y0122385D01*
X0125824Y0120787D02*
X0023649Y0120787D01*
X0023649Y0119188D02*
X0125824Y0119188D01*
X0125824Y0117590D02*
X0023649Y0117590D01*
X0023649Y0115991D02*
X0126285Y0115991D01*
X0126178Y0114393D02*
X0023649Y0114393D01*
X0023649Y0112794D02*
X0125824Y0112794D01*
X0125824Y0111196D02*
X0023649Y0111196D01*
X0023649Y0109597D02*
X0125824Y0109597D01*
X0125824Y0107999D02*
X0023649Y0107999D01*
X0023649Y0106400D02*
X0125824Y0106400D01*
X0125824Y0104802D02*
X0023649Y0104802D01*
X0023649Y0103203D02*
X0125824Y0103203D01*
X0125824Y0101605D02*
X0023649Y0101605D01*
X0023649Y0100006D02*
X0125824Y0100006D01*
X0125824Y0098408D02*
X0023649Y0098408D01*
X0023649Y0096809D02*
X0089340Y0096809D01*
X0089186Y0096697D02*
X0089917Y0097228D01*
X0090721Y0097638D01*
X0091580Y0097917D01*
X0092472Y0098058D01*
X0092542Y0098058D01*
X0092542Y0092702D01*
X0092542Y0091940D01*
X0087187Y0091940D01*
X0087187Y0091870D01*
X0087328Y0090978D01*
X0087607Y0090119D01*
X0088017Y0089314D01*
X0088548Y0088584D01*
X0089186Y0087945D01*
X0089917Y0087414D01*
X0090100Y0087321D01*
X0089917Y0087228D01*
X0089186Y0086697D01*
X0088548Y0086059D01*
X0088017Y0085328D01*
X0087607Y0084523D01*
X0087328Y0083665D01*
X0087187Y0082773D01*
X0087187Y0082702D01*
X0092542Y0082702D01*
X0092542Y0081940D01*
X0087187Y0081940D01*
X0087187Y0081870D01*
X0087328Y0080978D01*
X0087607Y0080119D01*
X0088017Y0079314D01*
X0088548Y0078584D01*
X0089186Y0077945D01*
X0089917Y0077414D01*
X0090721Y0077005D01*
X0091580Y0076725D01*
X0092472Y0076584D01*
X0092542Y0076584D01*
X0092542Y0081940D01*
X0093305Y0081940D01*
X0093305Y0082702D01*
X0098661Y0082702D01*
X0098661Y0082773D01*
X0098519Y0083665D01*
X0098240Y0084523D01*
X0097830Y0085328D01*
X0097300Y0086059D01*
X0096661Y0086697D01*
X0095930Y0087228D01*
X0095747Y0087321D01*
X0095930Y0087414D01*
X0096661Y0087945D01*
X0097300Y0088584D01*
X0097830Y0089314D01*
X0098240Y0090119D01*
X0098519Y0090978D01*
X0098661Y0091870D01*
X0098661Y0091940D01*
X0093305Y0091940D01*
X0093305Y0092702D01*
X0098661Y0092702D01*
X0098661Y0092773D01*
X0098519Y0093665D01*
X0098240Y0094523D01*
X0097830Y0095328D01*
X0097300Y0096059D01*
X0096661Y0096697D01*
X0095930Y0097228D01*
X0095126Y0097638D01*
X0094267Y0097917D01*
X0093375Y0098058D01*
X0093305Y0098058D01*
X0093305Y0092702D01*
X0092542Y0092702D01*
X0087187Y0092702D01*
X0087187Y0092773D01*
X0087328Y0093665D01*
X0087607Y0094523D01*
X0088017Y0095328D01*
X0088548Y0096059D01*
X0089186Y0096697D01*
X0087957Y0095211D02*
X0023649Y0095211D01*
X0023649Y0093612D02*
X0087320Y0093612D01*
X0087511Y0090415D02*
X0023649Y0090415D01*
X0023649Y0088817D02*
X0088378Y0088817D01*
X0089903Y0087218D02*
X0023649Y0087218D01*
X0023649Y0085620D02*
X0088229Y0085620D01*
X0087444Y0084021D02*
X0023649Y0084021D01*
X0023649Y0082423D02*
X0092542Y0082423D01*
X0092542Y0082702D02*
X0092542Y0088058D01*
X0092542Y0091940D01*
X0093305Y0091940D01*
X0093305Y0082702D01*
X0092542Y0082702D01*
X0093305Y0082423D02*
X0128731Y0082423D01*
X0127133Y0084021D02*
X0098404Y0084021D01*
X0097619Y0085620D02*
X0126025Y0085620D01*
X0125824Y0087218D02*
X0095944Y0087218D01*
X0097469Y0088817D02*
X0125824Y0088817D01*
X0125824Y0090415D02*
X0098337Y0090415D01*
X0098528Y0093612D02*
X0125824Y0093612D01*
X0125824Y0092014D02*
X0093305Y0092014D01*
X0092542Y0092014D02*
X0023649Y0092014D01*
X0023649Y0080824D02*
X0087378Y0080824D01*
X0088081Y0079226D02*
X0023649Y0079226D01*
X0023649Y0077627D02*
X0089624Y0077627D01*
X0092542Y0077627D02*
X0093305Y0077627D01*
X0093305Y0076584D02*
X0093375Y0076584D01*
X0094267Y0076725D01*
X0095126Y0077005D01*
X0095930Y0077414D01*
X0096661Y0077945D01*
X0097300Y0078584D01*
X0097830Y0079314D01*
X0098240Y0080119D01*
X0098519Y0080978D01*
X0098661Y0081870D01*
X0098661Y0081940D01*
X0093305Y0081940D01*
X0093305Y0076584D01*
X0093305Y0079226D02*
X0092542Y0079226D01*
X0092542Y0080824D02*
X0093305Y0080824D01*
X0093305Y0084021D02*
X0092542Y0084021D01*
X0092542Y0085620D02*
X0093305Y0085620D01*
X0093305Y0087218D02*
X0092542Y0087218D01*
X0092542Y0088817D02*
X0093305Y0088817D01*
X0093305Y0090415D02*
X0092542Y0090415D01*
X0092542Y0093612D02*
X0093305Y0093612D01*
X0093305Y0095211D02*
X0092542Y0095211D01*
X0092542Y0096809D02*
X0093305Y0096809D01*
X0096507Y0096809D02*
X0125824Y0096809D01*
X0125824Y0095211D02*
X0097890Y0095211D01*
X0098469Y0080824D02*
X0130330Y0080824D01*
X0131928Y0079226D02*
X0097766Y0079226D01*
X0096223Y0077627D02*
X0133527Y0077627D01*
X0135125Y0076029D02*
X0023649Y0076029D01*
X0023649Y0074430D02*
X0136724Y0074430D01*
X0138322Y0072832D02*
X0023649Y0072832D01*
X0023649Y0071233D02*
X0139921Y0071233D01*
X0141519Y0069634D02*
X0023649Y0069634D01*
X0023649Y0068036D02*
X0143118Y0068036D01*
X0144716Y0066437D02*
X0023649Y0066437D01*
X0023649Y0064839D02*
X0146315Y0064839D01*
X0147913Y0063240D02*
X0023649Y0063240D01*
X0023649Y0061642D02*
X0149512Y0061642D01*
X0151110Y0060043D02*
X0080188Y0060043D01*
X0079830Y0060401D02*
X0077367Y0061421D01*
X0074702Y0061421D01*
X0072239Y0060401D01*
X0070355Y0058516D01*
X0069335Y0056054D01*
X0069335Y0044788D01*
X0070355Y0042326D01*
X0072239Y0040441D01*
X0074702Y0039421D01*
X0077367Y0039421D01*
X0079830Y0040441D01*
X0081715Y0042326D01*
X0082735Y0044788D01*
X0082735Y0046021D01*
X0086587Y0046021D01*
X0086587Y0045907D01*
X0086829Y0045321D01*
X0086587Y0044736D01*
X0086587Y0035907D01*
X0086952Y0035025D01*
X0087627Y0034350D01*
X0088509Y0033984D01*
X0097338Y0033984D01*
X0098220Y0034350D01*
X0098895Y0035025D01*
X0099261Y0035907D01*
X0099261Y0044736D01*
X0099018Y0045321D01*
X0099261Y0045907D01*
X0099261Y0054736D01*
X0098895Y0055618D01*
X0098220Y0056293D01*
X0097338Y0056658D01*
X0088509Y0056658D01*
X0087627Y0056293D01*
X0086952Y0055618D01*
X0086622Y0054821D01*
X0082735Y0054821D01*
X0082735Y0056054D01*
X0081715Y0058516D01*
X0079830Y0060401D01*
X0081744Y0058445D02*
X0152709Y0058445D01*
X0154307Y0056846D02*
X0082406Y0056846D01*
X0082735Y0055248D02*
X0086799Y0055248D01*
X0099048Y0055248D02*
X0155906Y0055248D01*
X0157504Y0053649D02*
X0099261Y0053649D01*
X0099261Y0052051D02*
X0159103Y0052051D01*
X0159587Y0050452D02*
X0099261Y0050452D01*
X0099261Y0048854D02*
X0159587Y0048854D01*
X0159587Y0047255D02*
X0099261Y0047255D01*
X0099157Y0045657D02*
X0159690Y0045657D01*
X0159587Y0044058D02*
X0099261Y0044058D01*
X0099261Y0042460D02*
X0159587Y0042460D01*
X0159587Y0040861D02*
X0099261Y0040861D01*
X0099261Y0039263D02*
X0159587Y0039263D01*
X0159587Y0037664D02*
X0099261Y0037664D01*
X0099261Y0036066D02*
X0159587Y0036066D01*
X0160509Y0034467D02*
X0098338Y0034467D01*
X0087509Y0034467D02*
X0073870Y0034467D01*
X0073741Y0034721D02*
X0073176Y0035497D01*
X0072498Y0036176D01*
X0071721Y0036741D01*
X0070865Y0037177D01*
X0069952Y0037473D01*
X0069004Y0037624D01*
X0064224Y0037624D01*
X0064224Y0031524D01*
X0064224Y0031524D01*
X0074624Y0031524D01*
X0074624Y0032004D01*
X0074473Y0032952D01*
X0074177Y0033865D01*
X0073741Y0034721D01*
X0072608Y0036066D02*
X0086587Y0036066D01*
X0086587Y0037664D02*
X0023649Y0037664D01*
X0023649Y0036066D02*
X0055839Y0036066D01*
X0055950Y0036176D02*
X0055271Y0035497D01*
X0054706Y0034721D01*
X0054271Y0033865D01*
X0053974Y0032952D01*
X0053824Y0032004D01*
X0053824Y0031524D01*
X0064223Y0031524D01*
X0064223Y0031523D01*
X0053824Y0031523D01*
X0053824Y0031043D01*
X0053974Y0030095D01*
X0054271Y0029182D01*
X0054706Y0028326D01*
X0055271Y0027550D01*
X0055950Y0026871D01*
X0056727Y0026306D01*
X0057582Y0025870D01*
X0058495Y0025574D01*
X0059444Y0025424D01*
X0064224Y0025424D01*
X0069004Y0025424D01*
X0069952Y0025574D01*
X0070865Y0025870D01*
X0071721Y0026306D01*
X0072498Y0026871D01*
X0073176Y0027550D01*
X0073741Y0028326D01*
X0074177Y0029182D01*
X0074473Y0030095D01*
X0074624Y0031043D01*
X0074624Y0031523D01*
X0064224Y0031523D01*
X0064224Y0025424D01*
X0064224Y0031523D01*
X0064224Y0031523D01*
X0064224Y0031524D01*
X0064224Y0037624D01*
X0059444Y0037624D01*
X0058495Y0037473D01*
X0057582Y0037177D01*
X0056727Y0036741D01*
X0055950Y0036176D01*
X0054577Y0034467D02*
X0023649Y0034467D01*
X0023649Y0032869D02*
X0053961Y0032869D01*
X0053824Y0031270D02*
X0023649Y0031270D01*
X0023649Y0029672D02*
X0054111Y0029672D01*
X0054890Y0028073D02*
X0023649Y0028073D01*
X0023649Y0026475D02*
X0056495Y0026475D01*
X0064224Y0026475D02*
X0064224Y0026475D01*
X0064224Y0028073D02*
X0064224Y0028073D01*
X0064224Y0029672D02*
X0064224Y0029672D01*
X0064224Y0031270D02*
X0064224Y0031270D01*
X0064224Y0032869D02*
X0064224Y0032869D01*
X0064224Y0034467D02*
X0064224Y0034467D01*
X0064224Y0036066D02*
X0064224Y0036066D01*
X0070299Y0042460D02*
X0057292Y0042460D01*
X0057065Y0042147D02*
X0057630Y0042924D01*
X0058066Y0043780D01*
X0058362Y0044693D01*
X0058513Y0045641D01*
X0058513Y0050421D01*
X0052413Y0050421D01*
X0052413Y0050421D01*
X0052413Y0040021D01*
X0052893Y0040021D01*
X0053841Y0040171D01*
X0054754Y0040468D01*
X0055610Y0040904D01*
X0056386Y0041468D01*
X0057065Y0042147D01*
X0055526Y0040861D02*
X0071819Y0040861D01*
X0069637Y0044058D02*
X0058156Y0044058D01*
X0058513Y0045657D02*
X0069335Y0045657D01*
X0069335Y0047255D02*
X0058513Y0047255D01*
X0058513Y0048854D02*
X0069335Y0048854D01*
X0069335Y0050452D02*
X0058513Y0050452D01*
X0058513Y0050421D02*
X0058513Y0055201D01*
X0058362Y0056150D01*
X0058066Y0057063D01*
X0057630Y0057918D01*
X0057065Y0058695D01*
X0056386Y0059374D01*
X0055610Y0059938D01*
X0054754Y0060374D01*
X0053841Y0060671D01*
X0052893Y0060821D01*
X0052413Y0060821D01*
X0052413Y0050421D01*
X0052413Y0050421D01*
X0058513Y0050421D01*
X0058513Y0052051D02*
X0069335Y0052051D01*
X0069335Y0053649D02*
X0058513Y0053649D01*
X0058505Y0055248D02*
X0069335Y0055248D01*
X0069663Y0056846D02*
X0058136Y0056846D01*
X0057247Y0058445D02*
X0070325Y0058445D01*
X0071882Y0060043D02*
X0055404Y0060043D01*
X0052413Y0060043D02*
X0052413Y0060043D01*
X0052413Y0060821D02*
X0051933Y0060821D01*
X0050984Y0060671D01*
X0050071Y0060374D01*
X0049215Y0059938D01*
X0048439Y0059374D01*
X0047760Y0058695D01*
X0047195Y0057918D01*
X0046760Y0057063D01*
X0046463Y0056150D01*
X0046313Y0055201D01*
X0046313Y0050421D01*
X0046313Y0045641D01*
X0046463Y0044693D01*
X0046760Y0043780D01*
X0047195Y0042924D01*
X0047760Y0042147D01*
X0048439Y0041468D01*
X0049215Y0040904D01*
X0050071Y0040468D01*
X0050984Y0040171D01*
X0051933Y0040021D01*
X0052413Y0040021D01*
X0052413Y0050421D01*
X0052413Y0050421D01*
X0052412Y0050421D02*
X0046313Y0050421D01*
X0052412Y0050421D01*
X0052412Y0050421D01*
X0052413Y0050421D02*
X0052413Y0060821D01*
X0052413Y0058445D02*
X0052413Y0058445D01*
X0052413Y0056846D02*
X0052413Y0056846D01*
X0052413Y0055248D02*
X0052413Y0055248D01*
X0052413Y0053649D02*
X0052413Y0053649D01*
X0052413Y0052051D02*
X0052413Y0052051D01*
X0052413Y0050452D02*
X0052413Y0050452D01*
X0052413Y0048854D02*
X0052413Y0048854D01*
X0052413Y0047255D02*
X0052413Y0047255D01*
X0052413Y0045657D02*
X0052413Y0045657D01*
X0052413Y0044058D02*
X0052413Y0044058D01*
X0052413Y0042460D02*
X0052413Y0042460D01*
X0052413Y0040861D02*
X0052413Y0040861D01*
X0049299Y0040861D02*
X0023649Y0040861D01*
X0023649Y0039263D02*
X0086587Y0039263D01*
X0086587Y0040861D02*
X0080250Y0040861D01*
X0081770Y0042460D02*
X0086587Y0042460D01*
X0086587Y0044058D02*
X0082432Y0044058D01*
X0082735Y0045657D02*
X0086690Y0045657D01*
X0074487Y0032869D02*
X0173924Y0032869D01*
X0173924Y0034467D02*
X0171338Y0034467D01*
X0172261Y0036066D02*
X0173588Y0036066D01*
X0173846Y0031270D02*
X0171201Y0031270D01*
X0163846Y0031270D02*
X0161201Y0031270D01*
X0153846Y0031270D02*
X0151201Y0031270D01*
X0143846Y0031270D02*
X0141201Y0031270D01*
X0133846Y0031270D02*
X0074624Y0031270D01*
X0074336Y0029672D02*
X0132309Y0029672D01*
X0131647Y0028073D02*
X0073557Y0028073D01*
X0071952Y0026475D02*
X0131424Y0026475D01*
X0131520Y0024876D02*
X0023649Y0024876D01*
X0023649Y0023278D02*
X0132182Y0023278D01*
X0133539Y0021679D02*
X0023649Y0021679D01*
X0023649Y0020081D02*
X0288649Y0020081D01*
X0288649Y0021679D02*
X0281508Y0021679D01*
X0280979Y0021150D02*
X0282695Y0022866D01*
X0283624Y0025108D01*
X0283624Y0027535D01*
X0282695Y0029777D01*
X0280979Y0031493D01*
X0278737Y0032421D01*
X0276310Y0032421D01*
X0274068Y0031493D01*
X0272524Y0029948D01*
X0270979Y0031493D01*
X0268737Y0032421D01*
X0266310Y0032421D01*
X0264068Y0031493D01*
X0262524Y0029948D01*
X0260979Y0031493D01*
X0258737Y0032421D01*
X0256310Y0032421D01*
X0254068Y0031493D01*
X0252524Y0029948D01*
X0250979Y0031493D01*
X0248737Y0032421D01*
X0246310Y0032421D01*
X0244068Y0031493D01*
X0242524Y0029948D01*
X0240979Y0031493D01*
X0238737Y0032421D01*
X0236310Y0032421D01*
X0234068Y0031493D01*
X0232524Y0029948D01*
X0230979Y0031493D01*
X0228737Y0032421D01*
X0226310Y0032421D01*
X0224068Y0031493D01*
X0222352Y0029777D01*
X0221424Y0027535D01*
X0221424Y0025108D01*
X0222352Y0022866D01*
X0224068Y0021150D01*
X0226310Y0020221D01*
X0228737Y0020221D01*
X0230979Y0021150D01*
X0232524Y0022695D01*
X0234068Y0021150D01*
X0236310Y0020221D01*
X0238737Y0020221D01*
X0240979Y0021150D01*
X0242524Y0022695D01*
X0244068Y0021150D01*
X0246310Y0020221D01*
X0248737Y0020221D01*
X0250979Y0021150D01*
X0252524Y0022695D01*
X0254068Y0021150D01*
X0256310Y0020221D01*
X0258737Y0020221D01*
X0260979Y0021150D01*
X0262524Y0022695D01*
X0264068Y0021150D01*
X0266310Y0020221D01*
X0268737Y0020221D01*
X0270979Y0021150D01*
X0272524Y0022695D01*
X0274068Y0021150D01*
X0276310Y0020221D01*
X0278737Y0020221D01*
X0280979Y0021150D01*
X0282866Y0023278D02*
X0288649Y0023278D01*
X0289225Y0024876D02*
X0283528Y0024876D01*
X0283624Y0026475D02*
X0290824Y0026475D01*
X0292422Y0028073D02*
X0283401Y0028073D01*
X0282738Y0029672D02*
X0294021Y0029672D01*
X0295619Y0031270D02*
X0281201Y0031270D01*
X0280482Y0035743D02*
X0278498Y0034921D01*
X0270349Y0034921D01*
X0268365Y0035743D01*
X0266846Y0037262D01*
X0266024Y0039247D01*
X0266024Y0041395D01*
X0266846Y0043380D01*
X0268365Y0044899D01*
X0269384Y0045321D01*
X0268365Y0045743D01*
X0266846Y0047262D01*
X0266024Y0049247D01*
X0266024Y0051395D01*
X0266846Y0053380D01*
X0268365Y0054899D01*
X0269384Y0055321D01*
X0268365Y0055743D01*
X0266846Y0057262D01*
X0266024Y0059247D01*
X0266024Y0061395D01*
X0266846Y0063380D01*
X0268365Y0064899D01*
X0270349Y0065721D01*
X0278498Y0065721D01*
X0280482Y0064899D01*
X0282002Y0063380D01*
X0282824Y0061395D01*
X0282824Y0059247D01*
X0282002Y0057262D01*
X0280482Y0055743D01*
X0279463Y0055321D01*
X0280482Y0054899D01*
X0282002Y0053380D01*
X0282824Y0051395D01*
X0282824Y0049247D01*
X0282002Y0047262D01*
X0280482Y0045743D01*
X0279463Y0045321D01*
X0280482Y0044899D01*
X0282002Y0043380D01*
X0282824Y0041395D01*
X0282824Y0039247D01*
X0282002Y0037262D01*
X0280482Y0035743D01*
X0280805Y0036066D02*
X0300415Y0036066D01*
X0302013Y0037664D02*
X0282168Y0037664D01*
X0282824Y0039263D02*
X0303612Y0039263D01*
X0303649Y0040861D02*
X0282824Y0040861D01*
X0282383Y0042460D02*
X0303649Y0042460D01*
X0303649Y0044058D02*
X0281323Y0044058D01*
X0280274Y0045657D02*
X0303649Y0045657D01*
X0303649Y0047255D02*
X0281995Y0047255D01*
X0282661Y0048854D02*
X0303649Y0048854D01*
X0303649Y0050452D02*
X0282824Y0050452D01*
X0282552Y0052051D02*
X0303649Y0052051D01*
X0303649Y0053649D02*
X0281732Y0053649D01*
X0279640Y0055248D02*
X0303649Y0055248D01*
X0303649Y0056846D02*
X0281586Y0056846D01*
X0282491Y0058445D02*
X0303649Y0058445D01*
X0303649Y0060043D02*
X0282824Y0060043D01*
X0282721Y0061642D02*
X0303649Y0061642D01*
X0303649Y0063240D02*
X0282059Y0063240D01*
X0280543Y0064839D02*
X0303649Y0064839D01*
X0303649Y0066437D02*
X0257673Y0066437D01*
X0257395Y0065766D02*
X0258324Y0068008D01*
X0258324Y0070435D01*
X0257395Y0072677D01*
X0255679Y0074393D01*
X0253437Y0075321D01*
X0251010Y0075321D01*
X0248768Y0074393D01*
X0247052Y0072677D01*
X0246124Y0070435D01*
X0246124Y0068008D01*
X0247052Y0065766D01*
X0248768Y0064050D01*
X0251010Y0063121D01*
X0253437Y0063121D01*
X0255679Y0064050D01*
X0257395Y0065766D01*
X0256468Y0064839D02*
X0268305Y0064839D01*
X0266788Y0063240D02*
X0253725Y0063240D01*
X0250722Y0063240D02*
X0228125Y0063240D01*
X0227837Y0063121D02*
X0230079Y0064050D01*
X0231795Y0065766D01*
X0232724Y0068008D01*
X0232724Y0070435D01*
X0231795Y0072677D01*
X0230079Y0074393D01*
X0227837Y0075321D01*
X0225410Y0075321D01*
X0223168Y0074393D01*
X0221452Y0072677D01*
X0220524Y0070435D01*
X0220524Y0068008D01*
X0221452Y0065766D01*
X0223168Y0064050D01*
X0225410Y0063121D01*
X0227837Y0063121D01*
X0225122Y0063240D02*
X0158096Y0063240D01*
X0159694Y0061642D02*
X0266126Y0061642D01*
X0266024Y0060043D02*
X0161293Y0060043D01*
X0162891Y0058445D02*
X0266356Y0058445D01*
X0267262Y0056846D02*
X0253129Y0056846D01*
X0253512Y0056786D02*
X0252656Y0056921D01*
X0252424Y0056921D01*
X0252424Y0051621D01*
X0257724Y0051621D01*
X0257724Y0051854D01*
X0257588Y0052709D01*
X0257321Y0053532D01*
X0256928Y0054304D01*
X0256419Y0055004D01*
X0255807Y0055616D01*
X0255106Y0056125D01*
X0254335Y0056518D01*
X0253512Y0056786D01*
X0252424Y0056846D02*
X0252024Y0056846D01*
X0252024Y0056921D02*
X0251791Y0056921D01*
X0250936Y0056786D01*
X0250112Y0056518D01*
X0249341Y0056125D01*
X0248641Y0055616D01*
X0248028Y0055004D01*
X0247520Y0054304D01*
X0247127Y0053532D01*
X0246859Y0052709D01*
X0246724Y0051854D01*
X0246724Y0051621D01*
X0252024Y0051621D01*
X0252024Y0056921D01*
X0251319Y0056846D02*
X0227529Y0056846D01*
X0227912Y0056786D02*
X0227056Y0056921D01*
X0226824Y0056921D01*
X0226824Y0051621D01*
X0232124Y0051621D01*
X0232124Y0051854D01*
X0231988Y0052709D01*
X0231721Y0053532D01*
X0231328Y0054304D01*
X0230819Y0055004D01*
X0230207Y0055616D01*
X0229506Y0056125D01*
X0228735Y0056518D01*
X0227912Y0056786D01*
X0226824Y0056846D02*
X0226424Y0056846D01*
X0226424Y0056921D02*
X0226191Y0056921D01*
X0225336Y0056786D01*
X0224512Y0056518D01*
X0223741Y0056125D01*
X0223041Y0055616D01*
X0222428Y0055004D01*
X0221920Y0054304D01*
X0221527Y0053532D01*
X0221259Y0052709D01*
X0221124Y0051854D01*
X0221124Y0051621D01*
X0226424Y0051621D01*
X0226424Y0056921D01*
X0225719Y0056846D02*
X0164490Y0056846D01*
X0172048Y0055248D02*
X0222672Y0055248D01*
X0221586Y0053649D02*
X0172261Y0053649D01*
X0172261Y0052051D02*
X0221155Y0052051D01*
X0221124Y0051221D02*
X0221124Y0050988D01*
X0221259Y0050133D01*
X0221527Y0049310D01*
X0221920Y0048539D01*
X0222428Y0047838D01*
X0223041Y0047226D01*
X0223741Y0046717D01*
X0224512Y0046324D01*
X0225336Y0046057D01*
X0226191Y0045921D01*
X0226424Y0045921D01*
X0226424Y0051221D01*
X0226824Y0051221D01*
X0226824Y0051621D01*
X0226424Y0051621D01*
X0226424Y0051221D01*
X0221124Y0051221D01*
X0221209Y0050452D02*
X0172261Y0050452D01*
X0172261Y0048854D02*
X0221759Y0048854D01*
X0223011Y0047255D02*
X0172261Y0047255D01*
X0172157Y0045657D02*
X0268574Y0045657D01*
X0267524Y0044058D02*
X0172261Y0044058D01*
X0177376Y0042460D02*
X0266465Y0042460D01*
X0266024Y0040861D02*
X0178975Y0040861D01*
X0180573Y0039263D02*
X0266024Y0039263D01*
X0266679Y0037664D02*
X0181124Y0037664D01*
X0181124Y0036066D02*
X0268042Y0036066D01*
X0271201Y0031270D02*
X0273846Y0031270D01*
X0263846Y0031270D02*
X0261201Y0031270D01*
X0253846Y0031270D02*
X0251201Y0031270D01*
X0243846Y0031270D02*
X0241201Y0031270D01*
X0233846Y0031270D02*
X0231201Y0031270D01*
X0223846Y0031270D02*
X0211201Y0031270D01*
X0212738Y0029672D02*
X0222309Y0029672D01*
X0221647Y0028073D02*
X0213401Y0028073D01*
X0213624Y0026475D02*
X0221424Y0026475D01*
X0221520Y0024876D02*
X0213528Y0024876D01*
X0212866Y0023278D02*
X0222182Y0023278D01*
X0223539Y0021679D02*
X0211508Y0021679D01*
X0203539Y0021679D02*
X0200492Y0021679D01*
X0202111Y0023278D02*
X0202182Y0023278D01*
X0197724Y0023278D02*
X0197324Y0023278D01*
X0197324Y0024876D02*
X0197724Y0024876D01*
X0197324Y0026475D02*
X0187724Y0026475D01*
X0187724Y0028073D02*
X0187324Y0028073D01*
X0187324Y0029672D02*
X0187724Y0029672D01*
X0187724Y0031270D02*
X0187324Y0031270D01*
X0185122Y0031270D02*
X0181201Y0031270D01*
X0181124Y0032869D02*
X0297218Y0032869D01*
X0298816Y0034467D02*
X0181124Y0034467D01*
X0182738Y0029672D02*
X0183160Y0029672D01*
X0189925Y0031270D02*
X0195122Y0031270D01*
X0197324Y0031270D02*
X0197724Y0031270D01*
X0197724Y0029672D02*
X0197324Y0029672D01*
X0197324Y0028073D02*
X0197724Y0028073D01*
X0199925Y0031270D02*
X0203846Y0031270D01*
X0202309Y0029672D02*
X0201888Y0029672D01*
X0193160Y0029672D02*
X0191888Y0029672D01*
X0187724Y0024876D02*
X0187324Y0024876D01*
X0187324Y0023278D02*
X0187724Y0023278D01*
X0187724Y0021679D02*
X0187324Y0021679D01*
X0184556Y0021679D02*
X0181508Y0021679D01*
X0182866Y0023278D02*
X0182937Y0023278D01*
X0190492Y0021679D02*
X0194556Y0021679D01*
X0192936Y0023278D02*
X0192111Y0023278D01*
X0197324Y0021679D02*
X0197724Y0021679D01*
X0173539Y0021679D02*
X0171508Y0021679D01*
X0163539Y0021679D02*
X0161508Y0021679D01*
X0153539Y0021679D02*
X0151508Y0021679D01*
X0143539Y0021679D02*
X0141508Y0021679D01*
X0156497Y0064839D02*
X0222379Y0064839D01*
X0221174Y0066437D02*
X0154898Y0066437D01*
X0153300Y0068036D02*
X0220524Y0068036D01*
X0220524Y0069634D02*
X0151701Y0069634D01*
X0150103Y0071233D02*
X0220854Y0071233D01*
X0221607Y0072832D02*
X0148504Y0072832D01*
X0146906Y0074430D02*
X0223259Y0074430D01*
X0229988Y0074430D02*
X0248859Y0074430D01*
X0247207Y0072832D02*
X0231640Y0072832D01*
X0232393Y0071233D02*
X0246454Y0071233D01*
X0246124Y0069634D02*
X0232724Y0069634D01*
X0232724Y0068036D02*
X0246124Y0068036D01*
X0246774Y0066437D02*
X0232073Y0066437D01*
X0230868Y0064839D02*
X0247979Y0064839D01*
X0258324Y0068036D02*
X0303649Y0068036D01*
X0303649Y0069634D02*
X0258324Y0069634D01*
X0257993Y0071233D02*
X0303649Y0071233D01*
X0303649Y0072832D02*
X0257240Y0072832D01*
X0255588Y0074430D02*
X0303649Y0074430D01*
X0303649Y0076029D02*
X0244381Y0076029D01*
X0245571Y0077627D02*
X0303649Y0077627D01*
X0303649Y0079226D02*
X0245875Y0079226D01*
X0245495Y0080824D02*
X0303649Y0080824D01*
X0303649Y0082423D02*
X0244197Y0082423D01*
X0240636Y0084021D02*
X0303649Y0084021D01*
X0303649Y0085620D02*
X0239625Y0085620D01*
X0236924Y0082821D02*
X0214424Y0082821D01*
X0211924Y0085321D01*
X0211924Y0165321D01*
X0192524Y0184721D01*
X0192524Y0187821D01*
X0197724Y0187924D02*
X0257295Y0187924D01*
X0258894Y0186326D02*
X0254713Y0186326D01*
X0252424Y0186326D02*
X0252024Y0186326D01*
X0252024Y0184727D02*
X0252424Y0184727D01*
X0252424Y0183129D02*
X0252024Y0183129D01*
X0252024Y0181530D02*
X0226824Y0181530D01*
X0226424Y0181530D02*
X0200240Y0181530D01*
X0201838Y0179932D02*
X0221325Y0179932D01*
X0222069Y0178333D02*
X0203437Y0178333D01*
X0205036Y0176735D02*
X0223717Y0176735D01*
X0229530Y0176735D02*
X0249317Y0176735D01*
X0247669Y0178333D02*
X0231178Y0178333D01*
X0231923Y0179932D02*
X0246925Y0179932D01*
X0246995Y0183129D02*
X0231852Y0183129D01*
X0231020Y0184727D02*
X0247827Y0184727D01*
X0249735Y0186326D02*
X0229113Y0186326D01*
X0226824Y0186326D02*
X0226424Y0186326D01*
X0226424Y0184727D02*
X0226824Y0184727D01*
X0226824Y0183129D02*
X0226424Y0183129D01*
X0224135Y0186326D02*
X0197724Y0186326D01*
X0197043Y0184727D02*
X0222227Y0184727D01*
X0221395Y0183129D02*
X0198641Y0183129D01*
X0197724Y0189523D02*
X0255696Y0189523D01*
X0254098Y0191121D02*
X0196577Y0191121D01*
X0194979Y0192720D02*
X0252499Y0192720D01*
X0248500Y0194318D02*
X0230348Y0194318D01*
X0230079Y0194050D02*
X0231795Y0195766D01*
X0232724Y0198008D01*
X0232724Y0200435D01*
X0231795Y0202677D01*
X0230079Y0204393D01*
X0227837Y0205321D01*
X0225410Y0205321D01*
X0223168Y0204393D01*
X0221452Y0202677D01*
X0220524Y0200435D01*
X0220524Y0198008D01*
X0221452Y0195766D01*
X0223168Y0194050D01*
X0225410Y0193121D01*
X0227837Y0193121D01*
X0230079Y0194050D01*
X0231858Y0195917D02*
X0246990Y0195917D01*
X0246328Y0197515D02*
X0232520Y0197515D01*
X0232724Y0199114D02*
X0246124Y0199114D01*
X0246239Y0200712D02*
X0232609Y0200712D01*
X0231946Y0202311D02*
X0246901Y0202311D01*
X0248285Y0203909D02*
X0230562Y0203909D01*
X0235613Y0207106D02*
X0196524Y0207106D01*
X0196524Y0205508D02*
X0237211Y0205508D01*
X0239424Y0207821D02*
X0289424Y0207821D01*
X0295736Y0201509D01*
X0295736Y0101634D01*
X0291924Y0097821D01*
X0246924Y0097821D01*
X0244034Y0095211D02*
X0215124Y0095211D01*
X0215124Y0096809D02*
X0243133Y0096809D01*
X0243035Y0098408D02*
X0215124Y0098408D01*
X0215124Y0100006D02*
X0243619Y0100006D01*
X0245896Y0101605D02*
X0215124Y0101605D01*
X0215124Y0103203D02*
X0292536Y0103203D01*
X0292536Y0104802D02*
X0215124Y0104802D01*
X0215124Y0106400D02*
X0292536Y0106400D01*
X0292536Y0107999D02*
X0215124Y0107999D01*
X0215124Y0109597D02*
X0292536Y0109597D01*
X0292536Y0111196D02*
X0215124Y0111196D01*
X0215124Y0112794D02*
X0292536Y0112794D01*
X0292536Y0114393D02*
X0215124Y0114393D01*
X0215124Y0115991D02*
X0292536Y0115991D01*
X0292536Y0117590D02*
X0215124Y0117590D01*
X0215124Y0119188D02*
X0292536Y0119188D01*
X0292536Y0120787D02*
X0215124Y0120787D01*
X0215124Y0122385D02*
X0292536Y0122385D01*
X0292536Y0123984D02*
X0215124Y0123984D01*
X0215124Y0125582D02*
X0292536Y0125582D01*
X0292536Y0127181D02*
X0215124Y0127181D01*
X0215124Y0128779D02*
X0292536Y0128779D01*
X0292536Y0130378D02*
X0215124Y0130378D01*
X0215124Y0131976D02*
X0292536Y0131976D01*
X0292536Y0133575D02*
X0215124Y0133575D01*
X0215124Y0135173D02*
X0292536Y0135173D01*
X0292536Y0136772D02*
X0215124Y0136772D01*
X0215124Y0138370D02*
X0292536Y0138370D01*
X0292536Y0139969D02*
X0215124Y0139969D01*
X0215124Y0141568D02*
X0292536Y0141568D01*
X0292536Y0143166D02*
X0215124Y0143166D01*
X0215124Y0144765D02*
X0292536Y0144765D01*
X0292536Y0146363D02*
X0215124Y0146363D01*
X0215124Y0147962D02*
X0292536Y0147962D01*
X0292536Y0149560D02*
X0215124Y0149560D01*
X0215124Y0151159D02*
X0292536Y0151159D01*
X0292536Y0152757D02*
X0215124Y0152757D01*
X0215124Y0154356D02*
X0292536Y0154356D01*
X0292536Y0155954D02*
X0215124Y0155954D01*
X0215124Y0157553D02*
X0292536Y0157553D01*
X0292536Y0159151D02*
X0215124Y0159151D01*
X0215124Y0160750D02*
X0292536Y0160750D01*
X0292536Y0162348D02*
X0215124Y0162348D01*
X0215124Y0163947D02*
X0292536Y0163947D01*
X0292536Y0165545D02*
X0215124Y0165545D01*
X0214627Y0167144D02*
X0284601Y0167144D01*
X0283368Y0168742D02*
X0213028Y0168742D01*
X0211924Y0172821D02*
X0284424Y0172821D01*
X0286924Y0170321D01*
X0290813Y0170341D02*
X0292536Y0170341D01*
X0292536Y0171939D02*
X0290463Y0171939D01*
X0289207Y0173538D02*
X0292536Y0173538D01*
X0292536Y0175136D02*
X0286634Y0175136D01*
X0292536Y0176735D02*
X0275683Y0176735D01*
X0275813Y0178333D02*
X0292536Y0178333D01*
X0292536Y0179932D02*
X0275259Y0179932D01*
X0273131Y0181530D02*
X0292536Y0181530D01*
X0292536Y0183129D02*
X0271141Y0183129D01*
X0269543Y0184727D02*
X0292536Y0184727D01*
X0292536Y0186326D02*
X0267944Y0186326D01*
X0266346Y0187924D02*
X0292536Y0187924D01*
X0292536Y0189523D02*
X0264747Y0189523D01*
X0263149Y0191121D02*
X0292536Y0191121D01*
X0292536Y0192720D02*
X0261550Y0192720D01*
X0259952Y0194318D02*
X0292536Y0194318D01*
X0292536Y0195917D02*
X0258353Y0195917D01*
X0258120Y0197515D02*
X0292536Y0197515D01*
X0292536Y0199114D02*
X0258324Y0199114D01*
X0258209Y0200712D02*
X0292007Y0200712D01*
X0290408Y0202311D02*
X0257546Y0202311D01*
X0256162Y0203909D02*
X0288810Y0203909D01*
X0293065Y0208705D02*
X0303649Y0208705D01*
X0303649Y0210303D02*
X0291467Y0210303D01*
X0294664Y0207106D02*
X0303649Y0207106D01*
X0303649Y0205508D02*
X0296262Y0205508D01*
X0297861Y0203909D02*
X0303649Y0203909D01*
X0303649Y0202311D02*
X0298867Y0202311D01*
X0298936Y0200712D02*
X0303649Y0200712D01*
X0303649Y0199114D02*
X0298936Y0199114D01*
X0298936Y0197515D02*
X0303649Y0197515D01*
X0303649Y0195917D02*
X0298936Y0195917D01*
X0298936Y0194318D02*
X0303649Y0194318D01*
X0303649Y0192720D02*
X0298936Y0192720D01*
X0298936Y0191121D02*
X0303649Y0191121D01*
X0303649Y0189523D02*
X0298936Y0189523D01*
X0298936Y0187924D02*
X0303649Y0187924D01*
X0303649Y0186326D02*
X0298936Y0186326D01*
X0298936Y0184727D02*
X0303649Y0184727D01*
X0303649Y0183129D02*
X0298936Y0183129D01*
X0298936Y0181530D02*
X0303649Y0181530D01*
X0303649Y0179932D02*
X0298936Y0179932D01*
X0298936Y0178333D02*
X0303649Y0178333D01*
X0303649Y0176735D02*
X0298936Y0176735D01*
X0298936Y0175136D02*
X0303649Y0175136D01*
X0303649Y0173538D02*
X0298936Y0173538D01*
X0298936Y0171939D02*
X0303649Y0171939D01*
X0303649Y0170341D02*
X0298936Y0170341D01*
X0298936Y0168742D02*
X0303649Y0168742D01*
X0303649Y0167144D02*
X0298936Y0167144D01*
X0298936Y0165545D02*
X0303649Y0165545D01*
X0303649Y0163947D02*
X0298936Y0163947D01*
X0292536Y0167144D02*
X0289246Y0167144D01*
X0290479Y0168742D02*
X0292536Y0168742D01*
X0271924Y0177821D02*
X0252224Y0197521D01*
X0252224Y0199221D01*
X0239424Y0207821D02*
X0237524Y0209721D01*
X0237524Y0216321D01*
X0233316Y0211902D02*
X0231731Y0211902D01*
X0234324Y0210303D02*
X0228936Y0210303D01*
X0226112Y0210303D02*
X0218936Y0210303D01*
X0216112Y0210303D02*
X0208936Y0210303D01*
X0206112Y0210303D02*
X0196524Y0210303D01*
X0196524Y0208705D02*
X0234481Y0208705D01*
X0223316Y0211902D02*
X0221731Y0211902D01*
X0213316Y0211902D02*
X0211731Y0211902D01*
X0203316Y0211902D02*
X0196731Y0211902D01*
X0197958Y0213501D02*
X0202089Y0213501D01*
X0201427Y0215099D02*
X0198620Y0215099D01*
X0198624Y0216698D02*
X0201424Y0216698D01*
X0201739Y0218296D02*
X0198308Y0218296D01*
X0197577Y0219895D02*
X0202470Y0219895D01*
X0204070Y0221493D02*
X0195978Y0221493D01*
X0189070Y0221493D02*
X0185978Y0221493D01*
X0179070Y0221493D02*
X0175978Y0221493D01*
X0169070Y0221493D02*
X0165978Y0221493D01*
X0159070Y0221493D02*
X0155978Y0221493D01*
X0149070Y0221493D02*
X0145978Y0221493D01*
X0139070Y0221493D02*
X0134405Y0221493D01*
X0132724Y0221493D02*
X0132324Y0221493D01*
X0132324Y0219895D02*
X0132724Y0219895D01*
X0132724Y0218296D02*
X0132324Y0218296D01*
X0132324Y0216698D02*
X0132724Y0216698D01*
X0132724Y0215099D02*
X0132324Y0215099D01*
X0132324Y0213501D02*
X0132724Y0213501D01*
X0132724Y0211902D02*
X0132324Y0211902D01*
X0129249Y0211902D02*
X0126731Y0211902D01*
X0123936Y0210303D02*
X0141112Y0210303D01*
X0143936Y0210303D02*
X0151112Y0210303D01*
X0153936Y0210303D02*
X0161112Y0210303D01*
X0163936Y0210303D02*
X0171112Y0210303D01*
X0173936Y0210303D02*
X0178924Y0210303D01*
X0178924Y0208705D02*
X0108631Y0208705D01*
X0107032Y0210303D02*
X0111112Y0210303D01*
X0113936Y0210303D02*
X0121112Y0210303D01*
X0118316Y0211902D02*
X0116731Y0211902D01*
X0110230Y0207106D02*
X0178924Y0207106D01*
X0178924Y0205508D02*
X0111828Y0205508D01*
X0113427Y0203909D02*
X0178924Y0203909D01*
X0178924Y0202311D02*
X0174539Y0202311D01*
X0174429Y0202421D02*
X0172624Y0202421D01*
X0172624Y0197921D01*
X0177124Y0197921D01*
X0177124Y0199727D01*
X0174429Y0202421D01*
X0172624Y0202311D02*
X0172424Y0202311D01*
X0172424Y0202421D02*
X0170618Y0202421D01*
X0167924Y0199727D01*
X0167924Y0197921D01*
X0172424Y0197921D01*
X0172424Y0202421D01*
X0172424Y0200712D02*
X0172624Y0200712D01*
X0172624Y0199114D02*
X0172424Y0199114D01*
X0172424Y0197921D02*
X0172624Y0197921D01*
X0172624Y0197721D01*
X0177124Y0197721D01*
X0177124Y0195916D01*
X0174429Y0193221D01*
X0172624Y0193221D01*
X0172624Y0197721D01*
X0172424Y0197721D01*
X0172424Y0193221D01*
X0170618Y0193221D01*
X0167924Y0195916D01*
X0167924Y0197721D01*
X0172424Y0197721D01*
X0172424Y0197921D01*
X0172424Y0197515D02*
X0172624Y0197515D01*
X0172624Y0195917D02*
X0172424Y0195917D01*
X0172424Y0194318D02*
X0172624Y0194318D01*
X0172624Y0192421D02*
X0174429Y0192421D01*
X0177124Y0189727D01*
X0177124Y0187921D01*
X0172624Y0187921D01*
X0172624Y0187721D01*
X0177124Y0187721D01*
X0177124Y0185916D01*
X0174429Y0183221D01*
X0172624Y0183221D01*
X0172624Y0187721D01*
X0172424Y0187721D01*
X0172424Y0183221D01*
X0170618Y0183221D01*
X0167924Y0185916D01*
X0167924Y0187721D01*
X0172424Y0187721D01*
X0172424Y0187921D01*
X0172424Y0192421D01*
X0170618Y0192421D01*
X0167924Y0189727D01*
X0167924Y0187921D01*
X0172424Y0187921D01*
X0172624Y0187921D01*
X0172624Y0192421D01*
X0172624Y0191121D02*
X0172424Y0191121D01*
X0172424Y0189523D02*
X0172624Y0189523D01*
X0172624Y0187924D02*
X0172424Y0187924D01*
X0172424Y0186326D02*
X0172624Y0186326D01*
X0172624Y0184727D02*
X0172424Y0184727D01*
X0169112Y0184727D02*
X0166784Y0184727D01*
X0167724Y0186326D02*
X0167924Y0186326D01*
X0167924Y0187924D02*
X0167724Y0187924D01*
X0167724Y0189523D02*
X0167924Y0189523D01*
X0166577Y0191121D02*
X0169318Y0191121D01*
X0169521Y0194318D02*
X0166375Y0194318D01*
X0166124Y0192720D02*
X0180068Y0192720D01*
X0178673Y0194318D02*
X0175526Y0194318D01*
X0177124Y0195917D02*
X0177324Y0195917D01*
X0177324Y0197515D02*
X0177124Y0197515D01*
X0177124Y0199114D02*
X0177324Y0199114D01*
X0178061Y0200712D02*
X0176138Y0200712D01*
X0170508Y0202311D02*
X0165388Y0202311D01*
X0166986Y0200712D02*
X0168909Y0200712D01*
X0167924Y0199114D02*
X0167724Y0199114D01*
X0167724Y0197515D02*
X0167924Y0197515D01*
X0167924Y0195917D02*
X0167724Y0195917D01*
X0158673Y0194318D02*
X0123018Y0194318D01*
X0124616Y0192720D02*
X0158924Y0192720D01*
X0157324Y0195917D02*
X0121419Y0195917D01*
X0119821Y0197515D02*
X0157324Y0197515D01*
X0157324Y0199114D02*
X0118222Y0199114D01*
X0116624Y0200712D02*
X0158061Y0200712D01*
X0159659Y0202311D02*
X0115025Y0202311D01*
X0109638Y0197515D02*
X0088024Y0197515D01*
X0088024Y0195917D02*
X0111237Y0195917D01*
X0112835Y0194318D02*
X0088024Y0194318D01*
X0088024Y0192720D02*
X0114434Y0192720D01*
X0116032Y0191121D02*
X0088024Y0191121D01*
X0088024Y0189523D02*
X0117631Y0189523D01*
X0119229Y0187924D02*
X0088024Y0187924D01*
X0088024Y0186326D02*
X0120828Y0186326D01*
X0122426Y0184727D02*
X0111421Y0184727D01*
X0112941Y0183129D02*
X0124025Y0183129D01*
X0125623Y0181530D02*
X0113603Y0181530D01*
X0113784Y0179932D02*
X0125824Y0179932D01*
X0125824Y0178333D02*
X0113612Y0178333D01*
X0112950Y0176735D02*
X0125824Y0176735D01*
X0125824Y0175136D02*
X0111443Y0175136D01*
X0112611Y0173538D02*
X0125824Y0173538D01*
X0125824Y0171939D02*
X0114831Y0171939D01*
X0116430Y0170341D02*
X0125824Y0170341D01*
X0125824Y0168742D02*
X0117506Y0168742D01*
X0117624Y0167144D02*
X0125824Y0167144D01*
X0125824Y0165545D02*
X0117624Y0165545D01*
X0117624Y0163947D02*
X0125824Y0163947D01*
X0125824Y0162348D02*
X0117624Y0162348D01*
X0117624Y0160750D02*
X0125824Y0160750D01*
X0125824Y0159151D02*
X0117624Y0159151D01*
X0117624Y0157553D02*
X0125824Y0157553D01*
X0125824Y0155954D02*
X0117624Y0155954D01*
X0117997Y0154356D02*
X0125824Y0154356D01*
X0125824Y0152757D02*
X0118313Y0152757D01*
X0117944Y0151159D02*
X0125824Y0151159D01*
X0125824Y0149560D02*
X0116662Y0149560D01*
X0113458Y0147962D02*
X0125824Y0147962D01*
X0125824Y0146363D02*
X0112669Y0146363D01*
X0111384Y0144765D02*
X0125824Y0144765D01*
X0125824Y0143166D02*
X0112926Y0143166D01*
X0113588Y0141568D02*
X0125824Y0141568D01*
X0125824Y0139969D02*
X0113784Y0139969D01*
X0113627Y0138370D02*
X0125824Y0138370D01*
X0125824Y0136772D02*
X0112965Y0136772D01*
X0111480Y0135173D02*
X0125824Y0135173D01*
X0125824Y0133575D02*
X0111725Y0133575D01*
X0112785Y0131976D02*
X0125824Y0131976D01*
X0125824Y0130378D02*
X0113177Y0130378D01*
X0113069Y0128779D02*
X0125824Y0128779D01*
X0125824Y0127181D02*
X0112436Y0127181D01*
X0133024Y0127181D02*
X0204911Y0127181D01*
X0204911Y0128779D02*
X0133024Y0128779D01*
X0133024Y0130378D02*
X0204911Y0130378D01*
X0204911Y0131976D02*
X0133024Y0131976D01*
X0133024Y0133575D02*
X0204911Y0133575D01*
X0204911Y0135173D02*
X0133024Y0135173D01*
X0133024Y0136772D02*
X0204911Y0136772D01*
X0204911Y0138370D02*
X0202200Y0138370D01*
X0201779Y0137950D02*
X0203495Y0139666D01*
X0204424Y0141908D01*
X0204424Y0144335D01*
X0203495Y0146577D01*
X0201779Y0148293D01*
X0199537Y0149221D01*
X0197110Y0149221D01*
X0194868Y0148293D01*
X0193152Y0146577D01*
X0192224Y0144335D01*
X0192224Y0141908D01*
X0193152Y0139666D01*
X0194868Y0137950D01*
X0197110Y0137021D01*
X0199537Y0137021D01*
X0201779Y0137950D01*
X0203621Y0139969D02*
X0204911Y0139969D01*
X0204911Y0141568D02*
X0204283Y0141568D01*
X0204424Y0143166D02*
X0204911Y0143166D01*
X0204911Y0144765D02*
X0204246Y0144765D01*
X0203583Y0146363D02*
X0204911Y0146363D01*
X0204911Y0147962D02*
X0202110Y0147962D01*
X0204911Y0149560D02*
X0133024Y0149560D01*
X0133024Y0147962D02*
X0177909Y0147962D01*
X0177641Y0147825D02*
X0176941Y0147316D01*
X0176328Y0146704D01*
X0175820Y0146004D01*
X0175427Y0145232D01*
X0175159Y0144409D01*
X0175024Y0143554D01*
X0175024Y0143321D01*
X0180324Y0143321D01*
X0180324Y0148621D01*
X0180091Y0148621D01*
X0179236Y0148486D01*
X0178412Y0148218D01*
X0177641Y0147825D01*
X0176081Y0146363D02*
X0133024Y0146363D01*
X0133024Y0144765D02*
X0175275Y0144765D01*
X0175024Y0142921D02*
X0175024Y0142688D01*
X0175159Y0141833D01*
X0175427Y0141010D01*
X0175820Y0140239D01*
X0176328Y0139538D01*
X0176941Y0138926D01*
X0177641Y0138417D01*
X0178412Y0138024D01*
X0179236Y0137757D01*
X0180091Y0137621D01*
X0180324Y0137621D01*
X0180324Y0142921D01*
X0180724Y0142921D01*
X0180724Y0143321D01*
X0186024Y0143321D01*
X0186024Y0143554D01*
X0185888Y0144409D01*
X0185621Y0145232D01*
X0185228Y0146004D01*
X0184719Y0146704D01*
X0184107Y0147316D01*
X0183406Y0147825D01*
X0182635Y0148218D01*
X0181812Y0148486D01*
X0180956Y0148621D01*
X0180724Y0148621D01*
X0180724Y0143321D01*
X0180324Y0143321D01*
X0180324Y0142921D01*
X0175024Y0142921D01*
X0175245Y0141568D02*
X0133024Y0141568D01*
X0133024Y0143166D02*
X0180324Y0143166D01*
X0180724Y0143166D02*
X0192224Y0143166D01*
X0192365Y0141568D02*
X0185802Y0141568D01*
X0185888Y0141833D02*
X0186024Y0142688D01*
X0186024Y0142921D01*
X0180724Y0142921D01*
X0180724Y0137621D01*
X0180956Y0137621D01*
X0181812Y0137757D01*
X0182635Y0138024D01*
X0183406Y0138417D01*
X0184107Y0138926D01*
X0184719Y0139538D01*
X0185228Y0140239D01*
X0185621Y0141010D01*
X0185888Y0141833D01*
X0185032Y0139969D02*
X0193027Y0139969D01*
X0194448Y0138370D02*
X0183315Y0138370D01*
X0180724Y0138370D02*
X0180324Y0138370D01*
X0180324Y0139969D02*
X0180724Y0139969D01*
X0180724Y0141568D02*
X0180324Y0141568D01*
X0180324Y0144765D02*
X0180724Y0144765D01*
X0180724Y0146363D02*
X0180324Y0146363D01*
X0180324Y0147962D02*
X0180724Y0147962D01*
X0183139Y0147962D02*
X0194537Y0147962D01*
X0193064Y0146363D02*
X0184967Y0146363D01*
X0185773Y0144765D02*
X0192402Y0144765D01*
X0204911Y0151159D02*
X0133024Y0151159D01*
X0133024Y0152757D02*
X0204911Y0152757D01*
X0204911Y0154356D02*
X0133024Y0154356D01*
X0133024Y0155954D02*
X0204911Y0155954D01*
X0204911Y0157553D02*
X0133024Y0157553D01*
X0133024Y0159151D02*
X0204911Y0159151D01*
X0204911Y0160750D02*
X0133024Y0160750D01*
X0133024Y0162348D02*
X0203471Y0162348D01*
X0201873Y0163947D02*
X0133024Y0163947D01*
X0133024Y0165545D02*
X0200274Y0165545D01*
X0198676Y0167144D02*
X0133024Y0167144D01*
X0133024Y0168742D02*
X0197077Y0168742D01*
X0195479Y0170341D02*
X0182443Y0170341D01*
X0182721Y0170618D02*
X0181627Y0169524D01*
X0180197Y0168932D01*
X0178650Y0168932D01*
X0177952Y0169221D01*
X0145895Y0169221D01*
X0145197Y0168932D01*
X0143650Y0168932D01*
X0142221Y0169524D01*
X0141127Y0170618D01*
X0140535Y0172048D01*
X0140535Y0173595D01*
X0141127Y0175024D01*
X0142221Y0176118D01*
X0143650Y0176710D01*
X0145197Y0176710D01*
X0145895Y0176421D01*
X0177952Y0176421D01*
X0178650Y0176710D01*
X0180197Y0176710D01*
X0181627Y0176118D01*
X0182721Y0175024D01*
X0183313Y0173595D01*
X0183313Y0172048D01*
X0182721Y0170618D01*
X0183268Y0171939D02*
X0193880Y0171939D01*
X0192282Y0173538D02*
X0183313Y0173538D01*
X0182608Y0175136D02*
X0190683Y0175136D01*
X0189085Y0176735D02*
X0133024Y0176735D01*
X0133024Y0178333D02*
X0187486Y0178333D01*
X0185888Y0179932D02*
X0133024Y0179932D01*
X0133224Y0181530D02*
X0184289Y0181530D01*
X0179862Y0183129D02*
X0165185Y0183129D01*
X0159862Y0183129D02*
X0134822Y0183129D01*
X0129436Y0187924D02*
X0129412Y0187924D01*
X0127813Y0189523D02*
X0131034Y0189523D01*
X0132984Y0191121D02*
X0126215Y0191121D01*
X0108040Y0199114D02*
X0088024Y0199114D01*
X0088024Y0200712D02*
X0106441Y0200712D01*
X0104843Y0202311D02*
X0089005Y0202311D01*
X0090603Y0203909D02*
X0103244Y0203909D01*
X0106731Y0211902D02*
X0108316Y0211902D01*
X0098316Y0211902D02*
X0090434Y0211902D01*
X0088835Y0213501D02*
X0097089Y0213501D01*
X0096427Y0215099D02*
X0088024Y0215099D01*
X0088024Y0216698D02*
X0090723Y0216698D01*
X0093249Y0216698D02*
X0096424Y0216698D01*
X0096739Y0218296D02*
X0095331Y0218296D01*
X0095875Y0219895D02*
X0097470Y0219895D01*
X0099070Y0221493D02*
X0095736Y0221493D01*
X0095586Y0223092D02*
X0303649Y0223092D01*
X0303649Y0224690D02*
X0095586Y0224690D01*
X0095586Y0226289D02*
X0303649Y0226289D01*
X0303649Y0227887D02*
X0095586Y0227887D01*
X0095586Y0229486D02*
X0303649Y0229486D01*
X0303649Y0231084D02*
X0095586Y0231084D01*
X0089891Y0235880D02*
X0088024Y0235880D01*
X0088024Y0237478D02*
X0091489Y0237478D01*
X0093088Y0239077D02*
X0088024Y0239077D01*
X0088024Y0240675D02*
X0096476Y0240675D01*
X0097242Y0242274D02*
X0088967Y0242274D01*
X0088668Y0234281D02*
X0088024Y0234281D01*
X0088024Y0232683D02*
X0088386Y0232683D01*
X0088386Y0231084D02*
X0088024Y0231084D01*
X0088024Y0229486D02*
X0088386Y0229486D01*
X0088386Y0227887D02*
X0088024Y0227887D01*
X0088024Y0226289D02*
X0088386Y0226289D01*
X0088386Y0224690D02*
X0088024Y0224690D01*
X0088024Y0223092D02*
X0088386Y0223092D01*
X0088236Y0221493D02*
X0088024Y0221493D01*
X0088024Y0219895D02*
X0088097Y0219895D01*
X0088024Y0218296D02*
X0088641Y0218296D01*
X0105978Y0221493D02*
X0109070Y0221493D01*
X0115978Y0221493D02*
X0119070Y0221493D01*
X0125978Y0221493D02*
X0130643Y0221493D01*
X0128321Y0219895D02*
X0127577Y0219895D01*
X0136726Y0219895D02*
X0137470Y0219895D01*
X0138316Y0211902D02*
X0135798Y0211902D01*
X0146731Y0211902D02*
X0148316Y0211902D01*
X0156731Y0211902D02*
X0158316Y0211902D01*
X0166731Y0211902D02*
X0168316Y0211902D01*
X0176731Y0211902D02*
X0178316Y0211902D01*
X0196524Y0203909D02*
X0222685Y0203909D01*
X0221301Y0202311D02*
X0196524Y0202311D01*
X0196986Y0200712D02*
X0220639Y0200712D01*
X0220524Y0199114D02*
X0197724Y0199114D01*
X0197724Y0197515D02*
X0220728Y0197515D01*
X0221390Y0195917D02*
X0197724Y0195917D01*
X0196375Y0194318D02*
X0222900Y0194318D01*
X0208739Y0175136D02*
X0206634Y0175136D01*
X0208111Y0162234D02*
X0208111Y0084696D01*
X0213736Y0079071D01*
X0241924Y0079071D01*
X0241986Y0079134D01*
X0215124Y0087218D02*
X0303649Y0087218D01*
X0295734Y0088817D02*
X0215124Y0088817D01*
X0215124Y0090415D02*
X0295488Y0090415D01*
X0295488Y0092014D02*
X0215124Y0092014D01*
X0215124Y0093612D02*
X0295488Y0093612D01*
X0295488Y0095211D02*
X0293839Y0095211D01*
X0295437Y0096809D02*
X0295488Y0096809D01*
X0291182Y0101605D02*
X0247952Y0101605D01*
X0212720Y0076029D02*
X0145307Y0076029D01*
X0143709Y0077627D02*
X0162624Y0077627D01*
X0162917Y0077414D02*
X0163721Y0077005D01*
X0164580Y0076725D01*
X0165472Y0076584D01*
X0165542Y0076584D01*
X0165542Y0081940D01*
X0160187Y0081940D01*
X0160187Y0081870D01*
X0160328Y0080978D01*
X0160607Y0080119D01*
X0161017Y0079314D01*
X0161548Y0078584D01*
X0162186Y0077945D01*
X0162917Y0077414D01*
X0161081Y0079226D02*
X0142110Y0079226D01*
X0140512Y0080824D02*
X0160378Y0080824D01*
X0160187Y0082702D02*
X0165542Y0082702D01*
X0165542Y0081940D01*
X0166305Y0081940D01*
X0166305Y0082702D01*
X0171661Y0082702D01*
X0171661Y0082773D01*
X0171519Y0083665D01*
X0171240Y0084523D01*
X0170830Y0085328D01*
X0170300Y0086059D01*
X0169661Y0086697D01*
X0168930Y0087228D01*
X0168747Y0087321D01*
X0168930Y0087414D01*
X0169661Y0087945D01*
X0170300Y0088584D01*
X0170830Y0089314D01*
X0171240Y0090119D01*
X0171519Y0090978D01*
X0171661Y0091870D01*
X0171661Y0091940D01*
X0166305Y0091940D01*
X0166305Y0092702D01*
X0171661Y0092702D01*
X0171661Y0092773D01*
X0171519Y0093665D01*
X0171240Y0094523D01*
X0170830Y0095328D01*
X0170300Y0096059D01*
X0169661Y0096697D01*
X0168930Y0097228D01*
X0168126Y0097638D01*
X0167267Y0097917D01*
X0166375Y0098058D01*
X0166305Y0098058D01*
X0166305Y0092702D01*
X0165542Y0092702D01*
X0165542Y0091940D01*
X0160187Y0091940D01*
X0160187Y0091870D01*
X0160328Y0090978D01*
X0160607Y0090119D01*
X0161017Y0089314D01*
X0161548Y0088584D01*
X0162186Y0087945D01*
X0162917Y0087414D01*
X0163100Y0087321D01*
X0162917Y0087228D01*
X0162186Y0086697D01*
X0161548Y0086059D01*
X0161017Y0085328D01*
X0160607Y0084523D01*
X0160328Y0083665D01*
X0160187Y0082773D01*
X0160187Y0082702D01*
X0160444Y0084021D02*
X0137315Y0084021D01*
X0138913Y0082423D02*
X0165542Y0082423D01*
X0165542Y0082702D02*
X0165542Y0088058D01*
X0165542Y0091940D01*
X0166305Y0091940D01*
X0166305Y0082702D01*
X0165542Y0082702D01*
X0166305Y0082423D02*
X0205859Y0082423D01*
X0204927Y0084021D02*
X0171404Y0084021D01*
X0170619Y0085620D02*
X0204911Y0085620D01*
X0204911Y0087218D02*
X0168944Y0087218D01*
X0170469Y0088817D02*
X0204911Y0088817D01*
X0204911Y0090415D02*
X0171337Y0090415D01*
X0171528Y0093612D02*
X0204911Y0093612D01*
X0204911Y0092014D02*
X0166305Y0092014D01*
X0165924Y0092321D02*
X0157424Y0092321D01*
X0154424Y0095321D01*
X0154424Y0111946D01*
X0162917Y0097228D02*
X0162186Y0096697D01*
X0161548Y0096059D01*
X0161017Y0095328D01*
X0160607Y0094523D01*
X0160328Y0093665D01*
X0160187Y0092773D01*
X0160187Y0092702D01*
X0165542Y0092702D01*
X0165542Y0098058D01*
X0165472Y0098058D01*
X0164580Y0097917D01*
X0163721Y0097638D01*
X0162917Y0097228D01*
X0162340Y0096809D02*
X0133024Y0096809D01*
X0133024Y0095211D02*
X0160957Y0095211D01*
X0160320Y0093612D02*
X0133024Y0093612D01*
X0133024Y0092014D02*
X0165542Y0092014D01*
X0165542Y0093612D02*
X0166305Y0093612D01*
X0166305Y0095211D02*
X0165542Y0095211D01*
X0165542Y0096809D02*
X0166305Y0096809D01*
X0169507Y0096809D02*
X0204911Y0096809D01*
X0204911Y0095211D02*
X0170890Y0095211D01*
X0166305Y0090415D02*
X0165542Y0090415D01*
X0165542Y0088817D02*
X0166305Y0088817D01*
X0166305Y0087218D02*
X0165542Y0087218D01*
X0165542Y0085620D02*
X0166305Y0085620D01*
X0166305Y0084021D02*
X0165542Y0084021D01*
X0166305Y0081940D02*
X0171661Y0081940D01*
X0171661Y0081870D01*
X0171519Y0080978D01*
X0171240Y0080119D01*
X0170830Y0079314D01*
X0170300Y0078584D01*
X0169661Y0077945D01*
X0168930Y0077414D01*
X0168126Y0077005D01*
X0167267Y0076725D01*
X0166375Y0076584D01*
X0166305Y0076584D01*
X0166305Y0081940D01*
X0166305Y0080824D02*
X0165542Y0080824D01*
X0165542Y0079226D02*
X0166305Y0079226D01*
X0166305Y0077627D02*
X0165542Y0077627D01*
X0169223Y0077627D02*
X0210655Y0077627D01*
X0209056Y0079226D02*
X0170766Y0079226D01*
X0171469Y0080824D02*
X0207458Y0080824D01*
X0204911Y0098408D02*
X0133024Y0098408D01*
X0133024Y0100006D02*
X0204911Y0100006D01*
X0204911Y0101605D02*
X0133024Y0101605D01*
X0133024Y0103203D02*
X0204911Y0103203D01*
X0204911Y0104802D02*
X0133024Y0104802D01*
X0133024Y0106400D02*
X0204911Y0106400D01*
X0204911Y0107999D02*
X0133024Y0107999D01*
X0133024Y0109597D02*
X0204911Y0109597D01*
X0204911Y0111196D02*
X0133024Y0111196D01*
X0134897Y0112794D02*
X0177686Y0112794D01*
X0177641Y0112817D02*
X0178412Y0112424D01*
X0179236Y0112157D01*
X0180091Y0112021D01*
X0180324Y0112021D01*
X0180324Y0117321D01*
X0180724Y0117321D01*
X0180724Y0117721D01*
X0186024Y0117721D01*
X0186024Y0117954D01*
X0185888Y0118809D01*
X0185621Y0119632D01*
X0185228Y0120404D01*
X0184719Y0121104D01*
X0184107Y0121716D01*
X0183406Y0122225D01*
X0182635Y0122618D01*
X0181812Y0122886D01*
X0180956Y0123021D01*
X0180724Y0123021D01*
X0180724Y0117721D01*
X0180324Y0117721D01*
X0180324Y0123021D01*
X0180091Y0123021D01*
X0179236Y0122886D01*
X0178412Y0122618D01*
X0177641Y0122225D01*
X0176941Y0121716D01*
X0176328Y0121104D01*
X0175820Y0120404D01*
X0175427Y0119632D01*
X0175159Y0118809D01*
X0175024Y0117954D01*
X0175024Y0117721D01*
X0180324Y0117721D01*
X0180324Y0117321D01*
X0175024Y0117321D01*
X0175024Y0117088D01*
X0175159Y0116233D01*
X0175427Y0115410D01*
X0175820Y0114639D01*
X0176328Y0113938D01*
X0176941Y0113326D01*
X0177641Y0112817D01*
X0175998Y0114393D02*
X0135748Y0114393D01*
X0135813Y0115991D02*
X0175238Y0115991D01*
X0175282Y0119188D02*
X0133148Y0119188D01*
X0133024Y0120787D02*
X0176098Y0120787D01*
X0177955Y0122385D02*
X0133024Y0122385D01*
X0133024Y0123984D02*
X0204911Y0123984D01*
X0204911Y0125582D02*
X0133024Y0125582D01*
X0135155Y0117590D02*
X0180324Y0117590D01*
X0180724Y0117590D02*
X0192224Y0117590D01*
X0192224Y0118735D02*
X0192224Y0116308D01*
X0193152Y0114066D01*
X0194868Y0112350D01*
X0197110Y0111421D01*
X0199537Y0111421D01*
X0201779Y0112350D01*
X0203495Y0114066D01*
X0204424Y0116308D01*
X0204424Y0118735D01*
X0203495Y0120977D01*
X0201779Y0122693D01*
X0199537Y0123621D01*
X0197110Y0123621D01*
X0194868Y0122693D01*
X0193152Y0120977D01*
X0192224Y0118735D01*
X0192412Y0119188D02*
X0185765Y0119188D01*
X0184949Y0120787D02*
X0193074Y0120787D01*
X0194561Y0122385D02*
X0183092Y0122385D01*
X0180724Y0122385D02*
X0180324Y0122385D01*
X0180324Y0120787D02*
X0180724Y0120787D01*
X0180724Y0119188D02*
X0180324Y0119188D01*
X0180724Y0117321D02*
X0186024Y0117321D01*
X0186024Y0117088D01*
X0185888Y0116233D01*
X0185621Y0115410D01*
X0185228Y0114639D01*
X0184719Y0113938D01*
X0184107Y0113326D01*
X0183406Y0112817D01*
X0182635Y0112424D01*
X0181812Y0112157D01*
X0180956Y0112021D01*
X0180724Y0112021D01*
X0180724Y0117321D01*
X0180724Y0115991D02*
X0180324Y0115991D01*
X0180324Y0114393D02*
X0180724Y0114393D01*
X0180724Y0112794D02*
X0180324Y0112794D01*
X0183361Y0112794D02*
X0194424Y0112794D01*
X0193017Y0114393D02*
X0185049Y0114393D01*
X0185810Y0115991D02*
X0192355Y0115991D01*
X0202223Y0112794D02*
X0204911Y0112794D01*
X0204911Y0114393D02*
X0203630Y0114393D01*
X0204293Y0115991D02*
X0204911Y0115991D01*
X0204911Y0117590D02*
X0204424Y0117590D01*
X0204236Y0119188D02*
X0204911Y0119188D01*
X0204911Y0120787D02*
X0203574Y0120787D01*
X0204911Y0122385D02*
X0202086Y0122385D01*
X0177733Y0138370D02*
X0133024Y0138370D01*
X0133024Y0139969D02*
X0176015Y0139969D01*
X0208111Y0162234D02*
X0182524Y0187821D01*
X0177324Y0187924D02*
X0177124Y0187924D01*
X0177124Y0186326D02*
X0177324Y0186326D01*
X0178264Y0184727D02*
X0175935Y0184727D01*
X0177124Y0189523D02*
X0177324Y0189523D01*
X0178470Y0191121D02*
X0175729Y0191121D01*
X0141239Y0175136D02*
X0133024Y0175136D01*
X0133024Y0173538D02*
X0140535Y0173538D01*
X0140580Y0171939D02*
X0133024Y0171939D01*
X0133024Y0170341D02*
X0141404Y0170341D01*
X0114424Y0167821D02*
X0112324Y0169921D01*
X0107884Y0169921D01*
X0102333Y0171939D02*
X0088024Y0171939D01*
X0088024Y0170341D02*
X0101984Y0170341D01*
X0101986Y0168742D02*
X0088024Y0168742D01*
X0088024Y0167144D02*
X0102648Y0167144D01*
X0103916Y0165545D02*
X0088024Y0165545D01*
X0088024Y0163947D02*
X0103565Y0163947D01*
X0102503Y0162348D02*
X0088024Y0162348D01*
X0088024Y0160750D02*
X0101984Y0160750D01*
X0101984Y0159151D02*
X0088024Y0159151D01*
X0088024Y0157553D02*
X0102479Y0157553D01*
X0103507Y0155954D02*
X0088024Y0155954D01*
X0088024Y0154356D02*
X0103974Y0154356D01*
X0114424Y0152821D02*
X0114424Y0167821D01*
X0104325Y0175136D02*
X0088024Y0175136D01*
X0088024Y0173538D02*
X0103156Y0173538D01*
X0102817Y0176735D02*
X0088024Y0176735D01*
X0088024Y0178333D02*
X0102155Y0178333D01*
X0101984Y0179932D02*
X0088024Y0179932D01*
X0088024Y0181530D02*
X0102164Y0181530D01*
X0102826Y0183129D02*
X0088024Y0183129D01*
X0088024Y0184727D02*
X0104346Y0184727D01*
X0108130Y0232683D02*
X0108364Y0232683D01*
X0116389Y0232683D02*
X0118364Y0232683D01*
X0155870Y0251865D02*
X0158883Y0251865D01*
X0165870Y0251865D02*
X0168883Y0251865D01*
X0175870Y0251865D02*
X0178883Y0251865D01*
X0185870Y0251865D02*
X0188883Y0251865D01*
X0195870Y0251865D02*
X0198883Y0251865D01*
X0205870Y0251865D02*
X0208883Y0251865D01*
X0215870Y0251865D02*
X0218883Y0251865D01*
X0225870Y0251865D02*
X0228883Y0251865D01*
X0235870Y0251865D02*
X0238883Y0251865D01*
X0245870Y0251865D02*
X0248883Y0251865D01*
X0255870Y0251865D02*
X0258883Y0251865D01*
X0265870Y0251865D02*
X0268883Y0251865D01*
X0275870Y0251865D02*
X0278883Y0251865D01*
X0285870Y0251865D02*
X0288883Y0251865D01*
X0299895Y0263054D02*
X0027403Y0263054D01*
X0025805Y0261456D02*
X0301493Y0261456D01*
X0303649Y0221493D02*
X0280978Y0221493D01*
X0282577Y0219895D02*
X0303649Y0219895D01*
X0303649Y0218296D02*
X0283308Y0218296D01*
X0283624Y0216698D02*
X0303649Y0216698D01*
X0303649Y0215099D02*
X0283620Y0215099D01*
X0282958Y0213501D02*
X0303649Y0213501D01*
X0303649Y0211902D02*
X0281731Y0211902D01*
X0274070Y0221493D02*
X0270978Y0221493D01*
X0264070Y0221493D02*
X0260978Y0221493D01*
X0254070Y0221493D02*
X0250978Y0221493D01*
X0244070Y0221493D02*
X0240978Y0221493D01*
X0234070Y0221493D02*
X0230978Y0221493D01*
X0224070Y0221493D02*
X0220978Y0221493D01*
X0214070Y0221493D02*
X0210978Y0221493D01*
X0256620Y0184727D02*
X0260492Y0184727D01*
X0262091Y0183129D02*
X0257452Y0183129D01*
X0252424Y0181530D02*
X0263689Y0181530D01*
X0265288Y0179932D02*
X0257523Y0179932D01*
X0256778Y0178333D02*
X0266886Y0178333D01*
X0268164Y0176735D02*
X0255130Y0176735D01*
X0160511Y0090415D02*
X0133024Y0090415D01*
X0133024Y0088817D02*
X0161378Y0088817D01*
X0162903Y0087218D02*
X0134118Y0087218D01*
X0135716Y0085620D02*
X0161229Y0085620D01*
X0226424Y0055248D02*
X0226824Y0055248D01*
X0226824Y0053649D02*
X0226424Y0053649D01*
X0226424Y0052051D02*
X0226824Y0052051D01*
X0226824Y0051221D02*
X0232124Y0051221D01*
X0232124Y0050988D01*
X0231988Y0050133D01*
X0231721Y0049310D01*
X0231328Y0048539D01*
X0230819Y0047838D01*
X0230207Y0047226D01*
X0229506Y0046717D01*
X0228735Y0046324D01*
X0227912Y0046057D01*
X0227056Y0045921D01*
X0226824Y0045921D01*
X0226824Y0051221D01*
X0226824Y0050452D02*
X0226424Y0050452D01*
X0226424Y0048854D02*
X0226824Y0048854D01*
X0226824Y0047255D02*
X0226424Y0047255D01*
X0230236Y0047255D02*
X0248611Y0047255D01*
X0248641Y0047226D02*
X0249341Y0046717D01*
X0250112Y0046324D01*
X0250936Y0046057D01*
X0251791Y0045921D01*
X0252024Y0045921D01*
X0252024Y0051221D01*
X0252424Y0051221D01*
X0252424Y0051621D01*
X0252024Y0051621D01*
X0252024Y0051221D01*
X0246724Y0051221D01*
X0246724Y0050988D01*
X0246859Y0050133D01*
X0247127Y0049310D01*
X0247520Y0048539D01*
X0248028Y0047838D01*
X0248641Y0047226D01*
X0247359Y0048854D02*
X0231488Y0048854D01*
X0232039Y0050452D02*
X0246809Y0050452D01*
X0246755Y0052051D02*
X0232092Y0052051D01*
X0231661Y0053649D02*
X0247186Y0053649D01*
X0248272Y0055248D02*
X0230575Y0055248D01*
X0252024Y0055248D02*
X0252424Y0055248D01*
X0252424Y0053649D02*
X0252024Y0053649D01*
X0252024Y0052051D02*
X0252424Y0052051D01*
X0252424Y0051221D02*
X0257724Y0051221D01*
X0257724Y0050988D01*
X0257588Y0050133D01*
X0257321Y0049310D01*
X0256928Y0048539D01*
X0256419Y0047838D01*
X0255807Y0047226D01*
X0255106Y0046717D01*
X0254335Y0046324D01*
X0253512Y0046057D01*
X0252656Y0045921D01*
X0252424Y0045921D01*
X0252424Y0051221D01*
X0252424Y0050452D02*
X0252024Y0050452D01*
X0252024Y0048854D02*
X0252424Y0048854D01*
X0252424Y0047255D02*
X0252024Y0047255D01*
X0255836Y0047255D02*
X0266853Y0047255D01*
X0266186Y0048854D02*
X0257088Y0048854D01*
X0257639Y0050452D02*
X0266024Y0050452D01*
X0266295Y0052051D02*
X0257692Y0052051D01*
X0257261Y0053649D02*
X0267115Y0053649D01*
X0269207Y0055248D02*
X0256175Y0055248D01*
X0253539Y0021679D02*
X0251508Y0021679D01*
X0243539Y0021679D02*
X0241508Y0021679D01*
X0233539Y0021679D02*
X0231508Y0021679D01*
X0261508Y0021679D02*
X0263539Y0021679D01*
X0271508Y0021679D02*
X0273539Y0021679D01*
X0288649Y0018482D02*
X0023649Y0018482D01*
X0023649Y0016884D02*
X0288649Y0016884D01*
X0288649Y0015285D02*
X0023649Y0015285D01*
X0024262Y0013687D02*
X0288649Y0013687D01*
X0288649Y0012088D02*
X0025861Y0012088D01*
X0027459Y0010490D02*
X0288649Y0010490D01*
X0288649Y0008891D02*
X0029058Y0008891D01*
X0030656Y0007293D02*
X0288649Y0007293D01*
X0288649Y0005694D02*
X0032255Y0005694D01*
X0023649Y0042460D02*
X0047533Y0042460D01*
X0046669Y0044058D02*
X0023649Y0044058D01*
X0023649Y0045657D02*
X0046313Y0045657D01*
X0046313Y0047255D02*
X0023649Y0047255D01*
X0023649Y0048854D02*
X0046313Y0048854D01*
X0046313Y0050452D02*
X0023649Y0050452D01*
X0023649Y0052051D02*
X0046313Y0052051D01*
X0046313Y0053649D02*
X0023649Y0053649D01*
X0023649Y0055248D02*
X0046320Y0055248D01*
X0046689Y0056846D02*
X0023649Y0056846D01*
X0023649Y0058445D02*
X0047578Y0058445D01*
X0049422Y0060043D02*
X0023649Y0060043D01*
D23*
X0256924Y0117821D03*
X0261924Y0117821D03*
X0266924Y0117821D03*
X0271924Y0117821D03*
X0271924Y0122821D03*
X0271924Y0127821D03*
X0271924Y0132821D03*
X0266924Y0132821D03*
X0261924Y0132821D03*
X0256924Y0132821D03*
X0256924Y0127821D03*
X0261924Y0127821D03*
X0266924Y0127821D03*
X0266924Y0122821D03*
X0261924Y0122821D03*
X0256924Y0122821D03*
D24*
X0192524Y0197821D02*
X0192524Y0216321D01*
M02*
